<svg width="222" height="40" viewBox="0 0 222 40" fill="none" xmlns="http://www.w3.org/2000/svg">
<path d="M2.028 16.038L2.90217 16.5236L2.90467 16.5191L2.028 16.038ZM5.278 12.736L5.76827 13.6076L5.77183 13.6056L5.278 12.736ZM15.6 13.256L16.1957 12.4528L16.1957 12.4528L15.6 13.256ZM18.694 17.936V18.936H19.9912L19.6611 17.6815L18.694 17.936ZM13.806 17.936L12.9035 18.3667L13.1752 18.936H13.806V17.936ZM12.246 16.194L11.7282 17.0496L11.738 17.0554L12.246 16.194ZM6.656 17.026L7.40266 17.6912L7.40266 17.6912L6.656 17.026ZM6.656 24.67L5.90934 25.3352L6.656 24.67ZM12.246 25.502L11.738 24.6406L11.7282 24.6465L12.246 25.502ZM13.806 23.76V22.76H13.1752L12.9035 23.3293L13.806 23.76ZM18.694 23.76L19.6611 24.0145L19.9912 22.76H18.694V23.76ZM15.6 28.44L16.1898 29.2476L16.1957 29.2432L15.6 28.44ZM5.278 28.96L4.77953 29.8269L4.78592 29.8306L4.79236 29.8342L5.278 28.96ZM2.028 25.658L2.90216 25.1724L2.90216 25.1724L2.028 25.658ZM1.858 20.848C1.858 19.1941 2.21439 17.7616 2.90216 16.5236L1.15384 15.5524C0.281605 17.1224 -0.142 18.8966 -0.142 20.848H1.858ZM2.90467 16.5191C3.59665 15.2582 4.54757 14.2942 5.76826 13.6076L4.78774 11.8644C3.2351 12.7378 2.01935 13.9752 1.15133 15.5569L2.90467 16.5191ZM5.77183 13.6056C7.01125 12.9017 8.42423 12.54 10.036 12.54V10.54C8.11177 10.54 6.35275 10.9756 4.78418 11.8664L5.77183 13.6056ZM10.036 12.54C12.0169 12.54 13.6557 13.0591 15.0043 14.0592L16.1957 12.4528C14.4589 11.1648 12.3884 10.54 10.036 10.54V12.54ZM15.0043 14.0592C16.3523 15.0588 17.2608 16.4192 17.7269 18.1905L19.6611 17.6815C19.0872 15.5008 17.933 13.7412 16.1957 12.4528L15.0043 14.0592ZM18.694 16.936H13.806V18.936H18.694V16.936ZM14.7085 17.5053C14.2657 16.5775 13.6147 15.8402 12.754 15.3326L11.738 17.0554C12.2293 17.3451 12.6183 17.7692 12.9035 18.3667L14.7085 17.5053ZM12.7638 15.3385C11.9332 14.8357 10.9965 14.596 9.984 14.596V16.596C10.6702 16.596 11.2415 16.7549 11.7282 17.0495L12.7638 15.3385ZM9.984 14.596C8.35273 14.596 6.96339 15.1777 5.90934 16.3608L7.40266 17.6912C8.04727 16.9677 8.8766 16.596 9.984 16.596V14.596ZM5.90934 16.3608C4.85906 17.5397 4.382 19.0715 4.382 20.848H6.382C6.382 19.4352 6.75427 18.419 7.40266 17.6912L5.90934 16.3608ZM4.382 20.848C4.382 22.6245 4.85906 24.1563 5.90934 25.3352L7.40266 24.0048C6.75427 23.277 6.382 22.2608 6.382 20.848H4.382ZM5.90934 25.3352C6.96339 26.5183 8.35273 27.1 9.984 27.1V25.1C8.8766 25.1 8.04727 24.7283 7.40266 24.0048L5.90934 25.3352ZM9.984 27.1C10.9965 27.1 11.9332 26.8603 12.7638 26.3575L11.7282 24.6465C11.2415 24.9411 10.6702 25.1 9.984 25.1V27.1ZM12.754 26.3634C13.6147 25.8558 14.2657 25.1185 14.7085 24.1907L12.9035 23.3293C12.6183 23.9268 12.2293 24.3509 11.738 24.6406L12.754 26.3634ZM13.806 24.76H18.694V22.76H13.806V24.76ZM17.7269 23.5055C17.2608 25.2768 16.3523 26.6372 15.0043 27.6368L16.1957 29.2432C17.933 27.9548 19.0872 26.1952 19.6611 24.0145L17.7269 23.5055ZM15.0102 27.6324C13.6613 28.6176 12.0203 29.13 10.036 29.13V31.13C12.385 31.13 14.4534 30.5157 16.1898 29.2476L15.0102 27.6324ZM10.036 29.13C8.42041 29.13 7.00448 28.7752 5.76364 28.0858L4.79236 29.8342C6.35952 30.7048 8.11559 31.13 10.036 31.13V29.13ZM5.77647 28.0931C4.54803 27.3867 3.59428 26.4182 2.90216 25.1724L1.15384 26.1436C2.02172 27.7058 3.23463 28.9386 4.77953 29.8269L5.77647 28.0931ZM2.90216 25.1724C2.21439 23.9344 1.858 22.5019 1.858 20.848H-0.142C-0.142 22.7994 0.281605 24.5736 1.15384 26.1436L2.90216 25.1724ZM21.3647 18.794L20.473 18.3413L20.4675 18.3523L21.3647 18.794ZM23.6787 16.194L24.2087 17.042L24.2087 17.042L23.6787 16.194ZM29.6067 15.908L29.1278 16.7859L29.1361 16.7904L29.6067 15.908ZM31.4007 17.546L30.549 18.0701L32.4007 21.079V17.546H31.4007ZM31.4007 15.492V14.492H30.4007V15.492H31.4007ZM35.8467 15.492H36.8467V14.492H35.8467V15.492ZM35.8467 30V31H36.8467V30H35.8467ZM31.4007 30H30.4007V31H31.4007V30ZM31.4007 27.946H32.4007V24.533L30.5588 27.4063L31.4007 27.946ZM29.5807 29.584L29.1101 28.7016L29.1018 28.7061L29.5807 29.584ZM23.6787 29.298L23.1379 30.1392L23.1487 30.146L23.6787 29.298ZM21.3647 26.672L20.4649 27.1083L20.4689 27.1165L20.473 27.1247L21.3647 26.672ZM30.4647 20.12L29.7381 20.8073L29.748 20.8174L30.4647 20.12ZM25.9667 20.12L25.25 19.4226L25.2497 19.4229L25.9667 20.12ZM25.9667 25.372L25.2311 26.0495L25.2404 26.0595L25.25 26.0694L25.9667 25.372ZM30.4647 25.372L29.7479 24.6746L29.7382 24.6848L30.4647 25.372ZM21.5327 22.72C21.5327 21.3541 21.7864 20.2015 22.2619 19.2357L20.4675 18.3523C19.8337 19.6398 19.5327 21.1046 19.5327 22.72H21.5327ZM22.2564 19.2467C22.7548 18.2649 23.408 17.5424 24.2087 17.042L23.1487 15.346C22.008 16.0589 21.1186 17.0698 20.473 18.3413L22.2564 19.2467ZM24.2087 17.042C25.0131 16.5392 25.9113 16.284 26.9287 16.284V14.284C25.5541 14.284 24.2856 14.6354 23.1487 15.346L24.2087 17.042ZM26.9287 16.284C27.8137 16.284 28.5361 16.4631 29.1278 16.7859L30.0855 15.0301C29.1519 14.5209 28.089 14.284 26.9287 14.284V16.284ZM29.1361 16.7904C29.7778 17.1326 30.2363 17.5619 30.549 18.0701L32.2523 17.0219C31.7331 16.1781 30.9956 15.5154 30.0773 15.0256L29.1361 16.7904ZM32.4007 17.546V15.492H30.4007V17.546H32.4007ZM31.4007 16.492H35.8467V14.492H31.4007V16.492ZM34.8467 15.492V30H36.8467V15.492H34.8467ZM35.8467 29H31.4007V31H35.8467V29ZM32.4007 30V27.946H30.4007V30H32.4007ZM30.5588 27.4063C30.227 27.924 29.7547 28.3579 29.1101 28.7016L30.0513 30.4664C30.9667 29.9781 31.7077 29.32 32.2426 28.4857L30.5588 27.4063ZM29.1018 28.7061C28.5101 29.0289 27.7877 29.208 26.9027 29.208V31.208C28.063 31.208 29.1259 30.9711 30.0595 30.4619L29.1018 28.7061ZM26.9027 29.208C25.9056 29.208 25.0155 28.9543 24.2087 28.45L23.1487 30.146C24.2832 30.8551 25.5425 31.208 26.9027 31.208V29.208ZM24.2194 28.4568C23.4121 27.9378 22.7558 27.2031 22.2564 26.2193L20.473 27.1247C21.1176 28.3942 22.0039 29.4102 23.1379 30.1392L24.2194 28.4568ZM22.2645 26.2357C21.7862 25.2493 21.5327 24.0855 21.5327 22.72H19.5327C19.5327 24.3359 19.8338 25.8067 20.4649 27.1083L22.2645 26.2357ZM32.4007 22.746C32.4007 21.4421 32.0283 20.2931 31.1814 19.4226L29.748 20.8174C30.1491 21.2296 30.4007 21.8313 30.4007 22.746H32.4007ZM31.1912 19.4328C30.3953 18.5915 29.3871 18.158 28.2287 18.158V20.158C28.8383 20.158 29.3207 20.3658 29.7382 20.8072L31.1912 19.4328ZM28.2287 18.158C27.071 18.158 26.0596 18.5905 25.25 19.4226L26.6834 20.8174C27.1217 20.3668 27.6184 20.158 28.2287 20.158V18.158ZM25.2497 19.4229C24.4154 20.2811 24.0567 21.425 24.0567 22.72H26.0567C26.0567 21.7963 26.3046 21.2069 26.6837 20.8171L25.2497 19.4229ZM24.0567 22.72C24.0567 24.0176 24.4162 25.1647 25.2311 26.0495L26.7022 24.6945C26.3038 24.262 26.0567 23.641 26.0567 22.72H24.0567ZM25.25 26.0694C26.0596 26.9015 27.071 27.334 28.2287 27.334V25.334C27.6184 25.334 27.1217 25.1252 26.6834 24.6746L25.25 26.0694ZM28.2287 27.334C29.3871 27.334 30.3953 26.9005 31.1912 26.0592L29.7382 24.6848C29.3207 25.1262 28.8383 25.334 28.2287 25.334V27.334ZM31.1814 26.0694C32.0283 25.1989 32.4007 24.0499 32.4007 22.746H30.4007C30.4007 23.6607 30.1491 24.2624 29.748 24.6746L31.1814 26.0694ZM61.8652 16.974L61.1467 17.6696L61.1524 17.6754L61.8652 16.974ZM63.4772 30V31H64.4772V30H63.4772ZM59.0572 30H58.0572V31H59.0572V30ZM58.3032 19.964L57.5721 20.6463L57.5839 20.6589L57.5961 20.6711L58.3032 19.964ZM54.2212 19.964L53.5022 19.269L53.5018 19.2694L54.2212 19.964ZM53.4932 30V31H54.4932V30H53.4932ZM49.0732 30H48.0732V31H49.0732V30ZM48.3192 19.964L47.5881 20.6463L47.5999 20.6589L47.6121 20.6711L48.3192 19.964ZM44.2372 19.964L43.5182 19.269L43.5178 19.2694L44.2372 19.964ZM43.5092 30V31H44.5092V30H43.5092ZM39.0632 30H38.0632V31H39.0632V30ZM39.0632 15.492V14.492H38.0632V15.492H39.0632ZM43.5092 15.492H44.5092V14.492H43.5092V15.492ZM43.5092 17.312H42.5092V20.3351L44.3119 17.9083L43.5092 17.312ZM45.2772 15.882L45.7071 16.7849L45.7158 16.7807L45.7244 16.7764L45.2772 15.882ZM50.6592 16.038L50.1765 16.9139L50.184 16.9179L50.6592 16.038ZM52.6872 18.04L51.8147 18.5286L52.6363 19.9958L53.5331 18.5733L52.6872 18.04ZM57.5752 16.336C59.1614 16.336 60.3125 16.808 61.1468 17.6696L62.5836 16.2784C61.3031 14.956 59.5943 14.336 57.5752 14.336V16.336ZM61.1524 17.6754C61.9972 18.5338 62.4772 19.7716 62.4772 21.524H64.4772C64.4772 19.3937 63.8825 17.5982 62.5779 16.2726L61.1524 17.6754ZM62.4772 21.524V30H64.4772V21.524H62.4772ZM63.4772 29H59.0572V31H63.4772V29ZM60.0572 30V22.122H58.0572V30H60.0572ZM60.0572 22.122C60.0572 21.0079 59.7542 20.0008 59.0103 19.2569L57.5961 20.6711C57.8574 20.9325 58.0572 21.3641 58.0572 22.122H60.0572ZM59.0342 19.2817C58.3195 18.5159 57.3538 18.184 56.2752 18.184V20.184C56.9299 20.184 57.3162 20.3721 57.5721 20.6463L59.0342 19.2817ZM56.2752 18.184C55.1953 18.184 54.23 18.516 53.5022 19.269L54.9402 20.659C55.2177 20.372 55.6217 20.184 56.2752 20.184V18.184ZM53.5018 19.2694C52.7822 20.0147 52.4932 21.0171 52.4932 22.122H54.4932C54.4932 21.3549 54.6895 20.9187 54.9406 20.6586L53.5018 19.2694ZM52.4932 22.122V30H54.4932V22.122H52.4932ZM53.4932 29H49.0732V31H53.4932V29ZM50.0732 30V22.122H48.0732V30H50.0732ZM50.0732 22.122C50.0732 21.0079 49.7702 20.0008 49.0263 19.2569L47.6121 20.6711C47.8734 20.9325 48.0732 21.3641 48.0732 22.122H50.0732ZM49.0502 19.2817C48.3355 18.5159 47.3698 18.184 46.2912 18.184V20.184C46.9459 20.184 47.3322 20.3721 47.5881 20.6463L49.0502 19.2817ZM46.2912 18.184C45.2113 18.184 44.246 18.516 43.5182 19.269L44.9562 20.659C45.2337 20.372 45.6377 20.184 46.2912 20.184V18.184ZM43.5178 19.2694C42.7982 20.0147 42.5092 21.0171 42.5092 22.122H44.5092C44.5092 21.3549 44.7055 20.9187 44.9566 20.6586L43.5178 19.2694ZM42.5092 22.122V30H44.5092V22.122H42.5092ZM43.5092 29H39.0632V31H43.5092V29ZM40.0632 30V15.492H38.0632V30H40.0632ZM39.0632 16.492H43.5092V14.492H39.0632V16.492ZM42.5092 15.492V17.312H44.5092V15.492H42.5092ZM44.3119 17.9083C44.6587 17.4415 45.1164 17.0662 45.7071 16.7849L44.8472 14.9791C43.982 15.3912 43.261 15.9692 42.7064 16.7157L44.3119 17.9083ZM45.7244 16.7764C46.2966 16.4903 46.9636 16.336 47.7472 16.336V14.336C46.6934 14.336 45.7138 14.5457 44.83 14.9876L45.7244 16.7764ZM47.7472 16.336C48.692 16.336 49.4929 16.5371 50.1766 16.9138L51.1418 15.1622C50.1268 14.6029 48.9863 14.336 47.7472 14.336V16.336ZM50.184 16.9179C50.8823 17.295 51.4212 17.8259 51.8147 18.5286L53.5597 17.5514C52.9825 16.5207 52.1694 15.717 51.1343 15.1581L50.184 16.9179ZM53.5331 18.5733C53.9441 17.9213 54.507 17.3818 55.2429 16.955L54.2395 15.225C53.242 15.8035 52.4356 16.564 51.8412 17.5067L53.5331 18.5733ZM55.2429 16.955C55.9538 16.5427 56.7249 16.336 57.5752 16.336V14.336C56.3801 14.336 55.2618 14.632 54.2395 15.225L55.2429 16.955ZM74.6726 26.23H75.6726V25.23H74.6726V26.23ZM74.6726 30V31H75.6726V30H74.6726ZM68.6406 28.83L67.978 29.579L67.9862 29.5862L68.6406 28.83ZM67.2886 19.184H68.2886V18.184H67.2886V19.184ZM65.5206 19.184H64.5206V20.184H65.5206V19.184ZM65.5206 15.492V14.492H64.5206V15.492H65.5206ZM67.2886 15.492V16.492H68.2886V15.492H67.2886ZM67.2886 11.956V10.956H66.2886V11.956H67.2886ZM71.7346 11.956H72.7346V10.956H71.7346V11.956ZM71.7346 15.492H70.7346V16.492H71.7346V15.492ZM74.6466 15.492H75.6466V14.492H74.6466V15.492ZM74.6466 19.184V20.184H75.6466V19.184H74.6466ZM71.7346 19.184V18.184H70.7346V19.184H71.7346ZM72.0466 25.944L71.3709 26.6812L71.3709 26.6812L72.0466 25.944ZM73.6726 26.23V30H75.6726V26.23H73.6726ZM74.6726 29H72.4106V31H74.6726V29ZM72.4106 29C70.9537 29 69.9591 28.6486 69.295 28.0738L67.9862 29.5862C69.1248 30.5714 70.6435 31 72.4106 31V29ZM69.3032 28.081C68.7028 27.5499 68.2886 26.5951 68.2886 24.956H66.2886C66.2886 26.8876 66.7757 28.5154 67.978 29.579L69.3032 28.081ZM68.2886 24.956V19.184H66.2886V24.956H68.2886ZM67.2886 18.184H65.5206V20.184H67.2886V18.184ZM66.5206 19.184V15.492H64.5206V19.184H66.5206ZM65.5206 16.492H67.2886V14.492H65.5206V16.492ZM68.2886 15.492V11.956H66.2886V15.492H68.2886ZM67.2886 12.956H71.7346V10.956H67.2886V12.956ZM70.7346 11.956V15.492H72.7346V11.956H70.7346ZM71.7346 16.492H74.6466V14.492H71.7346V16.492ZM73.6466 15.492V19.184H75.6466V15.492H73.6466ZM74.6466 18.184H71.7346V20.184H74.6466V18.184ZM70.7346 19.184V25.008H72.7346V19.184H70.7346ZM70.7346 25.008C70.7346 25.5726 70.8674 26.2196 71.3709 26.6812L72.7223 25.2068C72.7629 25.2441 72.7685 25.2724 72.7613 25.2508C72.7521 25.2233 72.7346 25.1493 72.7346 25.008H70.7346ZM71.3709 26.6812C71.8571 27.1268 72.517 27.23 73.0866 27.23V25.23C72.9045 25.23 72.7906 25.2116 72.7278 25.1943C72.6666 25.1775 72.6818 25.1697 72.7223 25.2068L71.3709 26.6812ZM73.0866 27.23H74.6726V25.23H73.0866V27.23ZM79.9051 29.298L79.431 30.1785L79.4366 30.1815L79.9051 29.298ZM77.2271 26.698L76.358 27.1927L76.3638 27.2027L77.2271 26.698ZM77.2531 18.82L78.1164 19.3247L78.1197 19.319L77.2531 18.82ZM79.9571 16.194L80.4256 17.0775L80.4256 17.0775L79.9571 16.194ZM87.6531 16.194L87.1846 17.0775L87.1846 17.0775L87.6531 16.194ZM90.3571 18.82L89.4905 19.319L89.4938 19.3247L90.3571 18.82ZM90.3311 26.698L89.4702 26.1893L89.4678 26.1933L90.3311 26.698ZM87.6011 29.298L87.1381 28.4116L87.1326 28.4145L87.6011 29.298ZM85.9111 25.424L85.1941 24.7269L85.1891 24.7321L85.1841 24.7374L85.9111 25.424ZM85.9371 20.068L85.2 20.7437L85.205 20.7492L85.2101 20.7546L85.9371 20.068ZM81.6471 20.068L82.3748 20.7541L82.3843 20.7437L81.6471 20.068ZM81.6211 25.424L80.8737 26.0884L80.8788 26.0941L80.884 26.0997L81.6211 25.424ZM83.7531 29.208C82.4788 29.208 81.3596 28.9374 80.3736 28.4145L79.4366 30.1815C80.7386 30.8719 82.1847 31.208 83.7531 31.208V29.208ZM80.3792 28.4175C79.4177 27.8998 78.6583 27.1647 78.0904 26.1933L76.3638 27.2027C77.1133 28.4847 78.1392 29.4829 79.431 30.1785L80.3792 28.4175ZM78.0962 26.2033C77.5538 25.2504 77.2651 24.1091 77.2651 22.746H75.2651C75.2651 24.3989 75.6178 25.8923 76.358 27.1927L78.0962 26.2033ZM77.2651 22.746C77.2651 21.4071 77.5594 20.2775 78.1164 19.3247L76.3898 18.3153C75.6295 19.6158 75.2651 21.1036 75.2651 22.746H77.2651ZM78.1197 19.319C78.6864 18.3347 79.4512 17.5942 80.4256 17.0775L79.4886 15.3105C78.175 16.0072 77.1371 17.0173 76.3865 18.321L78.1197 19.319ZM80.4256 17.0775C81.4116 16.5546 82.5308 16.284 83.8051 16.284V14.284C82.2367 14.284 80.7906 14.6201 79.4886 15.3105L80.4256 17.0775ZM83.8051 16.284C85.0794 16.284 86.1986 16.5546 87.1846 17.0775L88.1216 15.3105C86.8196 14.6201 85.3735 14.284 83.8051 14.284V16.284ZM87.1846 17.0775C88.159 17.5942 88.9238 18.3347 89.4905 19.319L91.2237 18.321C90.4731 17.0173 89.4352 16.0072 88.1216 15.3105L87.1846 17.0775ZM89.4938 19.3247C90.0508 20.2775 90.3451 21.4071 90.3451 22.746H92.3451C92.3451 21.1036 91.9807 19.6158 91.2204 18.3153L89.4938 19.3247ZM90.3451 22.746C90.3451 24.08 90.0444 25.2175 89.4702 26.1893L91.192 27.2067C91.9698 25.8905 92.3451 24.3933 92.3451 22.746H90.3451ZM89.4678 26.1933C88.9044 27.157 88.1335 27.8917 87.1381 28.4117L88.0641 30.1843C89.3914 29.491 90.4404 28.4924 91.1944 27.2027L89.4678 26.1933ZM87.1326 28.4145C86.1466 28.9374 85.0274 29.208 83.7531 29.208V31.208C85.3215 31.208 86.7676 30.8719 88.0696 30.1815L87.1326 28.4145ZM83.7531 27.36C84.8809 27.36 85.8621 26.9322 86.6381 26.1106L85.1841 24.7374C84.7814 25.1638 84.324 25.36 83.7531 25.36V27.36ZM86.6281 26.1211C87.4703 25.2548 87.8211 24.0781 87.8211 22.746H85.8211C85.8211 23.7365 85.5652 24.3452 85.1941 24.7269L86.6281 26.1211ZM87.8211 22.746C87.8211 21.4212 87.483 20.2485 86.6641 19.3814L85.2101 20.7546C85.5698 21.1355 85.8211 21.7482 85.8211 22.746H87.8211ZM86.6743 19.3923C85.9121 18.5609 84.9337 18.132 83.8051 18.132V20.132C84.3752 20.132 84.8181 20.3271 85.2 20.7437L86.6743 19.3923ZM83.8051 18.132C82.6657 18.132 81.6764 18.5561 80.91 19.3923L82.3843 20.7437C82.7618 20.3319 83.2112 20.132 83.8051 20.132V18.132ZM80.9195 19.382C80.1115 20.239 79.7891 21.418 79.7891 22.746H81.7891C81.7891 21.7166 82.0388 21.1103 82.3747 20.754L80.9195 19.382ZM79.7891 22.746C79.7891 24.0565 80.1023 25.2206 80.8737 26.0884L82.3685 24.7596C82.0306 24.3794 81.7891 23.7582 81.7891 22.746H79.7891ZM80.884 26.0997C81.6461 26.9311 82.6245 27.36 83.7531 27.36V25.36C83.183 25.36 82.7401 25.1649 82.3583 24.7483L80.884 26.0997ZM116.506 16.974L115.787 17.6696L115.793 17.6754L116.506 16.974ZM118.118 30V31H119.118V30H118.118ZM113.698 30H112.698V31H113.698V30ZM112.944 19.964L112.213 20.6463L112.225 20.6589L112.237 20.6711L112.944 19.964ZM108.862 19.964L108.143 19.269L108.142 19.2694L108.862 19.964ZM108.134 30V31H109.134V30H108.134ZM103.714 30H102.714V31H103.714V30ZM102.96 19.964L102.229 20.6463L102.241 20.6589L102.253 20.6711L102.96 19.964ZM98.8778 19.964L98.1588 19.269L98.1584 19.2694L98.8778 19.964ZM98.1498 30V31H99.1498V30H98.1498ZM93.7038 30H92.7038V31H93.7038V30ZM93.7038 15.492V14.492H92.7038V15.492H93.7038ZM98.1498 15.492H99.1498V14.492H98.1498V15.492ZM98.1498 17.312H97.1498V20.3351L98.9525 17.9083L98.1498 17.312ZM99.9178 15.882L100.348 16.7849L100.356 16.7807L100.365 16.7764L99.9178 15.882ZM105.3 16.038L104.817 16.9139L104.825 16.9179L105.3 16.038ZM107.328 18.04L106.455 18.5286L107.277 19.9958L108.174 18.5733L107.328 18.04ZM112.216 16.336C113.802 16.336 114.953 16.808 115.787 17.6696L117.224 16.2784C115.944 14.956 114.235 14.336 112.216 14.336V16.336ZM115.793 17.6754C116.638 18.5338 117.118 19.7716 117.118 21.524H119.118C119.118 19.3937 118.523 17.5982 117.219 16.2726L115.793 17.6754ZM117.118 21.524V30H119.118V21.524H117.118ZM118.118 29H113.698V31H118.118V29ZM114.698 30V22.122H112.698V30H114.698ZM114.698 22.122C114.698 21.0079 114.395 20.0008 113.651 19.2569L112.237 20.6711C112.498 20.9325 112.698 21.3641 112.698 22.122H114.698ZM113.675 19.2817C112.96 18.5159 111.994 18.184 110.916 18.184V20.184C111.57 20.184 111.957 20.3721 112.213 20.6463L113.675 19.2817ZM110.916 18.184C109.836 18.184 108.871 18.516 108.143 19.269L109.581 20.659C109.858 20.372 110.262 20.184 110.916 20.184V18.184ZM108.142 19.2694C107.423 20.0147 107.134 21.0171 107.134 22.122H109.134C109.134 21.3549 109.33 20.9187 109.581 20.6586L108.142 19.2694ZM107.134 22.122V30H109.134V22.122H107.134ZM108.134 29H103.714V31H108.134V29ZM104.714 30V22.122H102.714V30H104.714ZM104.714 22.122C104.714 21.0079 104.411 20.0008 103.667 19.2569L102.253 20.6711C102.514 20.9325 102.714 21.3641 102.714 22.122H104.714ZM103.691 19.2817C102.976 18.5159 102.01 18.184 100.932 18.184V20.184C101.586 20.184 101.973 20.3721 102.229 20.6463L103.691 19.2817ZM100.932 18.184C99.8519 18.184 98.8866 18.516 98.1588 19.269L99.5968 20.659C99.8743 20.372 100.278 20.184 100.932 20.184V18.184ZM98.1584 19.2694C97.4388 20.0147 97.1498 21.0171 97.1498 22.122H99.1498C99.1498 21.3549 99.3461 20.9187 99.5972 20.6586L98.1584 19.2694ZM97.1498 22.122V30H99.1498V22.122H97.1498ZM98.1498 29H93.7038V31H98.1498V29ZM94.7038 30V15.492H92.7038V30H94.7038ZM93.7038 16.492H98.1498V14.492H93.7038V16.492ZM97.1498 15.492V17.312H99.1498V15.492H97.1498ZM98.9525 17.9083C99.2993 17.4415 99.757 17.0662 100.348 16.7849L99.4879 14.9791C98.6226 15.3912 97.9016 15.9692 97.3471 16.7157L98.9525 17.9083ZM100.365 16.7764C100.937 16.4903 101.604 16.336 102.388 16.336V14.336C101.334 14.336 100.354 14.5457 99.4706 14.9876L100.365 16.7764ZM102.388 16.336C103.333 16.336 104.134 16.5371 104.817 16.9138L105.782 15.1622C104.767 14.6029 103.627 14.336 102.388 14.336V16.336ZM104.825 16.9179C105.523 17.295 106.062 17.8259 106.455 18.5286L108.2 17.5514C107.623 16.5207 106.81 15.717 105.775 15.1581L104.825 16.9179ZM108.174 18.5733C108.585 17.9213 109.148 17.3818 109.884 16.955L108.88 15.225C107.883 15.8035 107.076 16.564 106.482 17.5067L108.174 18.5733ZM109.884 16.955C110.594 16.5427 111.366 16.336 112.216 16.336V14.336C111.021 14.336 109.902 14.632 108.88 15.225L109.884 16.955ZM122.241 11.748V10.748H121.417L121.26 11.5575L122.241 11.748ZM126.791 11.748L127.714 12.1336L128.293 10.748H126.791V11.748ZM123.879 18.716V19.716H124.545L124.802 19.1016L123.879 18.716ZM120.889 18.716L119.908 18.5255L119.677 19.716H120.889V18.716ZM122.241 12.748H126.791V10.748H122.241V12.748ZM125.869 11.3624L122.957 18.3304L124.802 19.1016L127.714 12.1336L125.869 11.3624ZM123.879 17.716H120.889V19.716H123.879V17.716ZM121.871 18.9065L123.223 11.9385L121.26 11.5575L119.908 18.5255L121.871 18.9065ZM131.925 29.558L132.327 28.6422L132.327 28.6422L131.925 29.558ZM129.585 27.79L128.785 28.39L128.792 28.3988L129.585 27.79ZM128.623 25.242V24.242H127.546L127.626 25.3159L128.623 25.242ZM133.017 25.242L134.012 25.1391L133.919 24.242H133.017V25.242ZM133.719 26.464L134.319 25.664L134.319 25.664L133.719 26.464ZM136.527 26.62L137.104 27.437L137.113 27.4307L136.527 26.62ZM136.345 24.852L135.912 25.7535L135.927 25.7607L135.942 25.7673L136.345 24.852ZM134.239 24.176L134.482 23.2059L134.474 23.2039L134.466 23.2022L134.239 24.176ZM131.639 23.422L131.268 24.3505L131.278 24.3545L131.288 24.3583L131.639 23.422ZM129.845 22.148L129.084 22.7969L129.089 22.8026L129.094 22.8081L129.845 22.148ZM129.767 17.52L128.938 16.9605L128.935 16.9653L129.767 17.52ZM131.795 15.882L131.39 14.9674L131.384 14.9704L131.795 15.882ZM139.283 16.636L138.628 17.3917L138.634 17.397L139.283 16.636ZM141.103 20.224V21.224H142.213L142.098 20.1199L141.103 20.224ZM136.995 20.224L136.004 20.3606L136.123 21.224H136.995V20.224ZM136.319 19.028L135.69 19.8052L135.699 19.8124L135.708 19.8193L136.319 19.028ZM133.667 18.898L134.234 19.722L134.251 19.7104L134.267 19.698L133.667 18.898ZM133.901 20.64L133.468 21.5415L133.475 21.5448L133.482 21.548L133.901 20.64ZM135.981 21.264L136.231 20.2957L136.214 20.2915L136.198 20.2878L135.981 21.264ZM138.607 22.096L138.227 23.0212L138.238 23.0254L138.248 23.0293L138.607 22.096ZM140.375 23.396L139.605 24.034L139.615 24.046L139.625 24.0576L140.375 23.396ZM141.181 25.788H142.181V25.7794L142.181 25.7708L141.181 25.788ZM140.453 28.076L139.641 27.4928L139.638 27.4968L140.453 28.076ZM138.399 29.636L138.009 28.715L138.003 28.7178L138.399 29.636ZM135.305 29.208C134.154 29.208 133.168 29.0112 132.327 28.6422L131.523 30.4738C132.658 30.9714 133.925 31.208 135.305 31.208V29.208ZM132.327 28.6422C131.47 28.2664 130.833 27.7741 130.378 27.1812L128.792 28.3988C129.481 29.2965 130.404 29.9829 131.523 30.4738L132.327 28.6422ZM130.385 27.19C129.926 26.5777 129.675 25.9103 129.62 25.1681L127.626 25.3159C127.709 26.4457 128.1 27.477 128.785 28.39L130.385 27.19ZM128.623 26.242H133.017V24.242H128.623V26.242ZM132.022 25.3449C132.104 26.1338 132.487 26.7903 133.119 27.264L134.319 25.664C134.119 25.5137 134.034 25.3556 134.012 25.1391L132.022 25.3449ZM133.119 27.264C133.736 27.7266 134.467 27.932 135.253 27.932V25.932C134.825 25.932 134.534 25.8254 134.319 25.664L133.119 27.264ZM135.253 27.932C135.91 27.932 136.572 27.8125 137.104 27.437L135.95 25.803C135.893 25.8435 135.705 25.932 135.253 25.932V27.932ZM137.113 27.4307C137.652 27.0414 137.995 26.4687 137.995 25.762H135.995C135.995 25.7731 135.994 25.7753 135.995 25.7712C135.996 25.7668 135.998 25.7616 136 25.7576C136.005 25.7479 135.998 25.7683 135.942 25.8093L137.113 27.4307ZM137.995 25.762C137.995 25.3708 137.89 24.982 137.646 24.6413C137.409 24.3088 137.085 24.0852 136.748 23.9367L135.942 25.7673C135.99 25.7883 136.015 25.8049 136.024 25.8123C136.033 25.819 136.028 25.817 136.019 25.8037C136.014 25.7975 136.01 25.79 136.006 25.7817C136.002 25.7734 135.999 25.7658 135.997 25.7595C135.993 25.7465 135.995 25.7453 135.995 25.762H137.995ZM136.778 23.9505C136.248 23.6962 135.463 23.4513 134.482 23.2059L133.996 25.1461C134.956 25.386 135.575 25.5918 135.912 25.7535L136.778 23.9505ZM134.466 23.2022C133.452 22.9654 132.63 22.7255 131.99 22.4857L131.288 24.3583C132.035 24.6385 132.946 24.9012 134.012 25.1498L134.466 23.2022ZM132.01 22.4935C131.466 22.2757 130.997 21.9442 130.596 21.4879L129.094 22.8081C129.698 23.4958 130.425 24.0136 131.268 24.3505L132.01 22.4935ZM130.606 21.4991C130.296 21.136 130.091 20.5993 130.091 19.782H128.091C128.091 20.9407 128.389 21.9813 129.084 22.7969L130.606 21.4991ZM130.091 19.782C130.091 19.1424 130.261 18.5823 130.599 18.0747L128.935 16.9653C128.372 17.8097 128.091 18.7576 128.091 19.782H130.091ZM130.596 18.0795C130.944 17.5632 131.464 17.1283 132.206 16.7936L131.384 14.9704C130.358 15.433 129.526 16.0901 128.938 16.9605L130.596 18.0795ZM132.2 16.7965C132.946 16.4664 133.868 16.284 134.993 16.284V14.284C133.657 14.284 132.447 14.5003 131.391 14.9675L132.2 16.7965ZM134.993 16.284C136.651 16.284 137.822 16.6928 138.628 17.3917L139.938 15.8803C138.664 14.7765 136.975 14.284 134.993 14.284V16.284ZM138.634 17.397C139.48 18.118 139.977 19.0706 140.108 20.3281L142.098 20.1199C141.917 18.396 141.201 16.9566 139.932 15.875L138.634 17.397ZM141.103 19.224H136.995V21.224H141.103V19.224ZM137.986 20.0874C137.883 19.3405 137.531 18.7007 136.93 18.2367L135.708 19.8193C135.87 19.9447 135.969 20.1022 136.004 20.3606L137.986 20.0874ZM136.948 18.2508C136.359 17.7741 135.63 17.586 134.863 17.586V19.586C135.309 19.586 135.551 19.6926 135.69 19.8052L136.948 18.2508ZM134.863 17.586C134.229 17.586 133.585 17.7097 133.067 18.098L134.267 19.698C134.304 19.6703 134.457 19.586 134.863 19.586V17.586ZM133.1 18.074C132.542 18.4578 132.251 19.0399 132.251 19.704H134.251C134.251 19.6841 134.253 19.6765 134.253 19.6785C134.252 19.6809 134.25 19.6895 134.244 19.7011C134.241 19.7066 134.238 19.7118 134.234 19.7165C134.231 19.7211 134.228 19.7246 134.226 19.7269C134.222 19.7317 134.223 19.7295 134.234 19.722L133.1 18.074ZM132.251 19.704C132.251 20.0956 132.356 20.481 132.592 20.8204C132.822 21.1515 133.136 21.3822 133.468 21.5415L134.334 19.7385C134.232 19.6898 134.222 19.6605 134.235 19.6796C134.241 19.6888 134.247 19.7005 134.25 19.7112C134.253 19.7212 134.251 19.7205 134.251 19.704H132.251ZM133.482 21.548C134.032 21.802 134.81 22.0282 135.764 22.2402L136.198 20.2878C135.28 20.0838 134.671 19.894 134.32 19.732L133.482 21.548ZM135.731 22.2323C136.782 22.5034 137.609 22.7676 138.227 23.0212L138.987 21.1708C138.253 20.8698 137.33 20.5793 136.231 20.2957L135.731 22.2323ZM138.248 23.0293C138.75 23.2225 139.202 23.5475 139.605 24.034L141.145 22.758C140.543 22.0312 139.816 21.4895 138.966 21.1627L138.248 23.0293ZM139.625 24.0576C139.948 24.4236 140.167 24.9696 140.181 25.8052L142.181 25.7708C142.161 24.5957 141.842 23.5471 141.125 22.7344L139.625 24.0576ZM140.181 25.788C140.181 26.4327 140.001 26.9905 139.641 27.4928L141.265 28.6592C141.875 27.8095 142.181 26.842 142.181 25.788H140.181ZM139.638 27.4968C139.298 27.9751 138.776 28.3906 138.009 28.715L138.789 30.557C139.825 30.1187 140.672 29.4942 141.268 28.6552L139.638 27.4968ZM138.003 28.7178C137.269 29.0345 136.377 29.208 135.305 29.208V31.208C136.59 31.208 137.761 31.0002 138.795 30.5542L138.003 28.7178ZM165.739 30V31H166.739V30H165.739ZM161.293 30L160.458 30.5511L160.755 31H161.293V30ZM153.857 18.742L154.691 18.1909L152.857 15.4136V18.742H153.857ZM153.857 30V31H154.857V30H153.857ZM149.411 30H148.411V31H149.411V30ZM149.411 11.748V10.748H148.411V11.748H149.411ZM153.857 11.748L154.692 11.1986L154.396 10.748H153.857V11.748ZM161.293 23.058L160.457 23.6074L162.293 26.3992V23.058H161.293ZM161.293 11.748V10.748H160.293V11.748H161.293ZM165.739 11.748H166.739V10.748H165.739V11.748ZM165.739 29H161.293V31H165.739V29ZM162.127 29.4489L154.691 18.1909L153.022 19.2931L160.458 30.5511L162.127 29.4489ZM152.857 18.742V30H154.857V18.742H152.857ZM153.857 29H149.411V31H153.857V29ZM150.411 30V11.748H148.411V30H150.411ZM149.411 12.748H153.857V10.748H149.411V12.748ZM153.021 12.2974L160.457 23.6074L162.128 22.5086L154.692 11.1986L153.021 12.2974ZM162.293 23.058V11.748H160.293V23.058H162.293ZM161.293 12.748H165.739V10.748H161.293V12.748ZM164.739 11.748V30H166.739V11.748H164.739ZM182.56 23.812V24.812H183.451L183.553 23.9266L182.56 23.812ZM172.498 23.812V22.812H171.418L171.501 23.8887L172.498 23.812ZM173.356 25.892L172.661 26.6114L172.674 26.6236L172.687 26.6353L173.356 25.892ZM177.568 25.19V24.19H176.929L176.66 24.7699L177.568 25.19ZM182.3 25.19L183.269 25.4367L183.586 24.19H182.3V25.19ZM180.974 27.764L180.208 27.1203L180.2 27.1308L180.974 27.764ZM178.608 29.558L179.021 30.4684L178.608 29.558ZM171.614 29.298L171.134 30.1754L171.134 30.1754L171.614 29.298ZM169.014 26.698L169.888 26.2135L169.888 26.2135L169.014 26.698ZM168.988 18.794L168.113 18.3095L168.107 18.3199L168.988 18.794ZM171.588 16.194L172.067 17.0714L172.067 17.0714L171.588 16.194ZM179.154 16.168L178.679 17.048L178.679 17.048L179.154 16.168ZM181.702 18.69L180.827 19.1757L180.833 19.1861L181.702 18.69ZM178.088 21.342V22.342H179.088V21.342H178.088ZM177.308 19.522L177.963 18.7663L177.963 18.7663L177.308 19.522ZM173.46 19.496L172.819 18.7278L172.813 18.7331L172.807 18.7386L173.46 19.496ZM172.524 21.342L171.535 21.1916L171.36 22.342H172.524V21.342ZM181.638 22.512C181.638 22.8864 181.614 23.2814 181.566 23.6974L183.553 23.9266C183.609 23.4413 183.638 22.9696 183.638 22.512H181.638ZM182.56 22.812H172.498V24.812H182.56V22.812ZM171.501 23.8887C171.583 24.9605 171.936 25.911 172.661 26.6114L174.05 25.1726C173.77 24.9023 173.551 24.4661 173.495 23.7353L171.501 23.8887ZM172.687 26.6353C173.403 27.28 174.279 27.594 175.254 27.594V25.594C174.738 25.594 174.348 25.44 174.025 25.1487L172.687 26.6353ZM175.254 27.594C175.949 27.594 176.608 27.4464 177.183 27.0979C177.762 26.7466 178.187 26.2318 178.475 25.6101L176.66 24.7699C176.515 25.0842 176.338 25.2714 176.145 25.3881C175.948 25.5076 175.667 25.594 175.254 25.594V27.594ZM177.568 26.19H182.3V24.19H177.568V26.19ZM181.331 24.9433C181.125 25.7487 180.754 26.4715 180.208 27.1204L181.739 28.4076C182.476 27.5312 182.988 26.5379 183.269 25.4367L181.331 24.9433ZM180.2 27.1308C179.679 27.7672 179.016 28.2737 178.194 28.6476L179.021 30.4684C180.106 29.9756 181.02 29.2861 181.748 28.3972L180.2 27.1308ZM178.194 28.6476C177.386 29.0149 176.463 29.208 175.41 29.208V31.208C176.713 31.208 177.923 30.9678 179.021 30.4684L178.194 28.6476ZM175.41 29.208C174.135 29.208 173.038 28.9373 172.093 28.4206L171.134 30.1754C172.408 30.8721 173.842 31.208 175.41 31.208V29.208ZM172.093 28.4206C171.154 27.9066 170.422 27.1777 169.888 26.2135L168.139 27.1825C168.853 28.4716 169.855 29.476 171.134 30.1754L172.093 28.4206ZM169.888 26.2135C169.36 25.2586 169.078 24.1136 169.078 22.746H167.078C167.078 24.3944 167.42 25.884 168.139 27.1825L169.888 26.2135ZM169.078 22.746C169.078 21.3739 169.353 20.2251 169.868 19.2681L168.107 18.3199C167.409 19.6163 167.078 21.1021 167.078 22.746H169.078ZM169.862 19.2785C170.396 18.3143 171.128 17.5854 172.067 17.0714L171.108 15.3166C169.829 16.016 168.827 17.0204 168.113 18.3095L169.862 19.2785ZM172.067 17.0714C173.01 16.5557 174.115 16.284 175.41 16.284V14.284C173.827 14.284 172.384 14.619 171.108 15.3166L172.067 17.0714ZM175.41 16.284C176.67 16.284 177.751 16.5473 178.679 17.048L179.629 15.288C178.372 14.61 176.957 14.284 175.41 14.284V16.284ZM178.679 17.048C179.601 17.5461 180.313 18.2493 180.827 19.1756L182.576 18.2044C181.877 16.9467 180.89 15.9686 179.629 15.288L178.679 17.048ZM180.833 19.1861C181.358 20.1047 181.638 21.2023 181.638 22.512H183.638C183.638 20.9097 183.293 19.4593 182.57 18.1939L180.833 19.1861ZM179.088 21.342C179.088 20.3246 178.727 19.4289 177.963 18.7663L176.653 20.2777C176.928 20.5165 177.088 20.8341 177.088 21.342H179.088ZM177.963 18.7663C177.236 18.137 176.344 17.846 175.358 17.846V19.846C175.931 19.846 176.339 20.0057 176.653 20.2777L177.963 18.7663ZM175.358 17.846C174.404 17.846 173.538 18.1292 172.819 18.7278L174.1 20.2642C174.422 19.9961 174.821 19.846 175.358 19.846V17.846ZM172.807 18.7386C172.087 19.3594 171.684 20.2112 171.535 21.1916L173.512 21.4924C173.606 20.8781 173.827 20.4992 174.113 20.2534L172.807 18.7386ZM172.524 22.342H178.088V20.342H172.524V22.342ZM205.809 15.492L206.774 15.7532L207.116 14.492H205.809V15.492ZM201.883 30V31H202.648L202.848 30.2612L201.883 30ZM196.969 30L195.997 30.2362L196.183 31H196.969V30ZM194.681 20.588L195.653 20.3518L193.711 20.3442L194.681 20.588ZM192.315 30V31H193.095L193.285 30.2438L192.315 30ZM187.427 30L186.462 30.2628L186.663 31H187.427V30ZM183.475 15.492V14.492H182.166L182.51 15.7548L183.475 15.492ZM187.921 15.492L188.902 15.2978L188.743 14.492H187.921V15.492ZM189.975 25.866L188.994 26.0602L190.948 26.0953L189.975 25.866ZM192.419 15.492V14.492H191.627L191.446 15.2627L192.419 15.492ZM197.125 15.492L198.098 15.2593L197.914 14.492H197.125V15.492ZM199.595 25.814L198.623 26.0467L200.576 26.0068L199.595 25.814ZM201.623 15.492V14.492H200.8L200.642 15.2992L201.623 15.492ZM204.844 15.2308L200.918 29.7388L202.848 30.2612L206.774 15.7532L204.844 15.2308ZM201.883 29H196.969V31H201.883V29ZM197.941 29.7638L195.653 20.3518L193.709 20.8242L195.997 30.2362L197.941 29.7638ZM193.711 20.3442L191.345 29.7562L193.285 30.2438L195.651 20.8318L193.711 20.3442ZM192.315 29H187.427V31H192.315V29ZM188.392 29.7372L184.44 15.2292L182.51 15.7548L186.462 30.2628L188.392 29.7372ZM183.475 16.492H187.921V14.492H183.475V16.492ZM186.94 15.6862L188.994 26.0602L190.956 25.6718L188.902 15.2978L186.94 15.6862ZM190.948 26.0953L193.392 15.7213L191.446 15.2627L189.002 25.6367L190.948 26.0953ZM192.419 16.492H197.125V14.492H192.419V16.492ZM196.153 15.7247L198.623 26.0467L200.568 25.5813L198.098 15.2593L196.153 15.7247ZM200.576 26.0068L202.604 15.6848L200.642 15.2992L198.614 25.6212L200.576 26.0068ZM201.623 16.492H205.809V14.492H201.623V16.492ZM210.027 29.558L210.428 28.6422L210.428 28.6422L210.027 29.558ZM207.687 27.79L206.887 28.39L206.893 28.3988L207.687 27.79ZM206.725 25.242V24.242H205.648L205.727 25.3159L206.725 25.242ZM211.119 25.242L212.113 25.1391L212.02 24.242H211.119V25.242ZM211.821 26.464L212.421 25.664L212.421 25.664L211.821 26.464ZM214.629 26.62L215.205 27.437L215.214 27.4307L214.629 26.62ZM214.447 24.852L214.014 25.7535L214.029 25.7607L214.044 25.7673L214.447 24.852ZM212.341 24.176L212.583 23.2059L212.575 23.2039L212.568 23.2022L212.341 24.176ZM209.741 23.422L209.369 24.3505L209.379 24.3545L209.389 24.3583L209.741 23.422ZM207.947 22.148L207.186 22.7969L207.191 22.8026L207.195 22.8081L207.947 22.148ZM207.869 17.52L207.04 16.9605L207.037 16.9653L207.869 17.52ZM209.897 15.882L209.492 14.9674L209.485 14.9704L209.897 15.882ZM217.385 16.636L216.73 17.3917L216.736 17.397L217.385 16.636ZM219.205 20.224V21.224H220.315L220.199 20.1199L219.205 20.224ZM215.097 20.224L214.106 20.3606L214.225 21.224H215.097V20.224ZM214.421 19.028L213.791 19.8052L213.8 19.8124L213.809 19.8193L214.421 19.028ZM211.769 18.898L212.335 19.722L212.352 19.7104L212.369 19.698L211.769 18.898ZM212.003 20.64L211.57 21.5415L211.577 21.5448L211.584 21.548L212.003 20.64ZM214.083 21.264L214.332 20.2957L214.316 20.2915L214.3 20.2878L214.083 21.264ZM216.709 22.096L216.329 23.0212L216.339 23.0254L216.35 23.0293L216.709 22.096ZM218.477 23.396L217.707 24.034L217.716 24.046L217.727 24.0576L218.477 23.396ZM219.283 25.788H220.283V25.7794L220.282 25.7708L219.283 25.788ZM218.555 28.076L217.742 27.4928L217.739 27.4968L218.555 28.076ZM216.501 29.636L216.111 28.715L216.104 28.7178L216.501 29.636ZM213.407 29.208C212.256 29.208 211.27 29.0112 210.428 28.6422L209.625 30.4738C210.76 30.9714 212.027 31.208 213.407 31.208V29.208ZM210.428 28.6422C209.571 28.2664 208.935 27.7741 208.48 27.1812L206.893 28.3988C207.582 29.2965 208.506 29.9829 209.625 30.4738L210.428 28.6422ZM208.487 27.19C208.027 26.5777 207.777 25.9103 207.722 25.1681L205.727 25.3159C205.811 26.4457 206.202 27.477 206.887 28.39L208.487 27.19ZM206.725 26.242H211.119V24.242H206.725V26.242ZM210.124 25.3449C210.205 26.1338 210.589 26.7903 211.221 27.264L212.421 25.664C212.22 25.5137 212.136 25.3556 212.113 25.1391L210.124 25.3449ZM211.221 27.264C211.837 27.7266 212.569 27.932 213.355 27.932V25.932C212.927 25.932 212.636 25.8254 212.421 25.664L211.221 27.264ZM213.355 27.932C214.012 27.932 214.673 27.8125 215.205 27.437L214.052 25.803C213.995 25.8435 213.807 25.932 213.355 25.932V27.932ZM215.214 27.4307C215.753 27.0414 216.097 26.4687 216.097 25.762H214.097C214.097 25.7731 214.095 25.7753 214.096 25.7712C214.097 25.7668 214.1 25.7616 214.102 25.7576C214.107 25.7479 214.1 25.7683 214.043 25.8093L215.214 27.4307ZM216.097 25.762C216.097 25.3708 215.991 24.982 215.748 24.6413C215.51 24.3088 215.187 24.0852 214.849 23.9367L214.044 25.7673C214.091 25.7883 214.116 25.8049 214.126 25.8123C214.135 25.819 214.13 25.817 214.12 25.8037C214.116 25.7975 214.111 25.79 214.107 25.7817C214.103 25.7734 214.1 25.7658 214.098 25.7595C214.095 25.7465 214.097 25.7453 214.097 25.762H216.097ZM214.879 23.9505C214.35 23.6962 213.565 23.4513 212.583 23.2059L212.098 25.1461C213.058 25.386 213.677 25.5918 214.014 25.7535L214.879 23.9505ZM212.568 23.2022C211.553 22.9654 210.731 22.7255 210.092 22.4857L209.389 24.3583C210.137 24.6385 211.048 24.9012 212.113 25.1498L212.568 23.2022ZM210.112 22.4935C209.568 22.2757 209.099 21.9442 208.698 21.4879L207.195 22.8081C207.8 23.4958 208.527 24.0136 209.369 24.3505L210.112 22.4935ZM208.707 21.4991C208.398 21.136 208.193 20.5993 208.193 19.782H206.193C206.193 20.9407 206.49 21.9813 207.186 22.7969L208.707 21.4991ZM208.193 19.782C208.193 19.1424 208.362 18.5823 208.701 18.0747L207.037 16.9653C206.474 17.8097 206.193 18.7576 206.193 19.782H208.193ZM208.697 18.0795C209.046 17.5632 209.565 17.1283 210.308 16.7936L209.485 14.9704C208.46 15.433 207.627 16.0901 207.04 16.9605L208.697 18.0795ZM210.301 16.7965C211.048 16.4664 211.97 16.284 213.095 16.284V14.284C211.758 14.284 210.548 14.5003 209.492 14.9675L210.301 16.7965ZM213.095 16.284C214.753 16.284 215.923 16.6928 216.73 17.3917L218.04 15.8803C216.766 14.7765 215.076 14.284 213.095 14.284V16.284ZM216.736 17.397C217.582 18.118 218.078 19.0706 218.21 20.3281L220.199 20.1199C220.019 18.396 219.302 16.9566 218.033 15.875L216.736 17.397ZM219.205 19.224H215.097V21.224H219.205V19.224ZM216.087 20.0874C215.984 19.3405 215.632 18.7007 215.032 18.2367L213.809 19.8193C213.971 19.9447 214.07 20.1022 214.106 20.3606L216.087 20.0874ZM215.05 18.2508C214.461 17.7741 213.732 17.586 212.965 17.586V19.586C213.411 19.586 213.652 19.6926 213.791 19.8052L215.05 18.2508ZM212.965 17.586C212.331 17.586 211.686 17.7097 211.169 18.098L212.369 19.698C212.405 19.6703 212.558 19.586 212.965 19.586V17.586ZM211.202 18.074C210.644 18.4578 210.353 19.0399 210.353 19.704H212.353C212.353 19.6841 212.355 19.6765 212.354 19.6785C212.354 19.6809 212.351 19.6895 212.345 19.7011C212.342 19.7066 212.339 19.7118 212.336 19.7165C212.333 19.7211 212.33 19.7246 212.328 19.7269C212.323 19.7317 212.324 19.7295 212.335 19.722L211.202 18.074ZM210.353 19.704C210.353 20.0956 210.458 20.481 210.694 20.8204C210.924 21.1515 211.238 21.3822 211.57 21.5415L212.435 19.7385C212.334 19.6898 212.323 19.6605 212.336 19.6796C212.343 19.6888 212.348 19.7005 212.352 19.7112C212.355 19.7212 212.353 19.7205 212.353 19.704H210.353ZM211.584 21.548C212.134 21.802 212.912 22.0282 213.866 22.2402L214.3 20.2878C213.381 20.0838 212.773 19.894 212.422 19.732L211.584 21.548ZM213.833 22.2323C214.883 22.5034 215.711 22.7676 216.329 23.0212L217.088 21.1708C216.354 20.8698 215.431 20.5793 214.332 20.2957L213.833 22.2323ZM216.35 23.0293C216.852 23.2225 217.303 23.5475 217.707 24.034L219.247 22.758C218.644 22.0312 217.917 21.4895 217.068 21.1627L216.35 23.0293ZM217.727 24.0576C218.05 24.4236 218.268 24.9696 218.283 25.8052L220.282 25.7708C220.262 24.5957 219.943 23.5471 219.226 22.7344L217.727 24.0576ZM218.283 25.788C218.283 26.4327 218.103 26.9905 217.742 27.4928L219.367 28.6592C219.977 27.8095 220.283 26.842 220.283 25.788H218.283ZM217.739 27.4968C217.4 27.9751 216.878 28.3906 216.111 28.715L216.89 30.557C217.926 30.1187 218.774 29.4942 219.37 28.6552L217.739 27.4968ZM216.104 28.7178C215.37 29.0345 214.479 29.208 213.407 29.208V31.208C214.692 31.208 215.863 31.0002 216.897 30.5542L216.104 28.7178Z" fill="#004A7C"/>
<path d="M1.858 19.848C1.858 18.0453 2.248 16.442 3.028 15.038C3.808 13.6167 4.89133 12.516 6.278 11.736C7.682 10.9387 9.268 10.54 11.036 10.54C13.2027 10.54 15.0573 11.112 16.6 12.256C18.1427 13.4 19.174 14.96 19.694 16.936H14.806C14.442 16.1733 13.922 15.5927 13.246 15.194C12.5873 14.7953 11.8333 14.596 10.984 14.596C9.61467 14.596 8.50533 15.0727 7.656 16.026C6.80667 16.9793 6.382 18.2533 6.382 19.848C6.382 21.4427 6.80667 22.7167 7.656 23.67C8.50533 24.6233 9.61467 25.1 10.984 25.1C11.8333 25.1 12.5873 24.9007 13.246 24.502C13.922 24.1033 14.442 23.5227 14.806 22.76H19.694C19.174 24.736 18.1427 26.296 16.6 27.44C15.0573 28.5667 13.2027 29.13 11.036 29.13C9.268 29.13 7.682 28.74 6.278 27.96C4.89133 27.1627 3.808 26.062 3.028 24.658C2.248 23.254 1.858 21.6507 1.858 19.848ZM21.5327 21.72C21.5327 20.2293 21.81 18.9207 22.3647 17.794C22.9367 16.6673 23.708 15.8007 24.6787 15.194C25.6494 14.5873 26.7327 14.284 27.9287 14.284C28.9514 14.284 29.844 14.492 30.6067 14.908C31.3867 15.324 31.9847 15.87 32.4007 16.546V14.492H36.8467V29H32.4007V26.946C31.9674 27.622 31.3607 28.168 30.5807 28.584C29.818 29 28.9254 29.208 27.9027 29.208C26.724 29.208 25.6494 28.9047 24.6787 28.298C23.708 27.674 22.9367 26.7987 22.3647 25.672C21.81 24.528 21.5327 23.2107 21.5327 21.72ZM32.4007 21.746C32.4007 20.6367 32.0887 19.7613 31.4647 19.12C30.858 18.4787 30.1127 18.158 29.2287 18.158C28.3447 18.158 27.5907 18.4787 26.9667 19.12C26.36 19.744 26.0567 20.6107 26.0567 21.72C26.0567 22.8293 26.36 23.7133 26.9667 24.372C27.5907 25.0133 28.3447 25.334 29.2287 25.334C30.1127 25.334 30.858 25.0133 31.4647 24.372C32.0887 23.7307 32.4007 22.8553 32.4007 21.746ZM58.5752 14.336C60.3778 14.336 61.8078 14.882 62.8652 15.974C63.9398 17.066 64.4772 18.5827 64.4772 20.524V29H60.0572V21.122C60.0572 20.186 59.8058 19.4667 59.3032 18.964C58.8178 18.444 58.1418 18.184 57.2752 18.184C56.4085 18.184 55.7238 18.444 55.2212 18.964C54.7358 19.4667 54.4932 20.186 54.4932 21.122V29H50.0732V21.122C50.0732 20.186 49.8218 19.4667 49.3192 18.964C48.8338 18.444 48.1578 18.184 47.2912 18.184C46.4245 18.184 45.7398 18.444 45.2372 18.964C44.7518 19.4667 44.5092 20.186 44.5092 21.122V29H40.0632V14.492H44.5092V16.312C44.9598 15.7053 45.5492 15.2287 46.2772 14.882C47.0052 14.518 47.8285 14.336 48.7472 14.336C49.8392 14.336 50.8098 14.57 51.6592 15.038C52.5258 15.506 53.2018 16.1733 53.6872 17.04C54.1898 16.2427 54.8745 15.5927 55.7412 15.09C56.6078 14.5873 57.5525 14.336 58.5752 14.336ZM75.6726 25.23V29H73.4106C71.7986 29 70.5419 28.61 69.6406 27.83C68.7393 27.0327 68.2886 25.7413 68.2886 23.956V18.184H66.5206V14.492H68.2886V10.956H72.7346V14.492H75.6466V18.184H72.7346V24.008C72.7346 24.4413 72.8386 24.7533 73.0466 24.944C73.2546 25.1347 73.6013 25.23 74.0866 25.23H75.6726ZM84.7531 29.208C83.3318 29.208 82.0491 28.9047 80.9051 28.298C79.7784 27.6913 78.8858 26.8247 78.2271 25.698C77.5858 24.5713 77.2651 23.254 77.2651 21.746C77.2651 20.2553 77.5944 18.9467 78.2531 17.82C78.9118 16.676 79.8131 15.8007 80.9571 15.194C82.1011 14.5873 83.3838 14.284 84.8051 14.284C86.2264 14.284 87.5091 14.5873 88.6531 15.194C89.7971 15.8007 90.6984 16.676 91.3571 17.82C92.0158 18.9467 92.3451 20.2553 92.3451 21.746C92.3451 23.2367 92.0071 24.554 91.3311 25.698C90.6724 26.8247 89.7624 27.6913 88.6011 28.298C87.4571 28.9047 86.1744 29.208 84.7531 29.208ZM84.7531 25.36C85.6024 25.36 86.3218 25.048 86.9111 24.424C87.5178 23.8 87.8211 22.9073 87.8211 21.746C87.8211 20.5847 87.5264 19.692 86.9371 19.068C86.3651 18.444 85.6544 18.132 84.8051 18.132C83.9384 18.132 83.2191 18.444 82.6471 19.068C82.0751 19.6747 81.7891 20.5673 81.7891 21.746C81.7891 22.9073 82.0664 23.8 82.6211 24.424C83.1931 25.048 83.9038 25.36 84.7531 25.36ZM113.216 14.336C115.018 14.336 116.448 14.882 117.506 15.974C118.58 17.066 119.118 18.5827 119.118 20.524V29H114.698V21.122C114.698 20.186 114.446 19.4667 113.944 18.964C113.458 18.444 112.782 18.184 111.916 18.184C111.049 18.184 110.364 18.444 109.862 18.964C109.376 19.4667 109.134 20.186 109.134 21.122V29H104.714V21.122C104.714 20.186 104.462 19.4667 103.96 18.964C103.474 18.444 102.798 18.184 101.932 18.184C101.065 18.184 100.38 18.444 99.8778 18.964C99.3925 19.4667 99.1498 20.186 99.1498 21.122V29H94.7038V14.492H99.1498V16.312C99.6005 15.7053 100.19 15.2287 100.918 14.882C101.646 14.518 102.469 14.336 103.388 14.336C104.48 14.336 105.45 14.57 106.3 15.038C107.166 15.506 107.842 16.1733 108.328 17.04C108.83 16.2427 109.515 15.5927 110.382 15.09C111.248 14.5873 112.193 14.336 113.216 14.336ZM123.241 10.748H127.791L124.879 17.716H121.889L123.241 10.748ZM136.305 29.208C135.04 29.208 133.913 28.9913 132.925 28.558C131.937 28.1247 131.157 27.5353 130.585 26.79C130.013 26.0273 129.692 25.178 129.623 24.242H134.017C134.069 24.7447 134.303 25.152 134.719 25.464C135.135 25.776 135.646 25.932 136.253 25.932C136.808 25.932 137.232 25.828 137.527 25.62C137.839 25.3947 137.995 25.1087 137.995 24.762C137.995 24.346 137.778 24.0427 137.345 23.852C136.912 23.644 136.21 23.4187 135.239 23.176C134.199 22.9333 133.332 22.682 132.639 22.422C131.946 22.1447 131.348 21.72 130.845 21.148C130.342 20.5587 130.091 19.77 130.091 18.782C130.091 17.95 130.316 17.196 130.767 16.52C131.235 15.8267 131.911 15.2807 132.795 14.882C133.696 14.4833 134.762 14.284 135.993 14.284C137.813 14.284 139.243 14.7347 140.283 15.636C141.34 16.5373 141.947 17.7333 142.103 19.224H137.995C137.926 18.7213 137.7 18.3227 137.319 18.028C136.955 17.7333 136.47 17.586 135.863 17.586C135.343 17.586 134.944 17.69 134.667 17.898C134.39 18.0887 134.251 18.3573 134.251 18.704C134.251 19.12 134.468 19.432 134.901 19.64C135.352 19.848 136.045 20.056 136.981 20.264C138.056 20.5413 138.931 20.8187 139.607 21.096C140.283 21.356 140.872 21.7893 141.375 22.396C141.895 22.9853 142.164 23.7827 142.181 24.788C142.181 25.6373 141.938 26.4 141.453 27.076C140.985 27.7347 140.3 28.2547 139.399 28.636C138.515 29.0173 137.484 29.208 136.305 29.208ZM166.739 29H162.293L154.857 17.742V29H150.411V10.748H154.857L162.293 22.058V10.748H166.739V29ZM183.638 21.512C183.638 21.928 183.612 22.3613 183.56 22.812H173.498C173.567 23.7133 173.853 24.4067 174.356 24.892C174.876 25.36 175.508 25.594 176.254 25.594C177.363 25.594 178.134 25.126 178.568 24.19H183.3C183.057 25.1433 182.615 26.0013 181.974 26.764C181.35 27.5267 180.561 28.1247 179.608 28.558C178.654 28.9913 177.588 29.208 176.41 29.208C174.988 29.208 173.723 28.9047 172.614 28.298C171.504 27.6913 170.638 26.8247 170.014 25.698C169.39 24.5713 169.078 23.254 169.078 21.746C169.078 20.238 169.381 18.9207 169.988 17.794C170.612 16.6673 171.478 15.8007 172.588 15.194C173.697 14.5873 174.971 14.284 176.41 14.284C177.814 14.284 179.062 14.5787 180.154 15.168C181.246 15.7573 182.095 16.598 182.702 17.69C183.326 18.782 183.638 20.056 183.638 21.512ZM179.088 20.342C179.088 19.5793 178.828 18.9727 178.308 18.522C177.788 18.0713 177.138 17.846 176.358 17.846C175.612 17.846 174.98 18.0627 174.46 18.496C173.957 18.9293 173.645 19.5447 173.524 20.342H179.088ZM206.809 14.492L202.883 29H197.969L195.681 19.588L193.315 29H188.427L184.475 14.492H188.921L190.975 24.866L193.419 14.492H198.125L200.595 24.814L202.623 14.492H206.809ZM214.407 29.208C213.141 29.208 212.015 28.9913 211.027 28.558C210.039 28.1247 209.259 27.5353 208.687 26.79C208.115 26.0273 207.794 25.178 207.725 24.242H212.119C212.171 24.7447 212.405 25.152 212.821 25.464C213.237 25.776 213.748 25.932 214.355 25.932C214.909 25.932 215.334 25.828 215.629 25.62C215.941 25.3947 216.097 25.1087 216.097 24.762C216.097 24.346 215.88 24.0427 215.447 23.852C215.013 23.644 214.311 23.4187 213.341 23.176C212.301 22.9333 211.434 22.682 210.741 22.422C210.047 22.1447 209.449 21.72 208.947 21.148C208.444 20.5587 208.193 19.77 208.193 18.782C208.193 17.95 208.418 17.196 208.869 16.52C209.337 15.8267 210.013 15.2807 210.897 14.882C211.798 14.4833 212.864 14.284 214.095 14.284C215.915 14.284 217.345 14.7347 218.385 15.636C219.442 16.5373 220.049 17.7333 220.205 19.224H216.097C216.027 18.7213 215.802 18.3227 215.421 18.028C215.057 17.7333 214.571 17.586 213.965 17.586C213.445 17.586 213.046 17.69 212.769 17.898C212.491 18.0887 212.353 18.3573 212.353 18.704C212.353 19.12 212.569 19.432 213.003 19.64C213.453 19.848 214.147 20.056 215.083 20.264C216.157 20.5413 217.033 20.8187 217.709 21.096C218.385 21.356 218.974 21.7893 219.477 22.396C219.997 22.9853 220.265 23.7827 220.283 24.788C220.283 25.6373 220.04 26.4 219.555 27.076C219.087 27.7347 218.402 28.2547 217.501 28.636C216.617 29.0173 215.585 29.208 214.407 29.208Z" fill="#004A7C"/>
</svg>
