<svg width="450" height="224" viewBox="0 0 450 224" fill="none" xmlns="http://www.w3.org/2000/svg">
<path d="M104.602 20.5011C104.44 19.2529 104.113 18.0304 103.629 16.8644C103.567 16.6439 103.459 16.4384 103.311 16.261C103.164 16.0835 102.98 15.938 102.772 15.8337C102.493 15.763 102.201 15.7598 101.921 15.8244L97.5544 16.4768C97.1889 16.4931 96.839 16.6258 96.5581 16.8547C95.9894 17.4387 96.5494 18.379 96.532 19.1846C96.5124 20.0906 95.688 20.8259 94.794 21.0692C93.8814 21.2492 92.94 21.2378 92.0323 21.0358L85.9264 20.1094C87.7247 19.5489 89.3253 18.506 90.5456 17.0999C91.3491 16.1705 91.7766 14.4354 90.6153 13.9953C90.2703 13.9029 89.9105 13.8747 89.5548 13.9122C86.7884 13.9332 84.6115 11.6781 82.0217 10.7283C80.3641 10.1597 78.5649 10.1174 76.8812 10.6075C75.1976 11.0975 73.7158 12.0948 72.6477 13.4566L75.9003 13.6098C76.2063 13.5933 76.5098 13.6723 76.7667 13.8354C77.4796 14.4072 76.5933 15.5055 76.6938 16.4009C76.8242 17.5642 78.4063 17.8126 79.5989 17.9302C80.7915 18.0479 82.3044 18.9939 81.7307 20.0215C75.7367 22.0372 69.6371 16.0811 63.3421 16.8143C61.7489 16.9998 60.2444 17.6109 58.6889 17.9952C49.1867 20.3425 39.3631 14.0796 29.6561 15.406C27.4981 15.7652 25.3772 16.3113 23.3184 17.0379C21.9973 17.4614 20.6193 17.9191 19.6593 18.9013C18.6994 19.8836 18.3341 21.5633 19.2434 22.5904C16.7369 22.7919 14.2137 22.5577 11.791 21.8988C12.4461 22.2543 12.9911 22.7755 13.3688 23.4077C13.7465 24.0398 13.943 24.7595 13.9375 25.4913C10.0239 26.1144 6.2139 27.2487 2.61003 28.8635C3.28265 29.9556 4.06827 30.9773 4.95455 31.9128L0 35.0205C1.67388 35.4323 2.53932 37.6607 1.5659 39.0525C3.30152 38.2987 4.37718 36.3485 6.23314 35.9531C7.44904 35.6941 8.68625 36.1797 9.83972 36.6359C10.9932 37.0921 12.261 37.5345 13.455 37.1921C14.6491 36.8497 15.5299 35.338 14.7711 34.3749C19.8749 32.921 25.1496 32.1164 30.4645 31.9811C30.8745 31.9308 31.2903 32.0079 31.653 32.2013C32.3449 32.6699 32.1628 33.6822 32.1256 34.5035C32.0883 35.3248 32.7439 36.4043 33.4958 36.034C32.6112 36.7829 33.3674 38.1928 34.2161 38.9803C35.0647 39.7678 36.0876 40.8544 35.568 41.8788C35.4324 42.1462 35.2024 42.3601 35.0719 42.6299C34.6868 43.4262 35.2983 44.3546 36.0195 44.8834C36.7408 45.4122 37.6242 45.7818 38.1252 46.5141C38.6262 47.2464 38.3987 48.5282 37.5028 48.6305L34.9564 45.4739C34.0864 46.3547 33.49 47.4582 33.2363 48.6565C35.9365 50.8116 36.3427 55.1983 34.0821 57.7913C32.9268 59.1163 31.284 59.9215 29.8502 60.9551C28.4163 61.9886 27.0896 63.4604 27.0932 65.2005C27.0994 68.2068 26.8478 70.9998 28.0017 73.7871C30.1293 78.9265 32.5858 83.9302 35.3566 88.7687C36.0842 90.0392 37.0246 91.4318 38.4986 91.6506C36.6357 87.2229 34.9588 82.7263 33.4678 78.1609C34.4389 78.1646 35.5612 78.2399 36.1305 79.008C36.6019 79.6441 36.5006 80.5089 36.6471 81.2809C36.8334 82.0289 37.1441 82.742 37.5668 83.3918L46.4624 98.8626C47.1998 100.145 48.0457 101.522 49.4551 102.041C50.3562 102.373 51.3987 102.311 52.2281 102.789C52.8782 103.163 53.316 103.829 53.9787 104.182C55.8527 105.18 58.4585 103.265 60.2097 104.457C60.7105 104.798 61.029 105.339 61.4904 105.729C63.1078 107.097 65.761 106.182 67.6281 107.202C68.8314 107.859 69.4551 109.174 70.0969 110.366C71.7046 113.351 74.306 116.275 77.7514 116.513C78.8337 116.587 79.9393 116.387 80.9972 116.622C82.0551 116.857 83.0965 117.758 82.9267 118.805C82.6356 120.598 83.5433 122.562 83.2995 124.363C82.8555 127.642 78.091 129.083 77.6817 132.367C77.5921 133.086 77.7324 133.828 77.557 134.532C77.3421 135.395 76.6786 136.097 76.4429 136.954C75.9961 138.579 77.1883 140.196 78.4981 141.289C79.8078 142.382 81.3701 143.325 82.0862 144.855C82.843 146.472 82.4713 148.358 82.7174 150.12C83.2548 153.966 86.6574 156.817 90.1591 158.656C91.226 159.216 92.3716 159.758 93.0621 160.73C93.9634 161.998 93.8736 163.67 94.1746 165.186C94.9117 168.897 98.1118 171.955 98.2027 175.735C98.2673 178.421 96.7378 180.858 95.8242 183.393C94.9676 185.822 94.6576 188.402 94.9154 190.958C95.1732 193.514 95.9927 195.986 97.3179 198.205C98.0014 199.332 98.8188 200.394 99.3023 201.615C100.165 203.795 99.8851 206.273 100.681 208.477C101.732 211.391 104.622 213.798 104.346 216.876C105.658 219.536 108.555 220.843 111.468 221.635L116.69 223.054C117.689 223.325 118.734 223.599 119.752 223.403C120.77 223.206 121.742 222.381 121.715 221.368C119.155 220.804 116.512 220.204 114.402 218.681C112.291 217.158 110.845 214.445 111.646 212.005C112.017 210.873 112.807 209.566 112.056 208.631C111.626 208.096 110.84 207.956 110.355 207.467C109.598 206.705 109.858 205.426 110.402 204.507C110.946 203.588 111.732 202.767 111.951 201.728C112.062 201.146 111.988 200.546 111.739 200.006C111.491 199.467 111.079 199.015 110.559 198.711C111.528 198.354 112.408 197.802 113.144 197.092C113.823 196.334 114.137 195.166 113.603 194.305C115.19 194.501 117.065 194.597 118.107 193.412C118.939 192.465 118.882 191.049 118.553 189.844C118.224 188.638 117.668 187.467 117.651 186.219C121.313 186.389 124.984 186.267 128.626 185.856C128.099 184.124 126.903 182.661 125.289 181.776C126.939 181.503 128.442 179.575 128.963 178.023C129.484 176.471 129.351 174.78 129.029 173.177C128.905 172.765 128.888 172.329 128.98 171.908C129.165 171.33 129.747 170.977 130.285 170.676L138.473 166.085C138.961 165.846 139.404 165.526 139.782 165.141C140.64 164.157 140.513 162.672 140.074 161.453C139.634 160.234 138.931 159.088 138.762 157.807C138.255 153.975 142.457 151.225 143.875 147.617C144.432 146.202 144.545 144.663 144.653 143.15C144.769 141.525 144.777 139.638 143.5 138.591C142.275 137.587 140.361 137.811 139.079 136.878C137.904 136.022 137.499 134.359 136.215 133.668C135.049 133.04 133.588 133.44 132.291 133.144C130.008 132.624 128.571 130.056 126.24 129.818C124.925 129.683 123.436 130.311 122.358 129.563C121.408 128.904 121.369 127.58 121.189 126.456C120.872 124.709 120.014 123.098 118.731 121.842C117.448 120.585 115.802 119.743 114.014 119.428C112.657 119.215 111.181 119.296 110.027 118.568C108.859 117.831 108.323 116.452 107.405 115.431C105.926 113.787 103.597 113.202 101.414 112.701L92.5378 110.664C90.962 110.302 88.9309 110.111 88.0853 111.458C87.8349 111.971 87.6577 112.516 87.5586 113.076C87.2417 114.089 86.6041 114.978 85.7373 115.615C84.8704 116.252 83.8191 116.604 82.7343 116.621C81.9904 115.382 80.7851 114.471 79.3701 114.079C78.47 113.834 77.5066 113.807 76.6481 113.447C76.1806 113.224 75.7645 112.91 75.4255 112.525C75.0864 112.14 74.8314 111.691 74.6761 111.207C74.5208 110.722 74.4684 110.211 74.5222 109.706C74.576 109.201 74.7349 108.712 74.989 108.268C75.5008 107.379 75.6985 106.349 75.5515 105.339C75.4045 104.329 74.921 103.394 74.1757 102.679C72.6662 101.356 70.4826 101.036 68.4584 101.168C67.9283 100.039 68.8147 98.7648 69.7699 97.9441C70.7251 97.1234 71.885 96.3165 72.093 95.0909C72.4202 93.163 69.9007 91.6988 67.9877 92.2736C66.0748 92.8484 64.8538 94.6625 64.0467 96.4508C63.5836 97.4768 63.1899 98.5572 62.4595 99.4224C61.729 100.288 60.5527 100.907 59.44 100.629C57.8649 100.236 57.2565 98.4091 56.9079 96.8587C56.4402 94.7786 55.9697 92.6696 56.0677 90.542C56.1657 88.4145 56.9003 86.23 58.5072 84.7897C61.1256 82.4427 65.1425 82.6728 68.6763 83.0472C67.8414 82.1288 68.0477 80.581 68.941 79.7165C69.4126 79.3075 69.9792 79.0169 70.5918 78.87C71.2044 78.723 71.8444 78.7242 72.4564 78.8733C73.5213 79.0898 74.4805 79.6497 75.1798 80.4631C76.184 81.6585 76.4696 83.2724 77.2286 84.6293C77.9877 85.9861 79.6944 87.1433 81.0914 86.4154C82.298 85.7867 82.4895 84.1531 82.1892 82.8504C81.8889 81.5476 81.2511 80.2808 81.3599 78.9497C81.5674 76.4097 84.2642 74.8809 86.6439 73.8348C89.0236 72.7888 91.7485 71.382 92.1255 68.8607C92.1384 68.3671 92.2338 67.8788 92.4079 67.4152C92.6717 67.0057 93.0385 66.6689 93.4734 66.4369C100.419 61.9557 107.479 57.4197 115.417 54.9711C115.83 54.8437 115.879 54.9853 116.3 54.8855C116.889 54.5531 116.498 53.6336 115.934 53.2632C115.369 52.8927 114.614 52.6087 114.471 51.9593C114.365 51.482 114.654 51.0133 114.728 50.5305C114.912 49.3441 113.459 48.2488 112.33 48.7231C111.692 47.8986 112.954 46.9406 113.974 46.6664C117.038 45.8432 120.182 45.3416 123.355 45.1702C123.721 45.1134 124.096 45.1757 124.422 45.3475C124.955 45.7078 124.887 46.5344 124.509 47.0488C124.132 47.5632 123.544 47.8861 123.074 48.3214C122.56 48.8104 122.193 49.4279 122.014 50.1065C121.834 50.7851 121.85 51.4987 122.057 52.1695C123.714 52.9921 125.514 53.8388 127.348 53.549C129.183 53.2593 130.811 51.247 129.949 49.6399C129.146 48.1433 126.734 47.8058 126.319 46.1656C125.834 44.2451 128.618 42.5372 127.991 40.6563C127.716 39.8324 126.875 39.3475 126.23 38.7527C125.468 38.0234 124.949 37.0861 124.743 36.0639C124.536 35.0418 124.651 33.9825 125.072 33.0252C124.021 33.2057 122.941 33.1376 121.922 32.8264C120.904 32.5152 119.977 31.97 119.218 31.2367C117.818 29.8571 116.701 27.6808 114.713 27.7425C112.888 27.7991 111.317 29.8774 109.611 29.2434C109.191 29.0874 108.748 28.7699 108.342 28.9559C108.208 29.0404 108.097 29.1534 108.015 29.2863C107.933 29.4191 107.883 29.5685 107.868 29.723C107.435 31.7468 108.181 34.0526 107.051 35.8014C105.822 37.7045 102.978 37.9683 101.488 39.6844C100.679 40.6159 100.365 41.8711 99.6215 42.8532C98.8779 43.8353 97.2996 44.4597 96.4071 43.6039C96.8457 42.7235 96.9655 41.724 96.7469 40.7686C96.5283 39.8132 95.9842 38.9584 95.2035 38.3441C94.375 37.8163 93.4819 37.3921 92.5451 37.0816C91.4983 36.649 90.5026 36.1071 89.5752 35.4655C89.1106 35.1919 88.7331 34.7975 88.4849 34.3265C88.2885 33.7367 88.315 33.0977 88.5594 32.5253C89.012 31.2586 89.8103 30.1366 90.8682 29.2805C91.9261 28.4244 93.2035 27.8667 94.5623 27.6676C95.7506 27.5098 97.1335 27.5654 97.9198 26.6815C98.3359 26.2137 98.5542 25.5066 99.1582 25.3167C99.5445 25.2409 99.9455 25.2891 100.301 25.4541L104.737 26.9783C105.231 27.1964 105.776 27.2843 106.316 27.2334C106.584 27.1982 106.829 27.0653 107.001 26.8614C107.172 26.6576 107.259 26.3978 107.243 26.1343C107.101 25.4152 105.968 25.0702 106.071 24.3449C106.129 24.1098 106.258 23.8974 106.442 23.7357C108.043 22.0724 110 20.7752 112.174 19.937C114.348 19.0988 116.685 18.7402 119.018 18.887C119.578 19.7846 118.692 20.8476 117.956 21.6138C117.219 22.3801 116.627 23.7492 117.518 24.339C117.883 24.521 118.289 24.6103 118.699 24.5987C119.791 24.743 120.852 25.0572 121.842 25.5295C123.375 26.1807 124.878 26.8931 126.351 27.6669C126.221 26.7182 126.097 25.7187 126.465 24.8317C126.834 23.9446 127.88 23.2488 128.795 23.5943C129.676 23.9272 130.128 25.0663 131.067 25.1707C132.319 25.3099 132.813 23.5037 132.29 22.3841C131.767 21.2646 130.731 20.3272 130.645 19.0995C130.586 18.2713 130.909 17.2442 130.232 16.7427C129.991 16.5921 129.717 16.4984 129.432 16.469L112.513 13.4293C111.509 13.2488 110.057 13.3871 110.012 14.3835C109.988 14.9397 110.496 15.49 110.271 16.0014C110.031 16.5472 109.24 16.4973 108.665 16.6903C107.772 16.9898 107.324 18.0252 107.409 18.9433C107.566 19.8557 107.928 20.7227 108.469 21.4824C107.369 21.033 105.702 20.9504 104.602 20.5011Z" fill="#F4F4F4" fill-opacity="0.9"/>
<path d="M91.1021 6.47874C90.0352 6.13402 88.8856 6.11797 87.809 6.43275C86.7325 6.74752 85.7811 7.37791 85.0839 8.23843C84.8053 8.59655 84.5714 9.09022 84.8046 9.478C85.1389 10.0339 85.9909 9.81435 86.619 9.61549C87.5423 9.29345 88.5472 9.27004 89.4851 9.54873C90.0749 9.74645 90.6026 10.0959 91.1949 10.2861C91.4833 10.4039 91.7991 10.4428 92.1084 10.3986C92.4177 10.3545 92.7088 10.229 92.9506 10.0356C93.3572 9.6308 93.3827 9.00142 93.3834 8.43445C93.4116 8.24473 93.396 8.05127 93.3379 7.86816C93.2798 7.68506 93.1805 7.51694 93.0473 7.37608C92.8102 7.24199 92.5437 7.16504 92.27 7.15162C91.6571 7.04085 91.103 6.72474 90.7032 6.25779" fill="#F4F4F4" fill-opacity="0.9"/>
<path d="M97.2027 4.82013C96.964 4.80743 96.7259 4.85492 96.5114 4.95803C96.2968 5.06115 96.1131 5.21641 95.9778 5.40889C95.8425 5.60138 95.7602 5.82461 95.7388 6.05712C95.7174 6.28964 95.7576 6.52361 95.8557 6.73655C96.5889 6.93179 97.355 6.98056 98.108 6.87994C98.4835 6.82301 98.8335 6.6588 99.1136 6.40803C99.3938 6.15725 99.5916 5.83112 99.6822 5.47074C98.7957 5.62826 97.8808 5.45766 97.1161 4.99225" fill="#F4F4F4" fill-opacity="0.9"/>
<path d="M117.671 2.05079C115.675 2.46505 113.736 3.10802 111.895 3.96633C112.763 4.29208 113.501 4.88145 114 5.64758C114.499 6.41371 114.733 7.31608 114.667 8.22169C114.589 8.56937 114.598 8.93025 114.693 9.27381C114.905 9.77588 115.52 9.96427 116.06 10.0931C117.031 10.3816 118.045 10.5079 119.059 10.4668C119.566 10.4409 120.059 10.2919 120.492 10.0334C120.925 9.77479 121.286 9.41479 121.541 8.98595C121.688 8.57893 121.86 8.1811 122.057 7.79468C123.352 5.86868 127.2 8.19751 128.591 6.336C129.081 5.68025 129.036 4.69318 129.675 4.17357C130.005 3.94718 130.388 3.80454 130.789 3.75848C133.585 3.21598 136.41 2.82317 139.251 2.58179C140.597 2.46743 142.351 1.99558 142.363 0.676576C137.293 -0.295516 132.036 0.394902 127.41 2.64049C125.743 3.45558 123.539 5.17015 121.933 4.08954C121.332 3.68494 121.362 2.59545 120.534 2.14049C119.689 1.67534 118.569 1.86452 117.671 2.05079Z" fill="#F4F4F4" fill-opacity="0.9"/>
<path d="M134.25 5.07775L136.63 5.52419C136.192 5.50525 135.755 5.57773 135.348 5.73681C134.941 5.89588 134.573 6.13788 134.269 6.44667C133.965 6.75546 133.733 7.12393 133.586 7.52751C133.44 7.93108 133.384 8.36047 133.421 8.78704C135.649 9.5139 138.079 8.80659 140.426 8.90321C142.774 8.99983 145.505 10.637 145.105 12.8974C144.983 13.5809 144.579 14.2639 144.789 14.9265C144.937 15.3908 145.356 15.7203 145.593 16.148C146.086 17.0392 145.692 18.1665 145.069 18.9767C144.446 19.7868 143.609 20.4332 143.062 21.2942C141.702 23.4356 142.474 26.2039 143.285 28.5962C143.519 29.5001 143.952 30.3435 144.552 31.0681C145.753 32.3142 147.709 32.4226 149.461 32.4475C150.736 32.4657 152.196 32.4042 153.003 31.4397C154.055 30.1805 153.319 28.2158 154.012 26.7379C154.642 25.3957 156.246 24.8199 157.699 24.4115C160.36 23.6633 163.073 23.0272 165.59 21.8971C168.715 20.4938 171.635 18.3069 175.07 18.1263C176.033 18.0756 177.021 18.1866 177.949 17.9288C178.877 17.6711 179.759 16.8876 179.688 15.948C179.628 15.1451 178.933 14.5556 178.389 13.9504C177.845 13.3451 177.418 12.4145 177.918 11.7741L186.921 10.1324C186.282 8.43446 185.785 6.19823 187.252 5.09301C187.781 4.69424 188.489 4.53487 188.94 4.05278C189.707 3.23112 189.321 1.81573 188.435 1.11695C187.549 0.41817 186.35 0.255953 185.215 0.163885C181.268 -0.156192 177.298 0.0553082 173.343 0.266972C165.611 0.680729 157.88 1.09449 150.149 1.50824C148.592 1.59153 146.795 1.46429 145.368 1.9827C144.159 2.42158 143.3 3.2272 141.918 3.51025C139.367 4.03279 136.559 3.6792 134.25 5.07775Z" fill="#F4F4F4" fill-opacity="0.9"/>
<path d="M176.883 23.4431C176.64 23.4056 176.392 23.4605 176.19 23.5965C176.056 23.7402 175.977 23.9241 175.965 24.118C175.811 24.9733 175.994 25.8537 176.477 26.5829C176.723 26.9407 177.063 27.2276 177.461 27.4139C177.859 27.6001 178.3 27.679 178.74 27.6423C179.812 27.5089 180.601 26.6163 181.587 26.1808C183.105 25.5102 189.553 24.4647 185.092 22.1119C183.555 21.3011 182.562 22.0169 181.351 22.5508C179.972 23.2393 178.427 23.5478 176.883 23.4431Z" fill="#F4F4F4" fill-opacity="0.9"/>
<path d="M215.951 3.7494C215.43 3.95715 214.994 4.32744 214.712 4.80246C214.582 5.04367 214.551 5.3245 214.627 5.58686C214.703 5.84922 214.88 6.07302 215.12 6.21198C215.314 6.28084 215.521 6.31278 215.728 6.30607L217.845 6.36785C218.745 6.39409 219.869 6.58116 220.11 7.42763C220.29 8.05616 219.888 8.86382 220.373 9.31298C220.581 9.47028 220.831 9.56555 221.093 9.58732C221.791 9.76228 222.52 9.78524 223.227 9.65456C224.768 9.25103 223.958 8.33284 224.444 7.51525C225.186 6.2643 225.058 7.02156 226.366 6.30461C227.332 5.77514 228.581 4.81466 227.775 3.46517C226.372 1.11844 218.02 2.74125 215.951 3.7494Z" fill="#F4F4F4" fill-opacity="0.9"/>
<path d="M257.75 2.56942L256.52 2.72964C253.747 3.09093 250.959 3.45555 248.288 4.26858C249.444 4.71486 250.657 5.00545 251.893 5.13235C252.574 5.16492 253.25 5.25875 253.913 5.41264C255.092 5.75551 256.281 6.6409 257.421 6.18735C258.127 5.90613 258.358 5.18777 258.943 4.80706C259.348 4.54417 260.881 4.11868 261.052 3.85334C262.438 1.70828 258.815 2.43067 257.75 2.56942Z" fill="#F4F4F4" fill-opacity="0.9"/>
<path d="M263.15 8.02664C261.507 8.92339 259.983 10.0131 258.612 11.2714C258.034 11.8016 257.444 12.4612 257.496 13.2337C257.566 14.2604 258.686 14.856 259.657 15.2572L263.588 16.8822C264.065 16.2259 263.628 15.32 263.135 14.6751C262.643 14.0302 262.057 13.2841 262.275 12.508C262.523 11.6224 263.629 11.3206 264.557 11.168C266.068 10.9194 270.144 10.9394 269.654 8.56169C269.077 5.76008 264.667 7.19884 263.15 8.02664Z" fill="#F4F4F4" fill-opacity="0.9"/>
<path d="M262.359 166.571C261.985 167.629 261.95 168.875 262.597 169.799C263.323 170.835 264.777 171.222 266.035 170.959C267.287 170.633 268.404 169.933 269.227 168.955C269.98 168.136 270.599 167.209 271.063 166.206C271.71 164.644 272.167 163.012 272.424 161.345L273.644 155.088C273.917 153.69 273.906 149.402 271.274 150.799C270.555 151.181 268.89 154.194 268.136 155.048C266.778 156.588 266.598 158.082 265.883 159.947C264.987 162.284 263.187 164.231 262.359 166.571Z" fill="#F4F4F4" fill-opacity="0.9"/>
<path d="M401.395 198.59C400.534 198.262 399.698 197.873 398.894 197.427C398.087 199.591 397.659 201.872 397.626 204.175L403.52 200.918C404.406 200.428 405.411 199.748 405.392 198.753C405.4 198.63 405.374 198.508 405.317 198.398C405.26 198.289 405.173 198.196 405.066 198.13C404.935 198.079 404.793 198.063 404.653 198.083C403.779 198.154 402.982 198.574 402.158 198.866C401.333 199.158 400.369 199.312 399.613 198.879" fill="#F4F4F4" fill-opacity="0.9"/>
<path d="M432.488 200.523C431.841 200.695 431.209 200.916 430.598 201.185C429.245 201.857 428.325 203.134 427.108 204.019C425.943 204.865 424.541 205.33 423.164 205.782C422.76 206.132 422.946 206.836 423.385 207.143C423.858 207.405 424.4 207.524 424.942 207.484C426.372 207.515 427.878 207.529 429.131 206.854C429.837 206.407 430.497 205.895 431.103 205.326C432.568 204.133 434.326 203.346 436.067 202.585C436.701 202.351 437.287 202.009 437.798 201.575C438.892 200.523 438.968 198.899 437.391 198.541C436.116 198.252 433.702 200.14 432.488 200.523Z" fill="#F4F4F4" fill-opacity="0.9"/>
<path d="M446.226 191.762C446.297 191.038 446.198 190.307 445.938 189.626C445.677 188.944 445.261 188.33 444.722 187.828C444.706 189.277 444.66 190.82 443.826 192.018C443.231 192.872 442.299 193.448 441.648 194.261C440.996 195.074 440.707 196.363 441.471 197.077C441.96 197.439 442.554 197.639 443.168 197.647C444.689 197.822 446.45 197.919 447.517 196.847C448.099 196.261 448.382 195.394 449.092 194.963C449.357 194.855 449.593 194.69 449.784 194.48C450.077 194.025 449.611 193.425 449.086 193.261C448.562 193.097 447.984 193.174 447.457 193.019C446.93 192.863 446.446 192.284 446.717 191.816" fill="#F4F4F4" fill-opacity="0.9"/>
<path d="M421.809 138.648C421.011 138.837 420.185 138.885 419.37 138.788C418.015 138.545 416.962 137.549 415.868 136.731C413.269 134.799 410.11 133.722 406.844 133.653C403.874 133.598 400.875 134.384 397.958 133.836C398.148 134.871 399.056 135.648 400.024 136.109C400.992 136.57 402.06 136.803 403.033 137.255C404.59 137.986 405.826 139.241 406.513 140.79C406.826 141.504 407.023 142.28 407.498 142.904C408.468 144.178 410.306 144.458 411.929 144.354C414.044 144.218 416.253 143.624 418.221 144.393C419.727 144.982 420.804 146.268 422.062 147.269C423.319 148.269 425.089 149.012 426.533 148.29C425.033 147.816 423.728 146.886 422.808 145.637C421.888 144.388 421.401 142.884 421.418 141.346C422.834 141.473 426.912 141.424 426.692 139.075C426.506 137.085 423.025 138.433 421.809 138.648Z" fill="#F4F4F4" fill-opacity="0.9"/>
<path d="M403.289 154.842C403.54 153.496 404.915 152.307 404.487 151.004C404.191 150.103 403.121 149.659 402.152 149.636C401.183 149.614 400.231 149.896 399.262 149.923C398.632 149.89 398 149.899 397.37 149.949C395.447 150.257 394.262 152.225 392.449 152.925C391.347 153.351 390.109 153.269 388.963 153.563C386.362 154.231 384.716 156.631 382.897 158.567C379.959 161.679 376.13 163.859 371.909 164.823C370.429 165.158 368.839 165.371 367.663 166.309C366.106 167.552 365.723 169.681 365.377 171.615C364.42 176.955 362.957 182.197 361.008 187.274L367.185 188.044C368.36 188.19 369.577 188.334 370.708 187.994C371.531 187.691 372.309 187.286 373.026 186.789C375.777 185.121 378.856 184.036 382.064 183.604C383.682 183.387 385.378 183.347 386.896 183.934C388.414 184.521 389.716 185.852 389.844 187.442C390.5 187.242 391.2 187.221 391.868 187.38C392.536 187.538 393.147 187.871 393.637 188.343C394.604 189.305 395.238 190.539 395.448 191.872C395.61 192.697 395.773 193.686 396.557 194.032C397.197 194.314 397.931 194.01 398.631 193.956C401.006 193.77 402.977 196.474 405.311 196.008C407.815 195.509 408.43 191.848 410.872 191.115C412.275 190.694 414.243 191.206 414.914 189.932C415.506 188.809 414.325 187.513 414.447 186.256C414.597 184.708 416.467 184.05 417.909 183.39C422.881 181.112 425.24 174.58 422.831 169.762C421.403 166.907 418.595 164.66 418.076 161.524C417.677 159.111 418.651 156.298 417.076 154.399C416.274 153.433 414.917 152.899 414.44 151.746C414.14 151.021 414.261 150.198 414.099 149.431C413.938 148.664 413.253 147.863 412.477 148.061C410.227 148.638 409.509 155.426 408.304 157.075C406.472 159.582 402.712 157.931 403.289 154.842Z" fill="#F4F4F4" fill-opacity="0.9"/>
<path d="M361.691 141.212C360.922 141.002 360.082 140.794 359.345 141.095C358.608 141.396 358.178 142.452 358.769 142.976C363.396 142.8 368.051 142.626 372.639 143.239C377.924 143.946 383.155 145.697 388.464 145.182C385.432 144.308 382.349 143.61 379.232 143.09L374.035 142.121C372.641 141.836 371.232 141.623 369.815 141.484C366.85 141.245 364.606 142.01 361.691 141.212Z" fill="#F4F4F4" fill-opacity="0.9"/>
<path d="M366.323 125.479C365.939 125.448 365.463 125.421 365.264 125.743C365.074 126.051 365.292 126.458 365.19 126.804C365.05 127.276 364.417 127.396 363.918 127.332C363.42 127.268 362.88 127.114 362.438 127.349C362.214 127.498 362.046 127.714 361.958 127.965C361.871 128.216 361.869 128.488 361.953 128.74C362.134 129.24 362.426 129.695 362.809 130.071C363.462 130.875 364.207 131.605 365.028 132.245C366.619 133.391 368.773 133.943 369.775 135.607C369.916 135.93 370.133 136.215 370.408 136.44C370.889 136.737 371.516 136.511 372.034 136.28L373.849 135.471C374.176 135.356 374.467 135.162 374.697 134.907C375.112 134.358 374.857 133.577 374.509 132.986C374.161 132.394 373.716 131.782 373.79 131.103C373.923 129.894 375.516 129.431 376.171 128.396C376.831 127.353 376.402 126.009 376.478 124.785C376.567 123.354 377.488 121.492 376.006 120.423C374.746 119.514 373.542 120.354 372.638 121.357C370.731 123.473 369.829 125.765 366.323 125.479Z" fill="#F4F4F4" fill-opacity="0.9"/>
<path d="M377.338 104.092C377.958 105.25 379.249 105.941 379.925 107.069C380.657 108.291 380.574 109.871 381.368 111.056C382.183 112.272 383.823 112.917 384.28 114.3C384.779 115.81 383.647 117.644 384.55 118.964C384.718 119.179 384.93 119.358 385.173 119.49C385.416 119.621 385.684 119.701 385.961 119.726C386.237 119.751 386.516 119.72 386.779 119.634C387.043 119.548 387.285 119.409 387.491 119.227C387.871 118.823 388.075 118.289 388.058 117.74C388.042 117.191 387.806 116.67 387.402 116.288C386.867 115.813 386.1 115.607 385.654 115.052C385.422 114.731 385.267 114.363 385.201 113.975C384.958 112.858 384.997 111.699 385.315 110.599C385.434 110.32 385.464 110.012 385.402 109.716C385.201 109.146 384.41 109.105 383.855 108.841C382.595 108.24 382.626 106.504 382.846 105.152C382.699 106.052 379.415 104.521 379.071 104.011C378.388 102.998 378.76 101.044 378.624 99.9242C377.149 100.618 376.581 102.676 377.338 104.092Z" fill="#F4F4F4" fill-opacity="0.9"/>
<path d="M344.249 121.911C343.643 121.248 342.73 120.555 341.917 120.955C341.297 121.26 341.127 122.097 341.37 122.732C341.666 123.349 342.122 123.88 342.692 124.272C344.386 125.635 346.21 126.866 347.687 128.452C350.332 131.289 351.732 135.117 354.608 137.73C355.186 138.336 355.951 138.741 356.787 138.882C357.625 138.958 358.566 138.434 358.662 137.618C358.741 136.946 358.261 136.344 357.792 135.846C356.675 134.66 355.452 133.568 354.398 132.328C353.911 131.852 353.604 131.228 353.53 130.559C353.525 129.891 354.148 129.193 354.81 129.358C354.005 129.157 353.407 127.847 352.225 127.601C351.237 127.395 350.998 127.992 349.822 127.5C347.579 126.561 345.82 123.628 344.249 121.911Z" fill="#F4F4F4" fill-opacity="0.9"/>
<path d="M396.946 57.396C396.302 57.2093 395.67 56.9887 395.051 56.7352C393.386 56.2472 391.183 57.4422 391.405 59.1257C391.552 60.2442 392.618 60.9984 393.207 61.9686C394.08 63.4075 393.848 65.2324 393.389 66.8438C393.276 67.3427 393.062 67.8144 392.759 68.2309C392.335 68.6705 391.828 69.0264 391.267 69.2788C389.018 70.51 387.035 72.1548 385.427 74.1225C385.252 74.3042 385.13 74.5283 385.074 74.7715C384.995 75.3399 385.58 75.754 385.911 76.2281C386.646 77.2812 386.115 78.6982 386.187 79.9706C386.176 80.1505 386.212 80.3302 386.292 80.4927C386.372 80.6552 386.493 80.795 386.644 80.899C387.087 81.1187 387.612 80.7455 387.852 80.3208C388.649 78.9114 388.049 76.6491 389.543 75.9696C389.826 75.841 390.169 75.7868 390.358 75.5443C390.657 75.1597 390.368 74.5901 390.52 74.1302C390.747 73.4399 391.715 73.4089 392.457 73.4395C393.735 73.4917 395.013 73.3256 396.233 72.9486C396.712 72.8375 397.147 72.5917 397.483 72.2418C397.93 71.6973 397.891 70.9232 397.801 70.231C397.354 66.7801 396.235 63.4446 394.503 60.4047C395.816 60.5684 397.245 60.7103 398.378 60.0422C399.012 59.6681 399.773 58.5493 399.458 57.7879C398.961 56.5837 398.062 57.5973 396.946 57.396Z" fill="#F4F4F4" fill-opacity="0.9"/>
<path d="M228.618 76.3756C228.775 77.1984 228.929 78.0648 228.653 78.8572C228.377 79.6495 227.508 80.3116 226.688 80.0688C226.051 79.8804 225.683 79.2553 225.231 78.7788C222.717 76.1287 217.044 77.663 215.491 74.3844C214.857 73.0463 215.288 71.4432 214.856 70.0307C214.583 69.2143 214.04 68.5095 213.313 68.027C212.585 67.5445 211.714 67.3115 210.836 67.3648C210.035 67.4777 209.256 67.7048 208.523 68.0389C203.612 69.9591 198.457 71.218 193.198 71.7811C192.199 71.8405 191.211 72.0161 190.254 72.3042C188.095 73.0684 186.619 75.0228 185.569 77.0171C184.52 79.0114 183.744 81.1705 182.337 82.9423C180.858 84.8044 178.785 86.1084 176.851 87.5188C176.106 87.9875 175.486 88.6222 175.041 89.3707C174.622 90.211 174.646 91.1883 174.678 92.1225L175.073 103.468C175.124 104.927 175.188 106.438 175.857 107.744C176.692 109.375 178.342 110.443 179.487 111.884C180.656 113.364 181.264 115.193 181.21 117.061C181.186 117.812 181.109 118.701 181.708 119.173C182.073 119.403 182.499 119.523 182.934 119.517L198.652 120.773C201.417 120.994 204.482 121.357 206.287 123.414C207.139 124.384 207.823 125.78 209.128 125.884C209.688 125.929 210.233 125.705 210.793 125.661C212.205 125.552 213.446 126.599 214.229 127.752C215.415 129.509 215.953 131.608 215.755 133.703C215.627 135.018 215.209 136.297 215.119 137.615C214.776 142.631 219.131 146.988 219.216 152.015C219.266 154.971 217.828 157.734 216.426 160.355C218.688 163.701 216.836 168.156 217.737 172.067C218.591 175.777 221.76 178.682 222.55 182.407C222.911 184.112 222.932 186.21 224.472 187.088C225.148 187.41 225.897 187.556 226.647 187.513C231.173 187.566 235.648 186.571 239.705 184.611C241.609 183.688 243.583 182.311 243.915 180.261C244.183 178.608 243.325 176.759 244.199 175.319C245.228 173.622 247.867 173.757 249.382 172.452C251.84 170.335 249.923 166.298 250.919 163.25C251.814 160.509 254.896 159.053 256.424 156.594C257.025 155.536 257.457 154.394 257.703 153.209C258.403 150.375 258.839 147.486 259.005 144.576C259.045 142.808 259.179 141.043 259.405 139.288C261.052 129.298 271.168 122.608 274.452 113.01C274.766 112.094 274.913 110.873 274.078 110.354C273.582 110.124 273.021 110.066 272.487 110.192L265.241 111.084C264.341 111.195 263.387 111.298 262.561 110.933C261.734 110.568 261.142 109.547 261.58 108.772C262.811 106.595 260.279 103.845 259.155 101.615C256.126 95.6086 252.519 89.8974 248.382 84.5581C248.118 84.2834 247.952 83.9319 247.91 83.5569L249.967 83.6238C249.272 81.1917 248.127 78.5304 245.707 77.6407C244.343 77.1394 242.833 77.3127 241.378 77.3904C237.21 77.6126 232.742 76.9983 228.618 76.3756Z" fill="#F4F4F4" fill-opacity="0.9"/>
<path d="M241.381 21.5691C242.472 22.6998 243.694 23.8986 245.272 24.0957C248.059 24.4438 250.062 21.63 251.338 19.186C251.385 19.8091 251.68 20.3896 252.159 20.804C252.637 21.2185 253.263 21.4342 253.902 21.4054C254.59 21.2924 255.247 21.0418 255.831 20.6692C261.353 17.7231 267.537 16.1621 273.83 16.1265C273.769 15.6611 273.888 15.1903 274.162 14.8051C274.436 14.4198 274.846 14.1473 275.314 14.0401C276.594 13.7925 277.746 14.8724 278.363 15.9942C278.98 17.1161 279.365 18.4163 280.346 19.256C281.326 20.0957 283.225 20.0591 283.612 18.8432C283.984 17.6758 282.738 16.6803 281.703 15.992C280.668 15.3038 279.577 14.0299 280.274 13.0143C285.561 11.8716 290.881 10.7247 296.291 10.4976C297.212 10.5289 298.13 10.3745 298.987 10.0441C299.812 9.64884 300.468 8.75155 300.246 7.88082C299.066 8.15178 297.829 8.07331 296.694 7.65543C295.56 7.23755 294.578 6.49919 293.875 5.53449C301.382 4.92969 309.366 4.41417 316.018 7.8628C316.817 9.53605 312.748 10.9282 313.837 12.4374C314.184 12.9187 314.879 12.9751 315.482 12.9861C320.105 13.0699 324.755 13.152 329.326 12.4706C330.996 12.2216 332.683 11.87 334.36 12.072C337.154 12.4083 339.543 14.228 342.291 14.8213C343.409 15.0627 344.664 15.0709 345.606 14.4358C346.549 13.8006 346.955 12.3543 346.182 11.5286C348.769 9.05273 353.064 9.66636 356.477 10.8517C359.891 12.037 363.124 13.9486 366.737 14.2128C369.328 14.4023 371.955 13.7219 374.515 14.1544C376.123 14.4261 377.62 15.1248 379.193 15.5541C382.166 16.366 385.312 16.1946 388.399 16.2337C396.277 16.3373 404.069 17.8489 411.388 20.6937C412.34 20.9963 413.213 21.4996 413.944 22.1678C414.625 22.8799 414.972 23.9865 414.515 24.8522L406.951 23.7732C407.663 25.1429 409.507 25.3763 411.004 25.8489C412.502 26.3214 414.054 27.9357 413.154 29.196C411.532 28.6917 410.062 30.2753 409.242 31.7323C408.423 33.1893 407.424 34.9342 405.724 35.023C404.202 35.1025 402.361 33.8368 401.368 34.9669C402.739 36.6554 403.913 38.4878 404.868 40.4302C405.849 42.4243 406.547 44.9369 405.222 46.731C405.013 47.0513 404.697 47.2907 404.328 47.4081C403.245 47.6756 402.542 46.383 401.766 45.5996C400.788 44.6124 399.309 44.3328 397.985 43.8698C396.661 43.4068 395.266 42.496 395.162 41.1263C395.098 40.2741 395.558 39.4819 395.898 38.6943C396.468 37.3668 396.718 35.9287 396.627 34.4917C396.553 33.3357 396.221 32.1332 395.37 31.3255C394.52 30.5177 393.052 30.2615 392.139 31.0013C391.713 31.3465 391.372 31.8986 390.818 31.9193C389.841 31.9558 389.091 30.2921 388.304 30.86C388.396 31.4651 388.268 32.0826 387.941 32.6046C385.595 34.5971 381.99 33.7542 378.965 34.458C377.526 34.86 376.149 35.4472 374.869 36.2042C374.391 36.4041 373.983 36.7379 373.699 37.1636C373.321 37.88 373.737 38.7976 374.403 39.274C375.109 39.6966 375.902 39.961 376.725 40.0479C380.413 40.7298 384.155 41.7855 387.067 44.0982C389.978 46.411 391.888 50.2341 390.966 53.7867L383.694 47.0018C383.97 49.8506 384.127 52.7073 384.164 55.5719C384.211 56.1312 384.132 56.6938 383.933 57.2203C383.415 58.3384 382.01 58.7146 380.778 58.9615C380.436 59.025 380.111 59.1586 379.825 59.3534C379.539 59.5482 379.299 59.7998 379.119 60.0918C378.94 60.3838 378.826 60.7095 378.785 61.0475C378.744 61.3855 378.777 61.7282 378.881 62.053C379.318 63.4453 380.409 64.5308 381.408 65.6125C382.407 66.6941 383.39 67.9234 383.521 69.3742C383.651 70.825 382.53 72.4602 381.042 72.3593C379.914 72.2829 379.077 71.2969 378.596 70.2978C378.115 69.2987 377.829 68.1857 377.106 67.3368C374.918 64.7673 370.003 65.8682 368.042 63.1289C367.543 63.6823 367.196 64.3512 367.036 65.0721C366.875 65.7931 366.906 66.542 367.125 67.248C368.037 66.6906 369.286 67.2085 369.971 68.0184C370.656 68.8283 370.979 69.8667 371.518 70.7763C372.244 72.0038 373.399 73.092 373.501 74.5061C373.474 75.0407 373.483 75.5766 373.528 76.1101C373.708 76.9669 374.45 77.5821 374.964 78.2982C376.161 79.9646 376.102 82.2538 375.33 84.1445C374.559 86.0352 373.174 87.615 371.801 89.1467C369.404 91.8221 366.958 94.4817 364.116 96.7034C363.305 97.3374 362.439 97.9608 361.934 98.8471C361.429 99.7334 361.403 100.977 362.179 101.652C361.624 101.679 360.628 101.946 360.073 101.973C359.878 99.7976 359.835 97.6121 359.946 95.4313C357.754 94.4039 355.395 97.1553 355.677 99.5128C355.96 101.87 357.707 103.762 358.95 105.802C359.859 107.293 360.535 109.032 360.231 110.743C359.928 112.453 358.364 114.03 356.593 113.88C353.776 113.64 352.598 109.691 349.808 109.239C349.562 109.183 349.304 109.208 349.074 109.311C348.66 109.532 348.588 110.073 348.565 110.534C348.45 112.795 348.352 115.145 349.256 117.23C350.578 120.279 353.994 122.84 353.278 126.077C349.417 124.325 347.41 120.098 346.499 116.038C345.587 111.978 345.435 107.716 343.802 103.878C342.561 105.43 339.954 104.147 338.821 102.518C337.746 100.974 337.085 99.1885 336.042 97.6238C335 96.0592 333.403 94.6582 331.493 94.5721C329.491 94.4819 327.754 95.8235 326.227 97.091C324.971 98.1333 323.682 99.2167 322.948 100.658C321.88 102.754 322.159 105.226 322.108 107.567C322.052 110.098 321.503 112.769 319.736 114.622C317.969 116.475 314.708 117.12 312.759 115.45C311.741 114.578 311.249 113.276 310.81 112.025C308.695 105.998 306.933 99.8584 305.534 93.6356C305.206 95.0559 303.929 96.8865 302.709 96.0499C302.435 95.825 302.213 95.5459 302.058 95.2311C299.782 91.4644 295.566 89.2051 291.307 87.8505C287.048 86.4958 282.567 85.8639 278.355 84.3751C275.995 83.5405 273.74 82.4441 271.636 81.1075C271.1 81.8769 270.786 82.7737 270.73 83.7028C270.673 84.6319 270.874 85.5587 271.313 86.385C272.247 88.0001 274.362 88.9346 276.171 88.3701C277.107 88.0783 277.896 87.4444 278.824 87.1314C279.752 86.8183 280.998 86.972 281.404 87.8449C281.792 88.6804 281.205 89.6912 281.496 90.5635C281.94 91.8922 283.992 91.9945 284.71 93.2036C285.244 94.1032 284.805 95.2978 284.042 96.0237C283.28 96.7496 282.262 97.1477 281.332 97.653C278.312 99.2926 276.164 102.091 273.525 104.269C270.886 106.447 267.162 108.036 264.017 106.64C264.767 102.933 260.244 100.212 259.412 96.5217C259.138 95.3072 259.28 94.0171 258.889 92.8336C258.323 91.12 256.766 89.9418 255.489 88.6432C253.939 87.051 252.732 85.172 251.939 83.117C251.145 81.062 250.782 78.8726 250.869 76.6781C250.938 75.1531 251.225 73.6033 250.869 72.1169C250.513 70.6305 249.253 69.1918 247.691 69.2591C244.123 69.413 239.629 69.6721 237.757 66.7029C237.089 65.6432 236.799 64.0912 237.764 63.2793C238.446 62.7066 239.451 62.7605 240.346 62.8465L248.384 63.6185C250.264 63.799 252.296 63.948 253.91 62.9885C255.523 62.0289 256.222 59.4818 254.728 58.3529C253.637 57.528 251.681 57.5727 251.364 56.2612C251.1 55.1689 252.338 53.9296 251.669 53.0168C251.189 52.3622 250.111 52.5438 249.458 53.0345C248.805 53.5251 248.331 54.2427 247.6 54.6142C246.317 55.2659 244.784 54.6457 243.404 54.2241C242.025 53.8026 240.175 53.7668 239.505 55.0181C238.757 56.4176 240.169 58.2513 239.426 59.6537C238.444 61.5077 235.118 60.4522 233.739 62.047C232.156 63.877 234.816 66.6057 234.282 68.9435C233.6 69.2731 232.843 69.4244 232.084 69.3827C231.324 69.3411 230.589 69.1079 229.95 68.7059C229.321 68.2883 228.82 67.7121 228.5 67.0385C228.179 66.365 228.052 65.6193 228.131 64.8808C228.264 63.8291 228.825 62.7556 228.449 61.7618C228.145 60.9582 227.318 60.4799 226.55 60.0655L218.739 55.8513C218.014 57.1648 218.931 58.7931 220.077 59.7797C221.224 60.7662 222.66 61.5092 223.414 62.8076C223.89 63.7071 223.997 64.7503 223.712 65.7241C223.427 66.6979 222.773 67.5289 221.882 68.0474C221.77 68.1227 221.643 68.1734 221.509 68.1962C221.376 68.2189 221.239 68.2132 221.107 68.1793C220.983 68.1078 220.874 68.0126 220.788 67.8993C220.702 67.7861 220.64 67.6571 220.605 67.52C219.227 64.0765 217.158 60.6815 213.85 58.8827C210.542 57.0839 205.788 57.4537 203.619 60.4839C203.103 61.2036 202.758 62.024 202.309 62.7849C199.924 66.8276 194.811 68.742 190.035 68.617C189.567 68.6422 189.103 68.5356 188.696 68.3098C187.924 67.7892 187.959 66.6847 188.077 65.776L188.578 61.9196C188.679 61.1453 188.825 60.2893 189.452 59.8059C190.337 59.1245 191.614 59.5545 192.741 59.5387C193.595 59.4997 194.415 59.2053 195.092 58.6954C195.769 58.1856 196.268 57.485 196.523 56.6885C196.751 55.8842 196.75 55.0345 196.519 54.231C196.289 53.4274 195.838 52.7005 195.216 52.1285C194.699 51.6549 194.006 51.0599 194.279 50.4214C194.388 50.2448 194.535 50.0936 194.71 49.9785C194.885 49.8633 195.084 49.7871 195.293 49.755C197.317 49.1811 199.456 49.0307 201.446 48.3535C203.437 47.6763 205.367 46.2908 205.838 44.285C205.983 43.6703 206.048 42.9257 206.614 42.6209C206.898 42.5039 207.202 42.4431 207.511 42.4421C208.59 42.2922 209.572 41.7533 210.265 40.9315C210.957 40.1097 211.31 39.0646 211.253 38.0019C212.206 37.3511 213.543 37.8298 214.466 38.522C215.389 39.2142 216.203 40.1287 217.326 40.427C219.419 40.9831 221.441 39.1741 223.61 39.1658C224.522 39.1622 225.466 39.4771 226.324 39.1752C227.194 38.8691 227.713 38.0238 228.381 37.3992C229.049 36.7747 230.22 36.3938 230.836 37.0666L230.311 33.2704C231.369 33.5311 232.471 33.568 233.544 33.3786C234.616 33.1892 235.636 32.7779 236.532 32.1723L229.748 29.9343C229.512 29.8767 229.294 29.7629 229.114 29.6031C228.62 29.0846 229.11 28.2765 229.511 27.6871C230.471 26.2769 230.632 23.9541 229.054 23.2521C227.977 22.7729 226.741 23.3481 225.707 23.9109L220.756 26.6065C220.598 27.5254 221.749 28.0462 222.462 28.6652C222.894 29.0397 223.199 29.5329 223.339 30.0799C223.478 30.627 223.444 31.2024 223.242 31.7305C223.04 32.2586 222.68 32.7148 222.207 33.039C221.735 33.3633 221.173 33.5406 220.596 33.5475C220.922 33.9613 221.149 34.4415 221.259 34.9525C221.369 35.4634 221.36 35.992 221.233 36.4992L217.901 36.7331C217.528 36.8066 217.139 36.7325 216.821 36.5272C216.465 36.2182 216.513 35.6768 216.43 35.2186C216.231 34.1125 215.122 33.3374 213.99 33.1386C212.858 32.9398 211.699 33.1946 210.578 33.4462C210.102 33.6134 209.58 33.6016 209.112 33.4131C208.844 33.2431 208.64 32.992 208.532 32.6982C208.041 31.5348 208.5 30.1673 209.289 29.1724C210.079 28.1774 211.159 27.4501 212.13 26.6218C214.45 24.6338 216.155 22.0517 217.052 19.1674C218.886 18.4171 220.785 17.3978 222.619 16.6475C225.447 15.2498 228.617 14.65 231.775 14.9155L237.986 15.0313C239.825 15.0656 241.714 15.1095 243.414 15.794C245.115 16.4785 246.609 17.9589 246.726 19.7509C246.761 19.9538 246.743 20.1622 246.674 20.3564C246.604 20.5506 246.485 20.7244 246.328 20.8614C246.088 20.9894 245.816 21.0492 245.542 21.0342C243.827 21.0931 243.096 21.5103 241.381 21.5691Z" fill="#F4F4F4" fill-opacity="0.9"/>
<path d="M191.875 40.5743C192.117 40.35 192.292 40.0648 192.379 39.7499C192.467 39.4351 192.464 39.1028 192.37 38.7896C191.78 38.5671 191.137 38.51 190.516 38.6247C189.894 38.7393 189.317 39.0212 188.85 39.4386C188.482 39.802 188.165 40.2113 187.907 40.6558C187.091 41.9559 186.369 43.5088 186.842 44.962C186.881 45.1205 186.951 45.2698 187.05 45.4013C187.148 45.5328 187.272 45.6438 187.415 45.7277C187.627 45.8108 187.856 45.8457 188.084 45.8299C188.983 45.8288 189.881 45.7748 190.774 45.6683C191.322 45.6029 191.958 45.4518 192.17 44.9539C192.448 44.2995 191.775 43.5589 191.971 42.8767C192.1 42.5716 192.296 42.2978 192.545 42.0742C192.668 41.9617 192.763 41.8226 192.822 41.668C192.881 41.5134 192.902 41.3475 192.883 41.1836C192.804 40.8635 192.302 40.6819 192.121 40.96" fill="#F4F4F4" fill-opacity="0.9"/>
<path d="M196.537 34.6727C195.738 34.4936 194.915 34.4431 194.1 34.5232C193.919 34.518 193.74 34.5576 193.58 34.6385C193.425 34.7503 193.312 34.9096 193.26 35.091C193.088 35.6307 193.13 36.2139 193.379 36.7244C193.627 37.235 194.063 37.6355 194.601 37.846C194.894 37.9118 195.174 38.0218 195.432 38.1722C196.121 38.6944 195.682 39.7618 195.812 40.6042C195.959 41.55 196.897 42.3439 196.725 43.2857C196.589 44.0276 195.778 44.6151 195.908 45.3579C196.045 46.1358 197.056 46.3696 197.862 46.4319C198.329 46.5118 198.81 46.458 199.247 46.277C199.684 45.9849 199.995 45.545 200.12 45.0421C200.45 44.0832 200.589 43.0715 200.528 42.0616C200.525 41.6023 200.407 41.1508 200.184 40.7461C199.942 40.4255 199.673 40.1247 199.38 39.8468C197.836 38.0931 199.462 35.4774 196.537 34.6727Z" fill="#F4F4F4" fill-opacity="0.9"/>
<path opacity="0.8" d="M399.588 172.047C399.588 172.047 281.323 105.767 230.408 118.325C230.408 118.325 122.504 129.663 109.998 154.605C109.998 154.605 75.6979 49.952 63.1925 46.4636" stroke="#6C63FF" stroke-opacity="0.3" stroke-width="2" stroke-miterlimit="10"/>
<path opacity="0.8" d="M109.998 154.605C129.828 102.976 308.477 45.7659 308.477 45.7659C283.109 52.045 230.408 118.325 230.408 118.325C230.408 118.325 118.931 39.1379 63.1925 46.4636C63.1925 46.4636 308.656 54.3125 399.588 172.047" stroke="#6C63FF" stroke-opacity="0.3" stroke-width="2" stroke-miterlimit="10"/>
<path d="M63.1923 51.5216C66.0536 51.5216 68.3731 49.2569 68.3731 46.4634C68.3731 43.6698 66.0536 41.4052 63.1923 41.4052C60.331 41.4052 58.0115 43.6698 58.0115 46.4634C58.0115 49.2569 60.331 51.5216 63.1923 51.5216Z" fill="#94BBF9" fill-opacity="0.3"/>
<path d="M109.998 159.663C112.86 159.663 115.179 157.398 115.179 154.605C115.179 151.811 112.86 149.547 109.998 149.547C107.137 149.547 104.818 151.811 104.818 154.605C104.818 157.398 107.137 159.663 109.998 159.663Z" fill="#94BBF9" fill-opacity="0.3"/>
<path d="M308.477 50.8242C311.338 50.8242 313.658 48.5596 313.658 45.766C313.658 42.9724 311.338 40.7078 308.477 40.7078C305.616 40.7078 303.296 42.9724 303.296 45.766C303.296 48.5596 305.616 50.8242 308.477 50.8242Z" fill="#94BBF9" fill-opacity="0.3"/>
<path d="M399.588 177.105C402.449 177.105 404.769 174.84 404.769 172.047C404.769 169.253 402.449 166.988 399.588 166.988C396.727 166.988 394.407 169.253 394.407 172.047C394.407 174.84 396.727 177.105 399.588 177.105Z" fill="#94BBF9" fill-opacity="0.3"/>
<path d="M230.408 123.383C233.269 123.383 235.588 121.119 235.588 118.325C235.588 115.531 233.269 113.267 230.408 113.267C227.546 113.267 225.227 115.531 225.227 118.325C225.227 121.119 227.546 123.383 230.408 123.383Z" fill="#94BBF9" fill-opacity="0.3"/>
</svg>
