<svg width="531" height="292" viewBox="0 0 531 292" fill="none" xmlns="http://www.w3.org/2000/svg">
<path d="M507.648 231.41H23.3518C17.1607 231.403 11.2251 228.94 6.84727 224.562C2.46946 220.185 0.00695392 214.249 0 208.058V24.2892C0.00703776 18.0981 2.46956 12.1625 6.84735 7.78476C11.2251 3.40697 17.1607 0.944446 23.3518 0.937408H507.648C513.839 0.944446 519.775 3.40697 524.153 7.78476C528.53 12.1625 530.993 18.0981 531 24.2892V208.058C530.993 214.249 528.531 220.185 524.153 224.562C519.775 228.94 513.839 231.403 507.648 231.41Z" fill="white"/>
<path d="M507.648 231.41H23.3518C17.1607 231.403 11.2251 228.94 6.84727 224.562C2.46946 220.185 0.00695392 214.249 0 208.058V24.2892C0.00703776 18.0981 2.46956 12.1625 6.84735 7.78476C11.2251 3.40697 17.1607 0.944446 23.3518 0.937408H507.648C513.839 0.944446 519.775 3.40697 524.153 7.78476C528.53 12.1625 530.993 18.0981 531 24.2892V208.058C530.993 214.249 528.531 220.185 524.153 224.562C519.775 228.94 513.839 231.403 507.648 231.41ZM23.3518 2.96798C17.6971 2.96798 12.2739 5.21433 8.27542 9.21283C4.27692 13.2113 2.03058 18.6345 2.03058 24.2892V208.058C2.03058 210.858 2.58206 213.63 3.65356 216.217C4.72505 218.804 6.29556 221.154 8.27542 223.134C10.2553 225.114 12.6057 226.685 15.1925 227.756C17.7793 228.828 20.5519 229.379 23.3518 229.379H507.648C510.448 229.379 513.221 228.828 515.807 227.756C518.394 226.685 520.745 225.114 522.725 223.134C524.704 221.154 526.275 218.804 527.346 216.217C528.418 213.63 528.969 210.858 528.969 208.058V138.767C528.969 102.751 514.662 68.21 489.195 42.7427C463.727 17.2754 429.186 2.968 393.17 2.96798H23.3518Z" fill="#E6E6E6"/>
<path d="M193.709 112.434C193.736 130.825 186.942 148.572 174.642 162.244V162.254C172.903 164.188 171.066 166.031 169.139 167.778C167.167 169.564 165.099 171.241 162.946 172.803C161.443 173.9 159.9 174.935 158.316 175.91C156.438 177.078 154.505 178.157 152.519 179.149C151.046 179.89 149.544 180.58 148.011 181.22C138.859 185.066 129.032 187.044 119.105 187.038C113.499 187.044 107.91 186.417 102.444 185.17C99.9165 184.595 97.4219 183.883 94.9715 183.037C94.0273 182.723 93.0831 182.378 92.149 182.012C86.4853 179.823 81.1142 176.941 76.1581 173.433C65.6825 166.057 57.2829 156.108 51.7683 144.544C46.2537 132.98 43.8102 120.191 44.6729 107.409C45.5357 94.6262 49.6757 82.2814 56.6942 71.5633C63.7127 60.8453 73.373 52.1153 84.7447 46.2143C96.1163 40.3134 108.816 37.4404 121.62 37.8721C134.425 38.3039 146.902 42.0257 157.85 48.6792C168.799 55.3327 177.849 64.6936 184.13 75.8601C190.41 87.0265 193.709 99.6222 193.709 112.434Z" fill="#F2F2F2"/>
<path d="M416.993 56.9766H288.051C286.975 56.975 285.943 56.5464 285.183 55.785C284.423 55.0235 283.995 53.9915 283.995 52.9154C283.995 51.8394 284.423 50.8073 285.183 50.0458C285.943 49.2844 286.975 48.8558 288.051 48.8542H416.993C418.07 48.8542 419.103 49.2821 419.865 50.0437C420.627 50.8054 421.055 51.8383 421.055 52.9154C421.055 53.9925 420.627 55.0255 419.865 55.7871C419.103 56.5487 418.07 56.9766 416.993 56.9766Z" fill="#94BBF9"/>
<path d="M416.993 111.803H288.051C286.975 111.801 285.943 111.372 285.183 110.611C284.423 109.85 283.995 108.817 283.995 107.741C283.995 106.665 284.423 105.633 285.183 104.872C285.943 104.11 286.975 103.682 288.051 103.68H416.993C418.069 103.682 419.101 104.11 419.861 104.872C420.622 105.633 421.049 106.665 421.049 107.741C421.049 108.817 420.622 109.85 419.861 110.611C419.101 111.372 418.069 111.801 416.993 111.803Z" fill="#E6E6E6"/>
<path d="M416.993 166.629H288.051C286.975 166.627 285.943 166.198 285.183 165.437C284.423 164.676 283.995 163.643 283.995 162.567C283.995 161.491 284.423 160.459 285.183 159.698C285.943 158.936 286.975 158.508 288.051 158.506H416.993C418.07 158.506 419.103 158.934 419.865 159.696C420.627 160.457 421.055 161.49 421.055 162.567C421.055 163.645 420.627 164.677 419.865 165.439C419.103 166.201 418.07 166.629 416.993 166.629Z" fill="#E6E6E6"/>
<path d="M94.6296 287.785C80.0729 268.423 71.6594 246.772 71.3837 222.087C70.9147 220.757 70.9926 219.295 71.6002 218.022C72.2077 216.749 73.2954 215.769 74.6247 215.297L124.242 197.741C125.572 197.272 127.034 197.35 128.307 197.957C129.58 198.565 130.56 199.653 131.032 200.982L154.277 266.68C154.746 268.011 154.669 269.472 154.061 270.745C153.454 272.018 152.366 272.998 151.037 273.47L101.42 291.026C100.089 291.495 98.6275 291.417 97.3545 290.81C96.0816 290.202 95.1016 289.114 94.6296 287.785Z" fill="#E6E6E6"/>
<path d="M91.4143 266.595C82.6593 257.743 78.9118 241.955 76.4698 224.358C76.0305 223.112 76.1034 221.743 76.6724 220.551C77.2414 219.359 78.2601 218.441 79.5049 217.999L122.146 202.911C123.392 202.472 124.762 202.545 125.954 203.114C127.146 203.683 128.064 204.701 128.506 205.946L149.192 264.409C149.631 265.655 149.558 267.024 148.989 268.216C148.42 269.408 147.401 270.326 146.156 270.768L119.741 280.115C114.191 282.071 108.092 281.746 102.782 279.212C97.4715 276.677 93.3834 272.14 91.4143 266.595Z" fill="white"/>
<path d="M129.077 237.44L95.86 249.297C95.5983 249.39 95.3207 249.431 95.0432 249.418C94.7656 249.404 94.4935 249.335 94.2424 249.216C93.9913 249.097 93.766 248.93 93.5796 248.724C93.3931 248.518 93.249 248.277 93.1556 248.015C93.0622 247.754 93.0213 247.476 93.0351 247.199C93.0489 246.921 93.1173 246.649 93.2363 246.398C93.3553 246.147 93.5226 245.921 93.7287 245.735C93.9347 245.548 94.1755 245.404 94.4372 245.311L127.654 233.454C128.182 233.266 128.764 233.295 129.271 233.535C129.779 233.775 130.17 234.207 130.358 234.736C130.547 235.264 130.518 235.846 130.278 236.354C130.037 236.861 129.605 237.252 129.077 237.44Z" fill="#94BBF9"/>
<path d="M99.2664 235.759L91.9587 238.367C91.6969 238.461 91.4192 238.502 91.1415 238.489C90.8637 238.475 90.5914 238.407 90.34 238.288C90.0887 238.169 89.8633 238.001 89.6766 237.795C89.49 237.589 89.3458 237.348 89.2523 237.086C89.1588 236.825 89.1179 236.547 89.1318 236.269C89.1457 235.991 89.2143 235.719 89.3335 235.468C89.4527 235.217 89.6202 234.991 89.8266 234.805C90.0329 234.618 90.2739 234.474 90.5359 234.381L97.8436 231.773C98.1054 231.679 98.3831 231.638 98.6608 231.651C98.9386 231.665 99.2109 231.733 99.4623 231.852C99.7136 231.971 99.9391 232.139 100.126 232.345C100.312 232.551 100.457 232.792 100.55 233.054C100.643 233.316 100.684 233.593 100.671 233.871C100.657 234.149 100.588 234.421 100.469 234.672C100.35 234.924 100.182 235.149 99.9758 235.335C99.7694 235.522 99.5284 235.666 99.2664 235.759Z" fill="#94BBF9"/>
<path d="M135.332 254.964L102.115 266.82C101.587 267.008 101.005 266.979 100.498 266.739C99.9918 266.498 99.6013 266.066 99.4127 265.538C99.2242 265.01 99.253 264.428 99.4929 263.921C99.7329 263.414 100.164 263.024 100.692 262.834L133.909 250.978C134.437 250.79 135.019 250.819 135.525 251.06C136.032 251.3 136.423 251.732 136.611 252.26C136.8 252.788 136.771 253.37 136.531 253.877C136.291 254.384 135.86 254.775 135.332 254.964Z" fill="#94BBF9"/>
<path d="M132.204 246.202L98.9876 258.059C98.459 258.247 97.8771 258.218 97.37 257.978C96.8628 257.738 96.4719 257.306 96.2832 256.777C96.0945 256.249 96.1236 255.667 96.3639 255.159C96.6043 254.652 97.0362 254.261 97.5648 254.073L130.781 242.216C131.043 242.122 131.321 242.081 131.599 242.095C131.876 242.108 132.149 242.177 132.4 242.296C132.651 242.415 132.877 242.582 133.063 242.788C133.25 242.994 133.394 243.235 133.488 243.497C133.581 243.759 133.622 244.037 133.608 244.314C133.594 244.592 133.526 244.864 133.407 245.116C133.287 245.367 133.12 245.592 132.914 245.778C132.707 245.965 132.466 246.109 132.204 246.202Z" fill="#94BBF9"/>
<path d="M102.042 78.6815C103.123 87.4087 109.171 94.6045 117.965 94.6045C122.188 94.6045 126.238 92.9269 129.224 89.9408C132.21 86.9546 133.888 82.9045 133.888 78.6815C133.888 69.8874 126.721 63.5715 117.965 62.7584C108.674 61.8957 100.653 67.4767 102.042 78.6815Z" fill="#2F2E41"/>
<path d="M131.827 185.951C122.077 187.628 112.091 187.362 102.444 185.17C107.023 182.642 120.912 184.195 131.827 185.951Z" fill="#2F2E41"/>
<path d="M69.8523 213.959L77.5011 195.475L83.5273 198.823L79.888 217.626C80.2524 218.817 80.2774 220.087 79.9601 221.291C79.6427 222.496 78.9956 223.588 78.0915 224.445C77.1874 225.302 76.0622 225.89 74.8423 226.143C73.6224 226.395 72.3562 226.303 71.1861 225.875C70.016 225.448 68.9884 224.702 68.2187 223.723C67.449 222.743 66.9679 221.568 66.8293 220.33C66.6907 219.092 66.9002 217.84 67.4343 216.715C67.9683 215.589 68.8057 214.635 69.8523 213.959Z" fill="#FFB6B6"/>
<path d="M148.975 163.94V163.95C148.701 170.387 148.326 176.509 148.011 181.22C138.86 185.066 129.032 187.044 119.105 187.038C113.499 187.044 107.91 186.417 102.444 185.17C99.9166 184.595 97.4221 183.883 94.9717 183.037C95.3128 182.817 95.6815 182.643 96.0682 182.52C99.7233 181.281 96.1088 180.154 96.1393 178.976C96.251 174.671 97.4389 169.504 98.972 164.549L92.1491 182.012L88.5955 191.089C88.5955 191.089 88.7174 198.927 86.4635 196.531C84.1994 194.135 84.3618 201.891 84.3618 201.891C83.6581 202.393 83.0524 203.019 82.5748 203.739C82.374 204.063 82.2982 204.45 82.3617 204.826V204.836C82.4637 205.131 82.6646 205.382 82.9302 205.547C84.4634 206.582 82.2601 209.323 81.2855 210.41C81.0215 210.704 80.8489 210.877 80.8489 210.877L71.4777 210.207V210.024C71.5183 208.917 71.7721 203.09 73.224 201.699C74.818 200.166 74.0362 197.739 74.0362 197.739C74.0362 197.739 78.1989 194.053 75.4069 191.058C74.2901 189.85 74.7876 182.692 76.1582 173.433C79.1533 153.005 86.3315 122.343 89.4383 122.78C90.0784 119.67 91.5654 116.797 93.735 114.479C95.9047 112.16 98.6727 110.486 101.733 109.642L111.856 106.86L113.663 99.7222H127.918L130.395 104.413L140.782 109.104L140.914 109.165L141.239 109.307L141.361 109.692C141.361 109.692 141.35 109.703 141.361 109.703L147.138 127.846C149.737 130.831 149.635 148.274 148.975 163.94Z" fill="#94BBF9"/>
<path d="M173.249 200.499L163.596 182.978L169.976 180.365L182.382 194.955C183.54 195.415 184.547 196.189 185.289 197.189C186.031 198.19 186.48 199.377 186.584 200.619C186.688 201.86 186.444 203.106 185.879 204.216C185.314 205.327 184.451 206.257 183.386 206.904C182.321 207.55 181.097 207.887 179.851 207.876C178.605 207.864 177.387 207.506 176.334 206.841C175.281 206.175 174.434 205.229 173.889 204.109C173.344 202.989 173.122 201.739 173.249 200.499Z" fill="#FFB6B6"/>
<path d="M140.783 108.964C142.5 112.049 158.203 119.983 155.482 127.949C155.482 127.949 170.234 174.101 172.152 173.8C174.07 173.499 175.942 178.266 175.942 178.266C175.942 178.266 175.535 181.378 176.732 180.085C177.928 178.792 177.642 182.181 177.642 182.181C177.642 182.181 177.069 185.172 178.588 184.359C180.107 183.546 178.11 189.271 178.11 189.271L168.98 193.57L167.245 190.987C167.245 190.987 163.538 190.281 165.282 189.722C167.027 189.163 163.642 187.28 163.642 187.28C163.642 187.28 160.101 184.874 160.594 180.888C161.088 176.903 151.405 169.067 151.405 169.067C144.749 155.925 141.107 142.433 141.12 128.514L140.783 108.964Z" fill="#94BBF9"/>
<path d="M119.725 95.55C127.523 95.55 133.845 89.2283 133.845 81.4302C133.845 73.632 127.523 67.3103 119.725 67.3103C111.927 67.3103 105.605 73.632 105.605 81.4302C105.605 89.2283 111.927 95.55 119.725 95.55Z" fill="#FFB6B6"/>
<path d="M105.104 82.9684C105.551 86.0367 108.166 90.3175 107.554 90.3175C106.941 90.3175 102.587 77.6689 106.941 76.8442C110.1 76.246 110.806 76.7707 113.757 75.4907L113.341 75.8827C115.295 77.3035 118.014 76.4277 120.243 75.503C122.478 74.5843 125.191 73.7086 127.151 75.1233C128.382 76.0113 128.903 77.5546 129.668 78.8652C130.434 80.1819 131.848 81.4251 133.306 81.0209C133.874 80.8015 134.358 80.4076 134.688 79.8959C135.018 79.3843 135.177 78.7811 135.143 78.1732C135.137 76.9606 133.558 75.807 134.09 74.7191C135.666 71.495 134.249 69.2974 130.813 67.7803C129.564 67.5905 128.315 67.3965 127.065 67.1985C127.72 66.2917 128.514 65.4939 129.417 64.8346C129.035 63.856 128.375 63.0107 127.519 62.4032C126.46 61.9112 125.28 61.7408 124.126 61.9133C121.541 62.048 118.959 62.1827 116.379 62.3175C114.457 62.2832 112.549 62.6546 110.781 63.4076C108.65 64.5038 107.253 66.6412 106.237 68.8153C103.959 73.7024 104.32 77.6342 105.104 82.9684Z" fill="#2F2E41"/>
<path d="M458.315 73.7073H245.969C245.736 73.7073 245.511 73.6144 245.346 73.449C245.181 73.2837 245.088 73.0594 245.088 72.8256C245.088 72.5918 245.181 72.3676 245.346 72.2022C245.511 72.0369 245.736 71.944 245.969 71.944H458.315C458.548 71.944 458.773 72.0369 458.938 72.2022C459.103 72.3676 459.196 72.5918 459.196 72.8256C459.196 73.0594 459.103 73.2837 458.938 73.449C458.773 73.6144 458.548 73.7073 458.315 73.7073Z" fill="#E6E6E6"/>
<path d="M458.315 128.369H245.969C245.736 128.369 245.511 128.277 245.346 128.111C245.181 127.946 245.088 127.722 245.088 127.488C245.088 127.254 245.181 127.03 245.346 126.864C245.511 126.699 245.736 126.606 245.969 126.606H458.315C458.548 126.606 458.773 126.699 458.938 126.864C459.103 127.03 459.196 127.254 459.196 127.488C459.196 127.722 459.103 127.946 458.938 128.111C458.773 128.277 458.548 128.369 458.315 128.369Z" fill="#E6E6E6"/>
<path d="M458.315 183.031H245.969C245.736 183.031 245.511 182.938 245.346 182.773C245.181 182.608 245.088 182.383 245.088 182.149C245.088 181.916 245.181 181.691 245.346 181.526C245.511 181.361 245.736 181.268 245.969 181.268H458.315C458.548 181.268 458.773 181.361 458.938 181.526C459.103 181.691 459.196 181.916 459.196 182.149C459.196 182.383 459.103 182.608 458.938 182.773C458.773 182.938 458.548 183.031 458.315 183.031Z" fill="#E6E6E6"/>
</svg>
