<svg width="659" height="327" viewBox="0 0 659 327" fill="none" xmlns="http://www.w3.org/2000/svg">
<path d="M592.517 71.2083C583.253 67.5224 579.038 70.59 575.672 67.5224C572.307 64.4548 584.936 56.4886 559.661 48.4986C559.661 48.4986 558.027 31.3297 523.439 30.6638C488.851 29.998 498.164 47.8328 488.884 52.0656C479.604 56.2984 477.087 49.6163 467.824 53.9085C458.56 58.2007 462.775 66.7852 455.194 68.0099C447.613 69.2345 437.5 62.493 428.22 66.8209C418.94 71.1488 418.956 74.7871 414.741 74.7871C410.526 74.7871 402.111 72.3378 397.047 74.7871C391.982 77.2364 386.1 80.304 386.1 80.304H599.265C599.265 80.304 601.764 74.8822 592.517 71.2083Z" fill="white"/>
<path d="M173.523 114.309C167.805 112.038 165.207 113.929 163.132 112.038C161.057 110.148 168.851 105.237 153.329 100.327C153.329 100.327 152.3 89.7446 130.995 89.3641C109.69 88.9836 115.408 99.9461 109.755 102.598C104.102 105.249 102.485 101.076 96.6846 103.786C90.8846 106.497 93.564 111.729 88.8913 112.478C84.2186 113.227 77.9774 109.077 72.2753 111.729C66.5733 114.38 66.557 116.639 63.9592 116.639C61.3614 116.639 56.1659 115.129 53.0453 116.639C49.9247 118.149 46.2649 119.969 46.2649 119.969H177.673C177.673 119.969 179.242 116.568 173.523 114.309Z" fill="white"/>
<path d="M326.465 141.882L306.843 240.793H330.354L350.858 141.882H326.465Z" fill="#263238" stroke="#263238" stroke-miterlimit="10"/>
<path d="M336.285 141.882L316.662 240.793H331.351L351.839 141.882H336.285Z" fill="white" stroke="#263238" stroke-miterlimit="10"/>
<path d="M470.781 149.467H454.573V240.032H470.781V149.467Z" fill="white" stroke="#263238" stroke-miterlimit="10"/>
<path d="M464.148 149.467H447.94V240.032H464.148V149.467Z" fill="#263238" stroke="#263238" stroke-miterlimit="10"/>
<path d="M565.771 149.467H549.564V240.032H565.771V149.467Z" fill="white" stroke="#263238" stroke-miterlimit="10"/>
<path d="M559.138 149.467H542.93V240.032H559.138V149.467Z" fill="#263238" stroke="#263238" stroke-miterlimit="10"/>
<path d="M529.043 99.09H461.19V141.965H529.043V99.09Z" fill="#263238" stroke="#263238" stroke-miterlimit="10"/>
<path d="M591.537 99.09H523.684V141.965H591.537V99.09Z" fill="white" stroke="#263238" stroke-miterlimit="10"/>
<path d="M602.598 141.882H485.534V157.505H602.598V141.882Z" fill="white" stroke="#263238" stroke-miterlimit="10"/>
<path d="M358.325 146.317L415.819 61.9936L429.772 64.5262L373.127 146.959L358.325 146.317Z" fill="white" stroke="#263238" stroke-miterlimit="10"/>
<path d="M349.6 146.317L407.111 61.9936L421.047 64.5262L364.419 146.959L349.6 146.317Z" fill="#263238" stroke="#263238" stroke-miterlimit="10"/>
<path d="M483.786 146.317L426.276 61.9936L406.114 64.5262L462.742 146.959L483.786 146.317Z" fill="#263238" stroke="#263238" stroke-miterlimit="10"/>
<path d="M492.494 146.317L435 61.9936L421.047 64.5262L477.692 146.959L492.494 146.317Z" fill="white" stroke="#263238" stroke-miterlimit="10"/>
<path d="M306.761 180.226L320.878 190.297C323.179 191.938 325.926 193.211 328.942 194.035C331.957 194.859 335.176 195.217 338.393 195.085C341.609 194.953 344.753 194.334 347.622 193.268C350.491 192.202 353.024 190.713 355.057 188.894L371.281 174.353L382.424 185.208C384.546 187.282 387.296 188.972 390.46 190.148C393.625 191.324 397.118 191.954 400.671 191.99C404.224 192.026 407.74 191.466 410.948 190.354C414.155 189.242 416.968 187.607 419.168 185.577L430.867 174.805L440.67 184.4C442.795 186.497 445.56 188.208 448.747 189.397C451.935 190.585 455.457 191.22 459.038 191.251C462.619 191.282 466.162 190.709 469.387 189.576C472.612 188.443 475.433 186.781 477.627 184.721L488.655 174.353" stroke="#263238" stroke-miterlimit="10"/>
<path d="M270.458 183.615H258.351L243.451 172.546H263.318L270.458 183.615Z" fill="#263238" stroke="#263238" stroke-miterlimit="10"/>
<path d="M256.489 173.449L270.458 183.615H311.107V173.449H256.489Z" fill="white" stroke="#263238" stroke-miterlimit="10"/>
<path d="M552.619 161.536H232.864V174.222H552.619V161.536Z" fill="#263238" stroke="#263238" stroke-miterlimit="10"/>
<path d="M651.645 161.536H249.414V174.222H651.645V161.536Z" fill="white" stroke="#263238" stroke-miterlimit="10"/>
<path d="M501.905 141.882H376.624V154.568H501.905V141.882Z" fill="white" stroke="#263238" stroke-miterlimit="10"/>
<path d="M483.296 154.568H333.703L336.285 141.882H485.534L483.296 154.568Z" fill="white" stroke="#263238" stroke-miterlimit="10"/>
<path d="M446.323 52.4818H401.801V68.331H446.323V52.4818Z" fill="white" stroke="#263238" stroke-miterlimit="10"/>
<path d="M432.468 52.4818H392.308V68.331H432.468V52.4818Z" fill="#263238" stroke="#263238" stroke-miterlimit="10"/>
<path d="M485.534 141.882L465.896 240.793H489.423L509.927 141.882H485.534Z" fill="#263238" stroke="#263238" stroke-miterlimit="10"/>
<path d="M495.354 141.882L475.715 240.793H490.403L510.908 141.882H495.354Z" fill="white" stroke="#263238" stroke-miterlimit="10"/>
<path d="M544.417 114.63H535.578V123.738H544.417V114.63Z" fill="#263238" stroke="#263238" stroke-miterlimit="10"/>
<path d="M584.168 114.63H575.329V123.738H584.168V114.63Z" fill="#263238" stroke="#263238" stroke-miterlimit="10"/>
<path d="M418.695 52.8266L249.414 161.536H236.589L406.016 52.8266H418.695Z" fill="#263238" stroke="#263238" stroke-miterlimit="10"/>
<path d="M425.508 52.8266L256.227 161.536H243.402L412.829 52.8266H425.508Z" fill="white" stroke="#263238" stroke-miterlimit="10"/>
<path d="M105.083 159.491H110.082V132.346C110.082 131.864 109.819 131.401 109.35 131.06C108.881 130.719 108.245 130.527 107.582 130.527C106.919 130.527 106.284 130.719 105.815 131.06C105.346 131.401 105.083 131.864 105.083 132.346V159.491Z" fill="#94BBF9" stroke="#263238" stroke-miterlimit="10"/>
<path d="M158.133 159.491H163.149V132.346C163.144 131.862 162.877 131.4 162.406 131.059C161.935 130.718 161.297 130.527 160.633 130.527C159.971 130.53 159.338 130.723 158.87 131.063C158.402 131.404 158.137 131.864 158.133 132.346V159.491Z" fill="#94BBF9" stroke="#263238" stroke-miterlimit="10"/>
<path d="M136.256 126.877H138.413C139.076 126.877 139.711 127.068 140.18 127.409C140.649 127.751 140.912 128.213 140.912 128.696V159.491H133.756V128.696C133.756 128.213 134.02 127.751 134.488 127.409C134.957 127.068 135.593 126.877 136.256 126.877Z" fill="#94BBF9" stroke="#263238" stroke-miterlimit="10"/>
<path d="M205.481 159.467H171.367H96.7828H62.6686V180.262H96.7828V213.161H171.367V180.262H205.481V159.467Z" fill="#263238" stroke="#263238" stroke-miterlimit="10"/>
<path d="M213.748 159.467H179.634H105.066H70.952V180.262H105.066V213.161H179.634V180.262H213.748V159.467Z" fill="white" stroke="#263238" stroke-miterlimit="10"/>
<path d="M213.764 165.828H70.952V173.913H213.764V165.828Z" fill="#263238" stroke="#263238" stroke-miterlimit="10"/>
<path d="M70.9521 159.491V154.972C70.9499 154.729 71.0138 154.488 71.1401 154.264C71.2664 154.039 71.4526 153.834 71.688 153.662C71.9234 153.489 72.2033 153.352 72.5116 153.259C72.8199 153.166 73.1506 153.118 73.4845 153.118H211.281C211.615 153.118 211.946 153.166 212.254 153.259C212.562 153.352 212.842 153.489 213.078 153.662C213.313 153.834 213.499 154.039 213.625 154.264C213.752 154.488 213.816 154.729 213.813 154.972V159.491" stroke="#263238" stroke-miterlimit="10"/>
<path d="M80.2812 159.526V153.308" stroke="#263238" stroke-miterlimit="10"/>
<path d="M90.6396 159.526V153.308" stroke="#263238" stroke-miterlimit="10"/>
<path d="M100.998 159.526V153.308" stroke="#263238" stroke-miterlimit="10"/>
<path d="M111.373 159.526V153.308" stroke="#263238" stroke-miterlimit="10"/>
<path d="M121.731 159.526V153.308" stroke="#263238" stroke-miterlimit="10"/>
<path d="M132.09 159.526V153.308" stroke="#263238" stroke-miterlimit="10"/>
<path d="M142.448 159.526V153.308" stroke="#263238" stroke-miterlimit="10"/>
<path d="M152.807 159.526V153.308" stroke="#263238" stroke-miterlimit="10"/>
<path d="M163.165 159.526V153.308" stroke="#263238" stroke-miterlimit="10"/>
<path d="M173.523 159.526V153.308" stroke="#263238" stroke-miterlimit="10"/>
<path d="M183.882 159.526V153.308" stroke="#263238" stroke-miterlimit="10"/>
<path d="M194.24 159.526V153.308" stroke="#263238" stroke-miterlimit="10"/>
<path d="M204.615 159.526V153.308" stroke="#263238" stroke-miterlimit="10"/>
<path d="M116.519 181.154H112.941V186.897H116.519V181.154Z" fill="#263238"/>
<path d="M124.77 181.154H121.192V186.897H124.77V181.154Z" fill="#263238"/>
<path d="M116.519 197.574H112.941V203.317H116.519V197.574Z" fill="#263238"/>
<path d="M124.77 197.574H121.192V203.317H124.77V197.574Z" fill="#263238"/>
<path d="M149.882 197.574H146.304V203.317H149.882V197.574Z" fill="#263238"/>
<path d="M158.133 197.574H154.555V203.317H158.133V197.574Z" fill="#263238"/>
<path d="M153.46 181.154H149.882V186.897H153.46V181.154Z" fill="#263238"/>
<path d="M117.238 245.359H77.7325V264.145H117.238V245.359Z" fill="white" stroke="#263238" stroke-miterlimit="10"/>
<path d="M97.224 245.359H57.7181V264.145H97.224V245.359Z" fill="#94BBF9" stroke="#263238" stroke-miterlimit="10"/>
<path d="M117.238 226.561H77.7325V245.347H117.238V226.561Z" fill="white" stroke="#263238" stroke-miterlimit="10"/>
<path d="M97.224 226.561H57.7181V245.347H97.224V226.561Z" fill="#263238" stroke="#263238" stroke-miterlimit="10"/>
<path d="M117.238 207.775H77.7325V226.561H117.238V207.775Z" fill="white" stroke="#263238" stroke-miterlimit="10"/>
<path d="M97.224 207.775H57.7181V226.561H97.224V207.775Z" fill="#94BBF9" stroke="#263238" stroke-miterlimit="10"/>
<path d="M474.408 188.549H409.202V211.949H474.408V188.549Z" fill="white" stroke="#263238" stroke-miterlimit="10"/>
<path d="M441.356 188.549H376.15V211.949H441.356V188.549Z" fill="#263238" stroke="#263238" stroke-miterlimit="10"/>
<path d="M459.622 193.971V189.465C459.701 188.923 460.068 188.425 460.645 188.078C461.223 187.732 461.964 187.563 462.71 187.61H630.536C631.282 187.563 632.023 187.732 632.601 188.078C633.178 188.425 633.545 188.923 633.624 189.465V193.971" stroke="#263238" stroke-miterlimit="10"/>
<path d="M471.042 193.983V187.753" stroke="#263238" stroke-miterlimit="10"/>
<path d="M483.672 193.983V187.753" stroke="#263238" stroke-miterlimit="10"/>
<path d="M496.285 193.983V187.753" stroke="#263238" stroke-miterlimit="10"/>
<path d="M508.914 193.983V187.753" stroke="#263238" stroke-miterlimit="10"/>
<path d="M521.527 193.983V187.753" stroke="#263238" stroke-miterlimit="10"/>
<path d="M534.141 193.983V187.753" stroke="#263238" stroke-miterlimit="10"/>
<path d="M546.77 193.983V187.753" stroke="#263238" stroke-miterlimit="10"/>
<path d="M559.383 193.983V187.753" stroke="#263238" stroke-miterlimit="10"/>
<path d="M572.013 193.983V187.753" stroke="#263238" stroke-miterlimit="10"/>
<path d="M584.626 193.983V187.753" stroke="#263238" stroke-miterlimit="10"/>
<path d="M597.255 193.983V187.753" stroke="#263238" stroke-miterlimit="10"/>
<path d="M609.868 193.983V187.753" stroke="#263238" stroke-miterlimit="10"/>
<path d="M622.481 193.983V187.753" stroke="#263238" stroke-miterlimit="10"/>
<path d="M181.088 249.532H128.724V268.318H181.088V249.532Z" fill="white" stroke="#263238" stroke-miterlimit="10"/>
<path d="M154.538 249.532H102.174V268.318H154.538V249.532Z" fill="white" stroke="#263238" stroke-miterlimit="10"/>
<path d="M181.088 230.746H128.724V249.532H181.088V230.746Z" fill="white" stroke="#263238" stroke-miterlimit="10"/>
<path d="M154.538 230.746H102.174V249.532H154.538V230.746Z" fill="#94BBF9" stroke="#263238" stroke-miterlimit="10"/>
<path d="M181.088 211.949H128.724V230.735H181.088V211.949Z" fill="white" stroke="#263238" stroke-miterlimit="10"/>
<path d="M154.538 211.949H102.174V230.735H154.538V211.949Z" fill="#263238" stroke="#263238" stroke-miterlimit="10"/>
<path d="M266.063 198.382H231.083V212.995H266.063V198.382Z" fill="white" stroke="#263238" stroke-miterlimit="10"/>
<path d="M248.32 198.382H213.34V212.995H248.32V198.382Z" fill="#263238" stroke="#263238" stroke-miterlimit="10"/>
<path d="M240.951 198.382H205.971V212.995H240.951V198.382Z" fill="white" stroke="#263238" stroke-miterlimit="10"/>
<path d="M223.224 198.382H188.244V212.995H223.224V198.382Z" fill="#94BBF9" stroke="#263238" stroke-miterlimit="10"/>
<path d="M309.457 211.949H257.093V230.735H309.457V211.949Z" fill="white" stroke="#263238" stroke-miterlimit="10"/>
<path d="M282.924 211.949H230.56V230.735H282.924V211.949Z" fill="#94BBF9" stroke="#263238" stroke-miterlimit="10"/>
<path d="M244.203 249.532H191.839V268.318H244.203V249.532Z" fill="white" stroke="#263238" stroke-miterlimit="10"/>
<path d="M217.653 249.532H165.289V268.318H217.653V249.532Z" fill="#94BBF9" stroke="#263238" stroke-miterlimit="10"/>
<path d="M244.203 230.746H191.839V249.532H244.203V230.746Z" fill="white" stroke="#263238" stroke-miterlimit="10"/>
<path d="M217.653 230.746H165.289V249.532H217.653V230.746Z" fill="#263238" stroke="#263238" stroke-miterlimit="10"/>
<path d="M309.457 249.532H257.093V268.318H309.457V249.532Z" fill="white" stroke="#263238" stroke-miterlimit="10"/>
<path d="M282.924 249.532H230.56V268.318H282.924V249.532Z" fill="#94BBF9" stroke="#263238" stroke-miterlimit="10"/>
<path d="M309.457 230.746H257.093V249.532H309.457V230.746Z" fill="white" stroke="#263238" stroke-miterlimit="10"/>
<path d="M282.924 230.746H230.56V249.532H282.924V230.746Z" fill="#94BBF9" stroke="#263238" stroke-miterlimit="10"/>
<path d="M244.203 211.949H191.839V230.735H244.203V211.949Z" fill="white" stroke="#263238" stroke-miterlimit="10"/>
<path d="M217.653 211.949H165.289V230.735H217.653V211.949Z" fill="#263238" stroke="#263238" stroke-miterlimit="10"/>
<path d="M376.166 249.532H323.802V268.318H376.166V249.532Z" fill="white" stroke="#263238" stroke-miterlimit="10"/>
<path d="M349.6 249.532H297.253V268.318H349.6V249.532Z" fill="#263238" stroke="#263238" stroke-miterlimit="10"/>
<path d="M376.166 230.746H323.802V249.532H376.166V230.746Z" fill="white" stroke="#263238" stroke-miterlimit="10"/>
<path d="M349.6 230.746H297.253V249.532H349.6V230.746Z" fill="#263238" stroke="#263238" stroke-miterlimit="10"/>
<path d="M376.166 211.949H323.802V230.735H376.166V211.949Z" fill="white" stroke="#263238" stroke-miterlimit="10"/>
<path d="M349.6 211.949H297.253V230.735H349.6V211.949Z" fill="#94BBF9" stroke="#263238" stroke-miterlimit="10"/>
<path d="M443.578 249.532H391.214V268.318H443.578V249.532Z" fill="white" stroke="#263238" stroke-miterlimit="10"/>
<path d="M417.045 249.532H364.681V268.318H417.045V249.532Z" fill="white" stroke="#263238" stroke-miterlimit="10"/>
<path d="M443.578 230.746H391.214V249.532H443.578V230.746Z" fill="#94BBF9" stroke="#263238" stroke-miterlimit="10"/>
<path d="M417.045 230.746H364.681V249.532H417.045V230.746Z" fill="#94BBF9" stroke="#263238" stroke-miterlimit="10"/>
<path d="M443.578 211.949H391.214V230.735H443.578V211.949Z" fill="#94BBF9" stroke="#263238" stroke-miterlimit="10"/>
<path d="M417.045 211.949H364.681V230.735H417.045V211.949Z" fill="#263238" stroke="#263238" stroke-miterlimit="10"/>
<path d="M443.578 212.995L460.063 194.209H633.624L647.969 215.599H442.14L443.578 212.995Z" fill="#94BBF9" stroke="#263238" stroke-miterlimit="10"/>
<path d="M113.301 266.88H107.386L107.975 251.613H112.713L113.301 266.88Z" fill="white" stroke="#263238" stroke-miterlimit="10"/>
<path d="M140.733 266.88H134.818L135.406 251.613H140.144L140.733 266.88Z" fill="white" stroke="#263238" stroke-miterlimit="10"/>
<path d="M168.165 266.88H162.25L162.838 251.613H167.576L168.165 266.88Z" fill="white" stroke="#263238" stroke-miterlimit="10"/>
<path d="M195.596 266.88H189.682L190.27 251.613H195.008L195.596 266.88Z" fill="white" stroke="#263238" stroke-miterlimit="10"/>
<path d="M223.028 266.88H217.114L217.702 251.613H222.44L223.028 266.88Z" fill="white" stroke="#263238" stroke-miterlimit="10"/>
<path d="M250.46 266.88H244.546L245.134 251.613H249.872L250.46 266.88Z" fill="white" stroke="#263238" stroke-miterlimit="10"/>
<path d="M277.892 266.88H271.978L272.566 251.613H277.304L277.892 266.88Z" fill="white" stroke="#263238" stroke-miterlimit="10"/>
<path d="M305.324 266.88H299.409L299.998 251.613H304.736L305.324 266.88Z" fill="white" stroke="#263238" stroke-miterlimit="10"/>
<path d="M332.756 266.88H326.841L327.429 251.613H332.168L332.756 266.88Z" fill="white" stroke="#263238" stroke-miterlimit="10"/>
<path d="M657.314 212.995H443.578L415.509 238.57H363.962L356.936 264.121H330.24L329.749 251.589H325.011L324.538 264.121H302.775L302.285 251.589H297.547L297.057 264.121H275.376L274.886 251.589H270.099L269.608 264.121H247.879L247.405 251.589H242.667L242.177 264.121H220.447L219.973 251.589H215.235L214.745 264.121H193.015L192.541 251.589H187.803L187.313 264.121H165.583L165.109 251.589H160.371L159.881 264.121H138.151L137.661 251.589H132.939L132.449 264.121H110.719L110.229 251.589H105.507L105.083 264.121H87.1106V238.047H44.092V256.619C44.1083 261.497 46.4141 266.225 50.6273 270.019L58.5187 277.153H595.621L600.212 272.397C606.388 266.154 617.825 255.251 628.608 248.474C644.391 238.57 660.174 220.818 657.314 212.995Z" fill="#263238" stroke="#263238" stroke-miterlimit="10"/>
<path d="M628.608 248.486C644.391 238.57 660.174 220.818 657.298 212.995H621.468C616.861 221.377 610.652 231.721 602.794 242.72C583.417 269.864 595.621 277.2 595.621 277.2L600.212 272.444C606.388 266.166 617.825 255.263 628.608 248.486Z" fill="white" stroke="#263238" stroke-miterlimit="10"/>
<path d="M629.735 285.749H645.73" stroke="#263238" stroke-miterlimit="10"/>
<path d="M457.351 285.749H611.257" stroke="#263238" stroke-miterlimit="10"/>
<path d="M404.399 285.749H442.565" stroke="#263238" stroke-miterlimit="10"/>
<path d="M270.18 285.749H387.162" stroke="#263238" stroke-miterlimit="10"/>
<path d="M80.5588 285.749H252.943" stroke="#263238" stroke-miterlimit="10"/>
<path d="M27.623 285.749H62.0966" stroke="#263238" stroke-miterlimit="10"/>
<path d="M622.334 308.149H638.346" stroke="#263238" stroke-miterlimit="10"/>
<path d="M449.966 308.149H603.872" stroke="#263238" stroke-miterlimit="10"/>
<path d="M397.014 308.149H435.18" stroke="#263238" stroke-miterlimit="10"/>
<path d="M262.795 308.149H379.777" stroke="#263238" stroke-miterlimit="10"/>
<path d="M73.174 308.149H245.558" stroke="#263238" stroke-miterlimit="10"/>
<path d="M20.2381 308.149H54.7117" stroke="#263238" stroke-miterlimit="10"/>
<path d="M124.443 326.067H112.582" stroke="#263238" stroke-miterlimit="10"/>
<path d="M252.192 326.067H138.135" stroke="#263238" stroke-miterlimit="10"/>
<path d="M291.42 326.067H263.138" stroke="#263238" stroke-miterlimit="10"/>
<path d="M390.871 326.067H304.196" stroke="#263238" stroke-miterlimit="10"/>
<path d="M531.396 326.067H403.647" stroke="#263238" stroke-miterlimit="10"/>
<path d="M570.624 326.067H545.071" stroke="#263238" stroke-miterlimit="10"/>
<path d="M83.32 296.497H69.4815" stroke="#263238" stroke-miterlimit="10"/>
<path d="M232.357 296.497H99.2987" stroke="#263238" stroke-miterlimit="10"/>
<path d="M278.137 296.497H245.134" stroke="#263238" stroke-miterlimit="10"/>
<path d="M394.155 296.497H293.037" stroke="#263238" stroke-miterlimit="10"/>
<path d="M558.092 296.497H409.071" stroke="#263238" stroke-miterlimit="10"/>
<path d="M603.872 296.497H574.071" stroke="#263238" stroke-miterlimit="10"/>
<path d="M56.2312 291.123H42.3928" stroke="#263238" stroke-miterlimit="10"/>
<path d="M205.269 291.123H72.21" stroke="#263238" stroke-miterlimit="10"/>
<path d="M251.048 291.123H218.045" stroke="#263238" stroke-miterlimit="10"/>
<path d="M367.066 291.123H265.949" stroke="#263238" stroke-miterlimit="10"/>
<path d="M531.003 291.123H381.983" stroke="#263238" stroke-miterlimit="10"/>
<path d="M576.783 291.123H546.982" stroke="#263238" stroke-miterlimit="10"/>
<path d="M71.0173 281.266H57.1788" stroke="#263238" stroke-miterlimit="10"/>
<path d="M220.038 281.266H86.9797" stroke="#263238" stroke-miterlimit="10"/>
<path d="M265.818 281.266H232.815" stroke="#263238" stroke-miterlimit="10"/>
<path d="M381.852 281.266H280.718" stroke="#263238" stroke-miterlimit="10"/>
<path d="M545.79 281.266H396.752" stroke="#263238" stroke-miterlimit="10"/>
<path d="M591.553 281.266H561.752" stroke="#263238" stroke-miterlimit="10"/>
</svg>
