<svg width="193" height="48" viewBox="0 0 193 48" fill="none" xmlns="http://www.w3.org/2000/svg">
<path d="M49.056 26.136C49.056 24.3013 49.4293 22.7013 50.176 21.336C50.9227 19.9493 51.9573 18.8827 53.28 18.136C54.6027 17.368 56.1173 16.984 57.824 16.984C60.0213 16.984 61.8347 17.5387 63.264 18.648C64.7147 19.736 65.6853 21.272 66.176 23.256H61.344C61.088 22.488 60.6507 21.8907 60.032 21.464C59.4347 21.016 58.688 20.792 57.792 20.792C56.512 20.792 55.4987 21.2613 54.752 22.2C54.0053 23.1173 53.632 24.4293 53.632 26.136C53.632 27.8213 54.0053 29.1333 54.752 30.072C55.4987 30.9893 56.512 31.448 57.792 31.448C59.6053 31.448 60.7893 30.6373 61.344 29.016H66.176C65.6853 30.936 64.7147 32.4613 63.264 33.592C61.8133 34.7227 60 35.288 57.824 35.288C56.1173 35.288 54.6027 34.9147 53.28 34.168C51.9573 33.4 50.9227 32.3333 50.176 30.968C49.4293 29.5813 49.056 27.9707 49.056 26.136ZM68.306 26.072C68.306 24.28 68.658 22.6907 69.362 21.304C70.0873 19.9173 71.058 18.8507 72.274 18.104C73.5113 17.3573 74.8873 16.984 76.402 16.984C77.7247 16.984 78.8767 17.2507 79.858 17.784C80.8607 18.3173 81.6607 18.9893 82.258 19.8V17.272H86.77V35H82.258V32.408C81.682 33.24 80.882 33.9333 79.858 34.488C78.8553 35.0213 77.6927 35.288 76.37 35.288C74.8767 35.288 73.5113 34.904 72.274 34.136C71.058 33.368 70.0873 32.2907 69.362 30.904C68.658 29.496 68.306 27.8853 68.306 26.072ZM82.258 26.136C82.258 25.048 82.0447 24.12 81.618 23.352C81.1913 22.5627 80.6153 21.9653 79.89 21.56C79.1647 21.1333 78.386 20.92 77.554 20.92C76.722 20.92 75.954 21.1227 75.25 21.528C74.546 21.9333 73.97 22.5307 73.522 23.32C73.0953 24.088 72.882 25.0053 72.882 26.072C72.882 27.1387 73.0953 28.0773 73.522 28.888C73.97 29.6773 74.546 30.2853 75.25 30.712C75.9753 31.1387 76.7433 31.352 77.554 31.352C78.386 31.352 79.1647 31.1493 79.89 30.744C80.6153 30.3173 81.1913 29.72 81.618 28.952C82.0447 28.1627 82.258 27.224 82.258 26.136ZM113.162 17.016C115.338 17.016 117.087 17.688 118.41 19.032C119.754 20.3547 120.426 22.2107 120.426 24.6V35H115.946V25.208C115.946 23.8213 115.594 22.7653 114.89 22.04C114.186 21.2933 113.226 20.92 112.01 20.92C110.794 20.92 109.823 21.2933 109.098 22.04C108.394 22.7653 108.042 23.8213 108.042 25.208V35H103.562V25.208C103.562 23.8213 103.21 22.7653 102.506 22.04C101.802 21.2933 100.842 20.92 99.6255 20.92C98.3882 20.92 97.4068 21.2933 96.6815 22.04C95.9775 22.7653 95.6255 23.8213 95.6255 25.208V35H91.1455V17.272H95.6255V19.416C96.2015 18.6693 96.9375 18.0827 97.8335 17.656C98.7508 17.2293 99.7535 17.016 100.842 17.016C102.228 17.016 103.466 17.3147 104.554 17.912C105.642 18.488 106.484 19.32 107.082 20.408C107.658 19.384 108.49 18.5627 109.578 17.944C110.687 17.3253 111.882 17.016 113.162 17.016ZM129.893 20.952V29.528C129.893 30.1253 130.031 30.5627 130.309 30.84C130.607 31.096 131.098 31.224 131.781 31.224H133.861V35H131.045C127.269 35 125.381 33.1653 125.381 29.496V20.952H123.269V17.272H125.381V12.888H129.893V17.272H133.861V20.952H129.893ZM144.955 35.288C143.248 35.288 141.712 34.9147 140.347 34.168C138.982 33.4 137.904 32.3227 137.115 30.936C136.347 29.5493 135.963 27.9493 135.963 26.136C135.963 24.3227 136.358 22.7227 137.147 21.336C137.958 19.9493 139.056 18.8827 140.443 18.136C141.83 17.368 143.376 16.984 145.083 16.984C146.79 16.984 148.336 17.368 149.723 18.136C151.11 18.8827 152.198 19.9493 152.987 21.336C153.798 22.7227 154.203 24.3227 154.203 26.136C154.203 27.9493 153.787 29.5493 152.955 30.936C152.144 32.3227 151.035 33.4 149.627 34.168C148.24 34.9147 146.683 35.288 144.955 35.288ZM144.955 31.384C145.766 31.384 146.523 31.192 147.227 30.808C147.952 30.4027 148.528 29.8053 148.955 29.016C149.382 28.2267 149.595 27.2667 149.595 26.136C149.595 24.4507 149.147 23.16 148.251 22.264C147.376 21.3467 146.299 20.888 145.019 20.888C143.739 20.888 142.662 21.3467 141.787 22.264C140.934 23.16 140.507 24.4507 140.507 26.136C140.507 27.8213 140.923 29.1227 141.755 30.04C142.608 30.936 143.675 31.384 144.955 31.384ZM179.505 17.016C181.681 17.016 183.431 17.688 184.753 19.032C186.097 20.3547 186.769 22.2107 186.769 24.6V35H182.289V25.208C182.289 23.8213 181.937 22.7653 181.233 22.04C180.529 21.2933 179.569 20.92 178.353 20.92C177.137 20.92 176.167 21.2933 175.441 22.04C174.737 22.7653 174.385 23.8213 174.385 25.208V35H169.905V25.208C169.905 23.8213 169.553 22.7653 168.849 22.04C168.145 21.2933 167.185 20.92 165.969 20.92C164.732 20.92 163.751 21.2933 163.025 22.04C162.321 22.7653 161.969 23.8213 161.969 25.208V35H157.489V17.272H161.969V19.416C162.545 18.6693 163.281 18.0827 164.177 17.656C165.095 17.2293 166.097 17.016 167.185 17.016C168.572 17.016 169.809 17.3147 170.897 17.912C171.985 18.488 172.828 19.32 173.425 20.408C174.001 19.384 174.833 18.5627 175.921 17.944C177.031 17.3253 178.225 17.016 179.505 17.016Z" fill="#E8F1F5"/>
<path d="M31.2502 12.6887L39.2793 18.62V32.3144L31.2502 27.624V12.6887Z" fill="#E8F1F5" stroke="#004A7C" stroke-miterlimit="10"/>
<path d="M10.4131 24.5882V39.4571L2 33.5258V20.0677L10.4131 24.5882Z" fill="#E8F1F5" stroke="#004A7C" stroke-miterlimit="10"/>
<path d="M14.4315 46.5259L39.2795 32.3144L31.2504 27.624L10.4133 39.4571L14.4315 46.5259Z" fill="#E8F1F5" stroke="#004A7C" stroke-miterlimit="10"/>
<path d="M31.2502 12.6887L26.8553 5.61984L2 20.0677L10.4131 24.5882L31.2502 12.6887Z" fill="#E8F1F5" stroke="#004A7C" stroke-miterlimit="10"/>
</svg>
