<svg width="296" height="265" viewBox="0 0 296 265" fill="none" xmlns="http://www.w3.org/2000/svg">
<g clip-path="url(#clip0_711_970)">
<path d="M292.617 101.341C292.511 101.341 292.408 101.309 292.322 101.249L149.09 1.49783C148.654 1.19568 148.136 1.03421 147.606 1.03512C147.075 1.03602 146.558 1.19926 146.123 1.50289L3.92289 101.248C3.81041 101.326 3.67121 101.357 3.53589 101.334C3.40058 101.31 3.28023 101.233 3.20134 101.121C3.12245 101.008 3.09147 100.869 3.11522 100.734C3.13897 100.599 3.2155 100.478 3.32798 100.399L145.528 0.654714C146.137 0.229694 146.861 0.00122517 147.604 4.91368e-06C148.346 -0.00121534 149.072 0.22487 149.682 0.647887L292.914 100.398C293.004 100.461 293.072 100.552 293.108 100.656C293.143 100.76 293.145 100.873 293.112 100.979C293.078 101.084 293.013 101.176 292.924 101.241C292.835 101.306 292.727 101.341 292.617 101.341Z" fill="#3F3D56"/>
<path d="M12.0488 104.877L147.747 4.30859L284.474 112.033L154.738 188.942L84.3031 172.887L12.0488 104.877Z" fill="#E6E6E6"/>
<path d="M90.2483 236.446H23.2102C22.7986 236.447 22.3909 236.366 22.0104 236.209C21.63 236.052 21.2842 235.821 20.993 235.53C20.7017 235.239 20.4707 234.894 20.313 234.514C20.1554 234.133 20.0742 233.726 20.0742 233.314C20.0742 232.902 20.1554 232.495 20.313 232.115C20.4707 231.734 20.7017 231.389 20.993 231.098C21.2842 230.807 21.63 230.577 22.0104 230.419C22.3909 230.262 22.7986 230.182 23.2102 230.182H90.2483C90.6599 230.182 91.0676 230.262 91.4481 230.419C91.8285 230.577 92.1742 230.807 92.4655 231.098C92.7568 231.389 92.9878 231.734 93.1455 232.115C93.3031 232.495 93.3843 232.902 93.3843 233.314C93.3843 233.726 93.3031 234.133 93.1455 234.514C92.9878 234.894 92.7568 235.239 92.4655 235.53C92.1742 235.821 91.8285 236.052 91.4481 236.209C91.0676 236.366 90.6599 236.447 90.2483 236.446Z" fill="#94BBF9"/>
<path d="M47.262 222.98H23.2102C22.7986 222.981 22.3909 222.9 22.0104 222.743C21.63 222.586 21.2842 222.355 20.993 222.064C20.7017 221.773 20.4707 221.428 20.313 221.048C20.1554 220.668 20.0742 220.26 20.0742 219.848C20.0742 219.437 20.1554 219.029 20.313 218.649C20.4707 218.269 20.7017 217.923 20.993 217.632C21.2842 217.341 21.63 217.111 22.0104 216.954C22.3909 216.796 22.7986 216.716 23.2102 216.716H47.262C47.6736 216.716 48.0813 216.796 48.4618 216.954C48.8422 217.111 49.188 217.341 49.4792 217.632C49.7705 217.923 50.0016 218.269 50.1592 218.649C50.3168 219.029 50.398 219.437 50.398 219.848C50.398 220.26 50.3168 220.668 50.1592 221.048C50.0016 221.428 49.7705 221.773 49.4792 222.064C49.188 222.355 48.8422 222.586 48.4618 222.743C48.0813 222.9 47.6736 222.981 47.262 222.98Z" fill="#94BBF9"/>
<path d="M149.654 160.893C149.145 160.893 148.64 160.795 148.168 160.602L64.4795 125.877V17.1815C64.4806 16.2203 64.8629 15.2989 65.5426 14.6192C66.2222 13.9396 67.1437 13.5573 68.1048 13.5562H228.656C229.617 13.5573 230.539 13.9396 231.218 14.6192C231.898 15.2989 232.28 16.2203 232.281 17.1815V125.953L232.124 126.02L151.185 160.585C150.701 160.788 150.18 160.893 149.654 160.893Z" fill="white"/>
<path d="M149.655 161.151C149.111 161.152 148.573 161.047 148.07 160.841L64.2207 126.049V17.1812C64.2219 16.1514 64.6315 15.164 65.3597 14.4359C66.0879 13.7077 67.0752 13.298 68.105 13.2969H228.656C229.686 13.298 230.673 13.7077 231.402 14.4359C232.13 15.164 232.539 16.1514 232.54 17.1812V126.123L151.287 160.822C150.77 161.04 150.215 161.152 149.655 161.151ZM65.2565 125.357L148.465 159.884C149.241 160.198 150.11 160.193 150.883 159.869L231.505 125.439V17.1812C231.504 16.426 231.203 15.702 230.669 15.168C230.135 14.634 229.411 14.3336 228.656 14.3327H68.105C67.3498 14.3336 66.6258 14.634 66.0918 15.168C65.5578 15.702 65.2574 16.426 65.2565 17.1812L65.2565 125.357Z" fill="#3F3D56"/>
<path d="M291.582 100.306H291.478L232.022 125.693L150.675 160.43C150.357 160.563 150.016 160.633 149.671 160.635C149.326 160.636 148.984 160.57 148.665 160.44L64.7384 125.621L3.82209 100.347L3.72903 100.306H3.62535C2.66417 100.307 1.74267 100.689 1.06301 101.369C0.383361 102.048 0.0010665 102.97 0 103.931V261.375C0.00106787 262.336 0.383361 263.257 1.06301 263.937C1.74267 264.617 2.66417 264.999 3.62535 265H291.582C292.543 264.999 293.464 264.617 294.144 263.937C294.824 263.257 295.206 262.336 295.207 261.375V103.931C295.206 102.97 294.824 102.048 294.144 101.369C293.464 100.689 292.543 100.307 291.582 100.306ZM294.171 261.375C294.171 262.061 293.898 262.72 293.412 263.206C292.927 263.691 292.268 263.964 291.582 263.964H3.62535C2.93865 263.964 2.28015 263.691 1.79458 263.206C1.30901 262.72 1.03609 262.061 1.03581 261.375V103.931C1.03675 103.261 1.29651 102.618 1.76077 102.135C2.22503 101.653 2.85786 101.368 3.52698 101.341L64.7384 126.74L148.267 161.398C149.171 161.766 150.184 161.76 151.084 161.382L232.022 126.817L291.685 101.341C292.353 101.37 292.984 101.656 293.447 102.138C293.91 102.62 294.17 103.262 294.171 103.931V261.375Z" fill="#3F3D56"/>
<path d="M148.818 130.071C145.729 130.076 142.721 129.077 140.249 127.224L140.096 127.109L107.824 102.401C106.33 101.256 105.076 99.8276 104.133 98.1977C103.19 96.5678 102.578 94.7682 102.331 92.9017C102.084 91.0352 102.207 89.1382 102.693 87.3192C103.179 85.5002 104.019 83.7948 105.164 82.3002C106.309 80.8057 107.737 79.5513 109.367 78.6087C110.997 77.6662 112.796 77.0539 114.663 76.8068C116.53 76.5597 118.426 76.6827 120.245 77.1687C122.064 77.6548 123.77 78.4943 125.264 79.6394L146.167 95.6675L195.564 31.2467C196.71 29.7526 198.139 28.4987 199.769 27.5567C201.399 26.6147 203.199 26.003 205.066 25.7566C206.932 25.5102 208.829 25.6339 210.648 26.1206C212.467 26.6073 214.172 27.4475 215.666 28.5932L215.359 29.0102L215.674 28.5993C218.688 30.9156 220.66 34.333 221.157 38.1015C221.655 41.87 220.637 45.682 218.327 48.701L160.225 124.475C158.881 126.221 157.153 127.634 155.175 128.605C153.197 129.575 151.022 130.077 148.818 130.071Z" fill="#94BBF9"/>
</g>
<defs>
<clipPath id="clip0_711_970">
<rect width="295.207" height="265" fill="white"/>
</clipPath>
</defs>
</svg>
