<svg width="268" height="267" viewBox="0 0 268 267" fill="none" xmlns="http://www.w3.org/2000/svg">
<g clip-path="url(#clip0_586_822)">
<path d="M178.257 267H14.6283C10.75 266.996 7.03175 265.45 4.28936 262.703C1.54696 259.957 0.00437779 256.232 0 252.347V14.6527C0.00437779 10.7679 1.54696 7.04348 4.28936 4.29652C7.03175 1.54956 10.75 0.00438509 14.6283 0H178.257C182.136 0.00437965 185.854 1.54955 188.596 4.29651C191.339 7.04347 192.881 10.7679 192.886 14.6527V252.347C192.881 256.232 191.339 259.957 188.596 262.703C185.854 265.45 182.136 266.996 178.257 267Z" fill="#3F3D56"/>
<path d="M178.546 257.651H14.3404C13.1448 257.65 11.9987 257.173 11.1533 256.327C10.308 255.48 9.83242 254.332 9.83105 253.134V13.8655C9.83242 12.668 10.308 11.5199 11.1533 10.6731C11.9987 9.82632 13.1448 9.35 14.3404 9.34863H178.546C179.741 9.35 180.887 9.82632 181.733 10.6731C182.578 11.5199 183.054 12.668 183.055 13.8655V253.134C183.054 254.332 182.578 255.48 181.733 256.327C180.887 257.173 179.741 257.65 178.546 257.651Z" fill="white"/>
<path d="M95.8206 5.73372C96.5079 5.73372 97.065 5.17565 97.065 4.48722C97.065 3.7988 96.5079 3.24072 95.8206 3.24072C95.1333 3.24072 94.5762 3.7988 94.5762 4.48722C94.5762 5.17565 95.1333 5.73372 95.8206 5.73372Z" fill="white"/>
<path d="M140.243 110.537L134.807 94.2292L134.715 93.9456L157.608 79.4614L158.825 81.1041L165.2 89.7037L162.87 96.659L156.846 114.629L156.582 115.419L167.737 123.727C168.179 124.543 168.546 125.288 168.845 125.972C172.175 133.573 167.246 133.228 167.246 133.228L144.559 123.488L140.243 110.537Z" fill="#FFB7B7"/>
<path d="M152.254 113.573L151.254 110.571L146.345 95.8336L145.323 92.7616L144.464 90.1907L155.657 83.1064L167.356 75.7065L174.949 85.9488L172.647 92.8164L171.529 96.1533L169.8 101.315L166.331 111.664L177.486 119.972C178.33 121.454 178.996 123.031 179.471 124.671C179.665 125.355 179.757 126.064 179.744 126.775C179.762 127.139 179.703 127.502 179.57 127.842C179.438 128.181 179.235 128.488 178.975 128.743C178.715 128.999 178.404 129.195 178.063 129.321C177.722 129.447 177.357 129.499 176.994 129.473L154.307 119.733L152.254 113.573Z" fill="#FFB7B7"/>
<path opacity="0.15" d="M151.189 114.238L149.873 100.336L156.433 96.7729L156.862 97.5664L150.825 100.845L152.046 113.733L165.459 122.934L164.95 123.678L151.189 114.238Z" fill="black"/>
<path opacity="0.15" d="M165.5 113.772L164.965 114.498L178.501 124.515L179.036 123.79L165.5 113.772Z" fill="black"/>
<path d="M164.693 127.399L96.5971 79.4482L27.8057 126.952L95.5712 155.615L164.693 127.399Z" fill="white"/>
<path d="M115.939 86.6984L138.87 64.2412L179.88 61.4658L230.858 110.226L268 130.587L257.536 161.409L212.706 140.093C203.579 139.421 197.706 136.388 193.992 133.197C192.714 132.101 191.563 130.866 190.559 129.515C189.46 128.082 188.603 126.478 188.021 124.768L169.8 101.315L166.043 96.4746L163.61 93.3426L155.657 83.1063L155.085 82.3705L141.574 82.0122L134.542 91.259L129.603 97.748C129.488 100.033 128.664 102.226 127.246 104.02C122.817 109.417 113.836 108.363 113.836 108.363L115.939 86.6984Z" fill="#FFB7B7"/>
<path d="M28.0679 126.908H28.117L56.2411 138.937L94.7207 155.395C94.871 155.459 95.0324 155.492 95.1955 155.493C95.3586 155.493 95.5203 155.462 95.6713 155.4L135.371 138.902L164.186 126.927L164.23 126.908H164.279C164.734 126.908 165.17 127.089 165.491 127.411C165.813 127.733 165.993 128.17 165.994 128.625V203.225C165.993 203.68 165.813 204.117 165.491 204.439C165.17 204.761 164.734 204.942 164.279 204.942H28.0679C27.6132 204.942 27.1773 204.761 26.8559 204.439C26.5344 204.117 26.3535 203.68 26.353 203.225V128.625C26.3535 128.17 26.5344 127.733 26.8559 127.411C27.1773 127.089 27.6132 126.908 28.0679 126.908Z" fill="white"/>
<path d="M27.9458 127.398C27.9958 127.398 28.0446 127.383 28.0856 127.354L95.8382 80.091C96.0444 79.9479 96.2894 79.8714 96.5402 79.8718C96.7911 79.8722 97.0359 79.9496 97.2416 80.0934L164.506 127.354C164.559 127.391 164.625 127.406 164.689 127.394C164.753 127.383 164.81 127.347 164.847 127.294C164.884 127.24 164.899 127.175 164.888 127.111C164.876 127.047 164.84 126.99 164.787 126.952L97.5229 79.6916C97.2349 79.4902 96.8923 79.3819 96.541 79.3813C96.1898 79.3808 95.8468 79.4879 95.5581 79.6883L27.8056 126.952C27.7628 126.981 27.7307 127.024 27.7138 127.074C27.697 127.123 27.6963 127.177 27.712 127.227C27.7276 127.276 27.7587 127.32 27.8008 127.351C27.8428 127.382 27.8936 127.398 27.9458 127.398Z" fill="#3F3D56"/>
<path d="M160.662 129.074L96.4733 81.4229L31.7979 132.464L93.1662 168.905L126.484 161.298L160.662 129.074Z" fill="#E6E6E6"/>
<path d="M123.671 191.413H155.382C155.775 191.413 156.152 191.257 156.429 190.98C156.707 190.702 156.864 190.325 156.864 189.931C156.865 189.538 156.71 189.161 156.433 188.882C156.155 188.603 155.779 188.446 155.387 188.445H123.671C123.279 188.445 122.902 188.601 122.624 188.879C122.346 189.157 122.19 189.534 122.189 189.927C122.189 190.32 122.344 190.698 122.621 190.976C122.898 191.255 123.274 191.412 123.667 191.413H123.671Z" fill="#94BBF9"/>
<path d="M144.005 185.033H155.383C155.775 185.033 156.152 184.877 156.43 184.599C156.708 184.321 156.864 183.944 156.865 183.551C156.865 183.158 156.71 182.78 156.433 182.502C156.156 182.223 155.78 182.066 155.387 182.065H144.005C143.613 182.065 143.236 182.221 142.958 182.499C142.68 182.776 142.524 183.153 142.523 183.547C142.523 183.94 142.678 184.317 142.955 184.596C143.232 184.875 143.608 185.032 144.001 185.033H144.005Z" fill="#94BBF9"/>
<path d="M95.5711 155.615C95.8121 155.615 96.0509 155.569 96.274 155.477L135.861 139.024V87.5224C135.861 87.067 135.68 86.6304 135.358 86.3084C135.037 85.9864 134.601 85.8052 134.146 85.8047H58.2012C57.7466 85.8052 57.3107 85.9864 56.9892 86.3084C56.6677 86.6304 56.4869 87.067 56.4863 87.5224V139.06L56.5607 139.092L94.8469 155.469C95.0762 155.566 95.3224 155.615 95.5711 155.615Z" fill="white"/>
<path d="M94.7987 155.582L56.3638 139.141V87.5221C56.3643 87.0341 56.5581 86.5663 56.9025 86.2213C57.247 85.8763 57.714 85.6822 58.2011 85.6816H134.146C134.633 85.6822 135.1 85.8763 135.445 86.2213C135.789 86.5663 135.983 87.0341 135.984 87.5221V139.106L96.3206 155.59C95.8321 155.789 95.2848 155.786 94.7987 155.582ZM135.494 87.5221C135.493 87.1643 135.351 86.8212 135.099 86.5682C134.846 86.3152 134.503 86.1728 134.146 86.1724H58.2011C57.8439 86.1728 57.5014 86.3152 57.2488 86.5682C56.9962 86.8212 56.8541 87.1643 56.8537 87.5221V138.817L94.9901 155.13C95.3554 155.283 95.7666 155.286 96.1337 155.137L135.494 138.778L135.494 87.5221Z" fill="#3F3D56"/>
<path d="M26.7207 128.625V203.225C26.7212 203.68 26.9021 204.117 27.2235 204.439C27.545 204.761 27.9809 204.942 28.4356 204.942H164.647C165.101 204.942 165.537 204.761 165.859 204.439C166.18 204.117 166.361 203.68 166.362 203.225V128.625C166.361 128.17 166.18 127.733 165.859 127.411C165.537 127.089 165.101 126.908 164.647 126.908H164.598L164.554 126.927L135.739 138.902L96.039 155.4C95.888 155.462 95.7263 155.493 95.5632 155.493C95.4001 155.492 95.2387 155.459 95.0884 155.395L56.6088 138.937L28.4846 126.908H28.4356C27.9809 126.908 27.545 127.089 27.2235 127.411C26.9021 127.733 26.7212 128.17 26.7207 128.625ZM27.2107 128.625C27.2114 128.309 27.334 128.004 27.553 127.776C27.772 127.547 28.0706 127.412 28.3866 127.398L56.6088 139.469L94.8948 155.847C95.3206 156.026 95.7998 156.029 96.2275 155.854L135.739 139.433L164.693 127.398C165.01 127.411 165.309 127.546 165.529 127.775C165.748 128.003 165.871 128.308 165.872 128.625V203.225C165.872 203.55 165.742 203.862 165.513 204.092C165.283 204.322 164.972 204.452 164.647 204.452H28.4356C28.1108 204.452 27.7993 204.322 27.5696 204.092C27.3399 203.862 27.2108 203.55 27.2107 203.225V128.625Z" fill="#3F3D56"/>
<path d="M64.8495 105.056H91.7978C92.3175 105.056 92.816 104.849 93.1836 104.481C93.5511 104.113 93.7576 103.614 93.7576 103.093C93.7576 102.572 93.5511 102.073 93.1836 101.705C92.816 101.337 92.3175 101.13 91.7978 101.13H64.8495C64.3297 101.13 63.8312 101.337 63.4637 101.705C63.0961 102.073 62.8896 102.572 62.8896 103.093C62.8896 103.614 63.0961 104.113 63.4637 104.481C63.8312 104.849 64.3297 105.056 64.8495 105.056Z" fill="#94BBF9"/>
<path d="M64.8656 96.7124H77.8498C78.3696 96.7124 78.8681 96.5056 79.2356 96.1374C79.6032 95.7693 79.8097 95.2699 79.8097 94.7493C79.8097 94.2286 79.6032 93.7293 79.2356 93.3611C78.8681 92.993 78.3696 92.7861 77.8498 92.7861H64.8656C64.3458 92.7861 63.8473 92.993 63.4798 93.3611C63.1122 93.7293 62.9058 94.2286 62.9058 94.7493C62.9058 95.2699 63.1122 95.7693 63.4798 96.1374C63.8473 96.5056 64.3458 96.7124 64.8656 96.7124Z" fill="#94BBF9"/>
<path d="M76.0185 124.688H117.176C117.696 124.688 118.194 124.481 118.562 124.113C118.929 123.744 119.136 123.245 119.136 122.724C119.136 122.204 118.929 121.704 118.562 121.336C118.194 120.968 117.696 120.761 117.176 120.761H76.0185C75.4987 120.761 75.0002 120.968 74.6326 121.336C74.2651 121.704 74.0586 122.204 74.0586 122.724C74.0586 123.245 74.2651 123.744 74.6326 124.113C75.0002 124.481 75.4987 124.688 76.0185 124.688Z" fill="#CCCCCC"/>
<path d="M76.0185 133.767H117.176C117.696 133.767 118.194 133.56 118.562 133.192C118.929 132.824 119.136 132.325 119.136 131.804C119.136 131.283 118.929 130.784 118.562 130.416C118.194 130.048 117.696 129.841 117.176 129.841H76.0185C75.4987 129.841 75.0002 130.048 74.6326 130.416C74.2651 130.784 74.0586 131.283 74.0586 131.804C74.0586 132.325 74.2651 132.824 74.6326 133.192C75.0002 133.56 75.4987 133.767 76.0185 133.767Z" fill="#CCCCCC"/>
<path opacity="0.1" d="M171.529 96.1531L179.703 95.6797L212.365 135.999L200.826 134.231L193.992 133.197C192.715 132.101 191.563 130.866 190.559 129.515L182.965 127.257L179.471 124.67C179.69 125.511 171.529 96.1531 171.529 96.1531Z" fill="black"/>
<path d="M119.276 94.8702C119.51 93.3621 120.331 92.0083 121.558 91.1042C122.786 90.2001 124.321 89.8193 125.828 90.045L134.542 91.259L145.322 92.7615L153.654 93.9217L163.61 93.3427L172.647 92.8163L177.986 92.5077L213.488 136.333L182.965 127.257L179.47 124.67L164.17 113.35C164.17 113.35 159.156 112.425 151.253 110.571C150.077 110.291 136.774 106.947 130.524 105.128C129.313 104.775 128.227 104.405 127.245 104.02C120.278 101.273 118.884 97.7511 119.276 94.8702Z" fill="#FFB7B7"/>
<path opacity="0.15" d="M124.267 100.345C124.298 100.342 127.409 99.9536 128.736 97.6721C129.631 96.1351 129.541 94.0653 128.469 91.5204L129.299 91.1699C130.488 93.9937 130.559 96.3362 129.511 98.1324C127.951 100.804 124.515 101.225 124.37 101.242L124.267 100.345Z" fill="black"/>
<path opacity="0.15" d="M155.717 94.2529L155.715 93.351L171.728 93.3253L154.846 82.753L155.324 81.9878L174.86 94.222L155.717 94.2529Z" fill="black"/>
</g>
<defs>
<clipPath id="clip0_586_822">
<rect width="268" height="267" fill="white"/>
</clipPath>
</defs>
</svg>
