<svg width="229" height="206" viewBox="0 0 229 206" fill="none" xmlns="http://www.w3.org/2000/svg">
<path d="M226.088 77.7783H226.008L180.029 97.4644L117.121 124.399C116.875 124.503 116.612 124.557 116.345 124.558C116.078 124.56 115.814 124.508 115.567 124.407L50.6644 97.4082L3.55628 77.8104L3.48432 77.7783H3.40413C2.66083 77.7792 1.94822 78.0756 1.42264 78.6026C0.89705 79.1296 0.601414 79.8442 0.600586 80.5895V202.674C0.601415 203.419 0.89705 204.134 1.42264 204.661C1.94822 205.188 2.66083 205.484 3.40413 205.485H226.088C226.831 205.484 227.544 205.188 228.07 204.661C228.595 204.134 228.891 203.419 228.892 202.674V80.5895C228.891 79.8442 228.595 79.1296 228.07 78.6026C227.544 78.0756 226.831 77.7792 226.088 77.7783Z" fill="white"/>
<path d="M226.288 78.5817C226.207 78.5818 226.127 78.5567 226.06 78.5098L115.295 1.16143C114.958 0.927132 114.557 0.801919 114.147 0.80262C113.737 0.803321 113.337 0.929899 113 1.16535L3.03351 78.509C2.94653 78.57 2.83895 78.5939 2.73441 78.5754C2.62986 78.5569 2.53691 78.4976 2.47595 78.4105C2.415 78.3233 2.39103 78.2155 2.40931 78.1106C2.42759 78.0058 2.48662 77.9125 2.57345 77.8513L112.541 0.507684C113.011 0.178117 113.572 0.000950001 114.146 3.80984e-06C114.72 -0.000942381 115.281 0.174376 115.753 0.50239L226.517 77.8505C226.587 77.8994 226.64 77.9694 226.668 78.0503C226.695 78.1313 226.696 78.2189 226.671 78.3005C226.645 78.3821 226.594 78.4533 226.525 78.5039C226.457 78.5545 226.374 78.5818 226.288 78.5817Z" fill="#3F3D56"/>
<path d="M9.31738 81.3236L114.256 3.34082L219.991 86.8723L119.663 146.509L65.1933 134.06L9.31738 81.3236Z" fill="#E6E6E6"/>
<path d="M69.7917 183.344H17.9494C17.6311 183.345 17.3157 183.283 17.0213 183.161C16.7269 183.04 16.4592 182.862 16.2336 182.636C16.008 182.411 15.8289 182.144 15.7066 181.849C15.5842 181.554 15.521 181.238 15.5205 180.919C15.52 180.6 15.5823 180.284 15.7038 179.989C15.8253 179.694 16.0036 179.425 16.2286 179.199C16.4535 178.974 16.7206 178.794 17.0147 178.672C17.3087 178.55 17.6239 178.487 17.9423 178.487H69.7917C70.11 178.486 70.4254 178.548 70.7199 178.669C71.0143 178.791 71.2819 178.969 71.5075 179.194C71.7331 179.42 71.9122 179.687 72.0346 179.982C72.1569 180.277 72.2201 180.593 72.2206 180.912C72.2211 181.231 72.1588 181.547 72.0373 181.842C71.9158 182.137 71.7375 182.405 71.5126 182.631C71.2876 182.857 71.0205 183.036 70.7265 183.159C70.4324 183.281 70.1172 183.344 69.7988 183.344H69.7917Z" fill="#94BBF9"/>
<path d="M36.5483 172.903H17.9484C17.6301 172.903 17.3147 172.841 17.0203 172.72C16.7259 172.599 16.4582 172.42 16.2326 172.195C16.007 171.97 15.828 171.702 15.7056 171.407C15.5832 171.113 15.52 170.797 15.5195 170.478C15.5191 170.158 15.5814 169.842 15.7028 169.547C15.8243 169.252 16.0027 168.984 16.2276 168.758C16.4525 168.532 16.7196 168.353 17.0137 168.231C17.3078 168.108 17.623 168.045 17.9413 168.045H36.5483C37.1901 168.045 37.8057 168.301 38.2599 168.755C38.7141 169.21 38.9697 169.827 38.9707 170.47C38.9716 171.114 38.7178 171.732 38.265 172.188C37.8121 172.644 37.1973 172.901 36.5555 172.903H36.5483Z" fill="#94BBF9"/>
<path d="M115.731 124.759C115.337 124.759 114.947 124.683 114.582 124.533L49.8633 97.6069V13.3229C49.8642 12.5776 50.1598 11.8631 50.6854 11.3361C51.2109 10.8091 51.9235 10.5126 52.6668 10.5117H176.825C177.569 10.5126 178.281 10.8091 178.807 11.3361C179.332 11.8631 179.628 12.5776 179.629 13.3229V97.6658L179.507 97.7179L116.915 124.52C116.54 124.678 116.138 124.759 115.731 124.759Z" fill="#94BBF9"/>
<path d="M225.488 77.7783H225.407L179.429 97.4644L116.521 124.399C116.275 124.503 116.011 124.557 115.744 124.558C115.478 124.56 115.213 124.508 114.967 124.407L50.0639 97.4082L2.95574 77.8104L2.88378 77.7783H2.80354C2.06025 77.7792 1.34764 78.0756 0.822051 78.6026C0.296464 79.1296 0.000826643 79.8442 0 80.5895V202.674C0.000826646 203.419 0.296464 204.134 0.822051 204.661C1.34764 205.188 2.06025 205.484 2.80354 205.485H225.488C226.231 205.484 226.944 205.188 227.469 204.661C227.995 204.134 228.29 203.419 228.291 202.674V80.5895C228.29 79.8442 227.995 79.1296 227.469 78.6026C226.944 78.0756 226.231 77.7792 225.488 77.7783ZM227.49 202.674C227.49 203.206 227.279 203.717 226.903 204.094C226.528 204.47 226.019 204.682 225.488 204.682H2.80354C2.2725 204.682 1.76326 204.47 1.38775 204.094C1.01224 203.717 0.801186 203.206 0.800975 202.674V80.5895C0.801701 80.0702 1.00258 79.5713 1.3616 79.1971C1.72063 78.8229 2.21002 78.6023 2.72746 78.5815L50.0639 98.2757L114.658 125.15C115.358 125.436 116.141 125.431 116.837 125.138L179.429 98.3359L225.568 78.5815C226.084 78.6039 226.572 78.8251 226.93 79.1991C227.288 79.5731 227.489 80.0711 227.49 80.5895L227.49 202.674Z" fill="#3F3D56"/>
<path d="M105.656 42.0173H61.5999C60.7511 42.0158 59.9375 41.6767 59.3379 41.0743C58.7382 40.472 58.4014 39.6556 58.4014 38.8045C58.4014 37.9534 58.7382 37.1371 59.3379 36.5348C59.9375 35.9324 60.7511 35.5933 61.5999 35.5918H105.656C106.505 35.5933 107.318 35.9324 107.918 36.5348C108.518 37.1371 108.855 37.9534 108.855 38.8045C108.855 39.6556 108.518 40.472 107.918 41.0743C107.318 41.6767 106.505 42.0158 105.656 42.0173Z" fill="white"/>
<path d="M82.8267 28.363H61.5996C60.7498 28.363 59.9348 28.0245 59.334 27.422C58.7331 26.8195 58.3955 26.0023 58.3955 25.1502C58.3955 24.2982 58.7331 23.481 59.334 22.8785C59.9348 22.276 60.7498 21.9375 61.5996 21.9375H82.8267C83.6764 21.9375 84.4914 22.276 85.0923 22.8785C85.6932 23.481 86.0308 24.2982 86.0308 25.1502C86.0308 26.0023 85.6932 26.8195 85.0923 27.422C84.4914 28.0245 83.6764 28.363 82.8267 28.363Z" fill="white"/>
<path d="M147.697 74.1447H80.4111C79.5613 74.1447 78.7464 73.8062 78.1455 73.2037C77.5446 72.6012 77.207 71.7841 77.207 70.932C77.207 70.0799 77.5446 69.2627 78.1455 68.6602C78.7464 68.0577 79.5613 67.7192 80.4111 67.7192H147.697C148.547 67.7192 149.362 68.0577 149.963 68.6602C150.563 69.2627 150.901 70.0799 150.901 70.932C150.901 71.7841 150.563 72.6012 149.963 73.2037C149.362 73.8062 148.547 74.1447 147.697 74.1447Z" fill="white"/>
<path d="M147.697 89.0036H80.4109C79.9896 89.0044 79.5724 88.9218 79.183 88.7607C78.7936 88.5996 78.4397 88.363 78.1416 88.0646C77.8435 87.7662 77.607 87.4118 77.4456 87.0216C77.2842 86.6315 77.2012 86.2133 77.2012 85.7909C77.2012 85.3685 77.2842 84.9503 77.4456 84.5601C77.607 84.17 77.8435 83.8155 78.1416 83.5171C78.4397 83.2187 78.7936 82.9822 79.183 82.8211C79.5724 82.66 79.9896 82.5774 80.4109 82.5781H147.697C148.118 82.5774 148.535 82.66 148.925 82.8211C149.314 82.9822 149.668 83.2187 149.966 83.5171C150.264 83.8155 150.501 84.17 150.662 84.5601C150.823 84.9503 150.906 85.3685 150.906 85.7909C150.906 86.2133 150.823 86.6315 150.662 87.0216C150.501 87.4118 150.264 87.7662 149.966 88.0646C149.668 88.363 149.314 88.5996 148.925 88.7607C148.535 88.9218 148.118 89.0044 147.697 89.0036Z" fill="white"/>
</svg>
