<svg width="25" height="25" viewBox="0 0 25 25" fill="none" xmlns="http://www.w3.org/2000/svg">
<path d="M12.4746 2.08333C12.308 2.08902 12.1476 2.14783 12.0168 2.25118L4.61425 8.08309C3.67472 8.82352 3.125 9.95495 3.125 11.1511V21.0937C3.125 21.8039 3.71688 22.3958 4.42708 22.3958H9.63541C10.3456 22.3958 10.9375 21.8039 10.9375 21.0937V15.8854C10.9375 15.7317 11.0442 15.625 11.1979 15.625H13.8021C13.9557 15.625 14.0625 15.7317 14.0625 15.8854V21.0937C14.0625 21.8039 14.6544 22.3958 15.3646 22.3958H20.5729C21.2831 22.3958 21.875 21.8039 21.875 21.0937V11.1511C21.875 9.95495 21.3253 8.82353 20.3857 8.0831L12.9832 2.25119C12.8387 2.13706 12.6586 2.07761 12.4746 2.08333ZM12.5 3.85946L19.4193 9.31091C19.984 9.7559 20.3125 10.4327 20.3125 11.1511V20.8333H15.625V15.8854C15.625 14.888 14.7994 14.0625 13.8021 14.0625H11.1979C10.2005 14.0625 9.375 14.888 9.375 15.8854V20.8333H4.6875V11.1511C4.6875 10.4327 5.01601 9.7559 5.58064 9.31091L12.5 3.85946Z" fill="white"/>
</svg>
