<svg width="387" height="329" viewBox="0 0 387 329" fill="none" xmlns="http://www.w3.org/2000/svg">
<g clip-path="url(#clip0_342_1410)">
<path d="M244.012 44.8239C240.356 52.391 233.629 58.0244 226.583 62.6098C219.109 67.4567 211.074 71.3799 202.654 74.2935C201.495 74.6987 200.325 75.0867 199.154 75.4514H149.047C148.723 75.0809 148.41 74.693 148.108 74.2935C144.962 70.1365 143.276 64.8736 143.908 59.715C144.736 52.9526 149.876 46.7345 156.545 45.2928C163.214 43.857 170.815 47.8345 172.838 54.3421C173.956 41.7958 175.242 28.7227 181.917 18.0349C187.96 8.3603 198.436 1.43582 209.781 0.19682C216.453 -0.497614 223.186 0.73406 229.179 3.74588C229.73 4.02378 230.274 4.31327 230.807 4.61433C234.404 6.65229 237.578 9.35829 240.159 12.5868C247.234 21.5377 248.966 34.5471 244.012 44.8239Z" fill="#F2F2F2"/>
<path d="M230.807 4.61436C230.821 4.76632 230.795 4.91932 230.732 5.05837C230.669 5.19742 230.571 5.31775 230.448 5.40758C207.754 23.8736 189.806 47.4915 178.098 74.2935C177.924 74.6756 177.757 75.0635 177.594 75.4514H175.288C175.45 75.0635 175.613 74.6756 175.781 74.2935C177.977 69.1754 180.404 64.1615 183.064 59.2518C188.82 48.6515 195.592 38.6347 203.285 29.3422C210.977 20.0384 219.569 11.5153 228.935 3.89647C229.01 3.83603 229.092 3.78544 229.179 3.74594C229.342 3.67585 229.518 3.64329 229.695 3.65069C229.873 3.65808 230.046 3.70525 230.202 3.78867C230.358 3.87209 230.494 3.98964 230.599 4.13258C230.703 4.27552 230.775 4.44019 230.807 4.61436Z" fill="white"/>
<path d="M231.763 74.2935H11.0088C9.10731 74.2914 7.23811 74.7842 5.58529 75.7236C5.1894 75.9481 4.80821 76.1976 4.44402 76.4704C3.06498 77.4921 1.94467 78.8223 1.17293 80.3546C0.401184 81.8869 -0.000527984 83.5786 5.20812e-07 85.294V199.93C0.00259489 202.847 1.16328 205.643 3.22726 207.706C5.29124 209.768 8.08985 210.928 11.0088 210.931H231.763C234.682 210.928 237.481 209.768 239.545 207.706C241.609 205.643 242.769 202.847 242.772 199.93V85.294C242.769 82.3773 241.609 79.5808 239.545 77.5184C237.481 75.456 234.682 74.2962 231.763 74.2935ZM241.613 199.93C241.61 202.539 240.571 205.041 238.724 206.886C236.878 208.731 234.375 209.769 231.763 209.773H11.0088C8.39753 209.769 5.89431 208.731 4.04788 206.886C2.20146 205.041 1.16251 202.539 1.15882 199.93V85.294C1.16704 83.2139 1.83091 81.1893 3.05613 79.5077C4.28135 77.8261 6.00564 76.5729 7.98412 75.9262C8.06532 75.9031 8.14056 75.8741 8.22177 75.851C9.12682 75.5851 10.0654 75.4506 11.0088 75.4515H231.763C234.375 75.4552 236.878 76.4934 238.724 78.3384C240.571 80.1834 241.61 82.6847 241.613 85.294V199.93Z" fill="#3F3D56"/>
<path d="M311.269 223.826C312.031 223.329 312.675 222.672 313.156 221.899C313.636 221.127 313.941 220.259 314.05 219.356C314.158 218.454 314.067 217.538 313.784 216.674C313.5 215.81 313.03 215.019 312.407 214.356L315.867 173.128L305.956 174.217L303.241 214.344C302.196 215.464 301.598 216.928 301.561 218.458C301.524 219.988 302.051 221.479 303.04 222.648C304.03 223.817 305.414 224.582 306.93 224.799C308.447 225.016 309.991 224.67 311.269 223.826Z" fill="#FFB8B8"/>
<path d="M275.993 322.164L268.89 322.164L265.511 294.785L275.995 294.786L275.993 322.164Z" fill="#FFB8B8"/>
<path d="M263.816 320.135H277.515V328.754H255.19C255.19 327.623 255.414 326.502 255.847 325.456C256.28 324.41 256.916 323.46 257.717 322.66C258.518 321.86 259.469 321.225 260.515 320.792C261.562 320.358 262.683 320.135 263.816 320.135Z" fill="#2F2E41"/>
<path d="M326.403 322.164L319.299 322.164L315.92 294.785L326.404 294.786L326.403 322.164Z" fill="#FFB8B8"/>
<path d="M314.225 320.135H327.925V328.754H305.6C305.6 326.469 306.508 324.276 308.126 322.66C309.744 321.043 311.938 320.135 314.225 320.135Z" fill="#2F2E41"/>
<path d="M276.113 305.207C276.036 305.207 275.959 305.204 275.881 305.198L265.827 304.394C265.429 304.362 265.041 304.248 264.688 304.059C264.336 303.87 264.026 303.61 263.779 303.295C263.532 302.981 263.353 302.618 263.253 302.231C263.153 301.844 263.134 301.44 263.198 301.046L278.441 206.836L279.462 193.548C279.508 192.927 279.753 192.337 280.162 191.867C280.571 191.397 281.122 191.072 281.732 190.942L297.064 187.591C297.627 187.465 298.216 187.511 298.752 187.724C299.289 187.937 299.75 188.306 300.074 188.784L303.812 194.244C305.28 196.366 306.876 198.398 308.589 200.328C311.242 203.347 315.752 210.049 316.156 221.018C316.265 224.621 316.639 228.212 317.277 231.76L329.62 298.203C329.683 298.592 329.665 298.991 329.568 299.373C329.47 299.755 329.296 300.114 329.055 300.427C328.814 300.739 328.512 300.999 328.167 301.191C327.822 301.382 327.441 301.501 327.048 301.54L317.518 302.262C316.836 302.329 316.152 302.152 315.589 301.761C315.027 301.371 314.621 300.793 314.446 300.132L297.54 237.313C297.507 237.189 297.434 237.081 297.333 237.003C297.232 236.926 297.108 236.884 296.98 236.884C296.852 236.884 296.729 236.927 296.627 237.004C296.526 237.082 296.454 237.191 296.421 237.314L278.912 303.057C278.747 303.673 278.384 304.218 277.878 304.606C277.372 304.995 276.752 305.206 276.113 305.207Z" fill="#2F2E41"/>
<path d="M302.849 144.896C310.709 144.896 317.08 138.529 317.08 130.675C317.08 122.822 310.709 116.455 302.849 116.455C294.99 116.455 288.618 122.822 288.618 130.675C288.618 138.529 294.99 144.896 302.849 144.896Z" fill="#FFB8B8"/>
<path d="M278.728 195.686L278.434 175.379C277.35 162.391 283.106 155.572 288.126 152.141C289.42 151.268 290.879 150.667 292.413 150.373C293.947 150.08 295.525 150.101 297.051 150.434L308.25 152.854C309.81 153.193 311.284 153.845 312.584 154.77C313.885 155.696 314.983 156.875 315.815 158.236C316.609 159.521 317.131 160.955 317.348 162.45C317.564 163.945 317.471 165.468 317.073 166.925C316.295 169.653 314.57 172.014 312.206 173.585C302.583 180.373 301.905 191.775 301.899 191.89L301.888 192.126L278.728 195.686Z" fill="#005691"/>
<path d="M313.778 180.585H303.928C303.236 180.585 302.574 180.31 302.085 179.822C301.596 179.333 301.321 178.671 301.32 177.98V160.9C301.32 158.904 302.114 156.99 303.526 155.578C304.939 154.167 306.855 153.374 308.853 153.374C310.85 153.374 312.766 154.167 314.179 155.578C315.591 156.99 316.385 158.904 316.385 160.9V177.98C316.384 178.671 316.109 179.333 315.62 179.822C315.132 180.31 314.469 180.585 313.778 180.585Z" fill="#005691"/>
<path d="M247.645 183.812C247.065 184.504 246.345 185.066 245.532 185.459C244.719 185.853 243.832 186.07 242.928 186.096C242.025 186.122 241.127 185.957 240.292 185.611C239.458 185.265 238.706 184.746 238.087 184.088C232.475 178.207 241.649 169.375 247.283 175.269C247.482 175.473 247.666 175.689 247.835 175.918L276.242 175.212L279.633 169.016L290.053 173.059C288.053 176.159 285.756 188.326 280.523 187.734C279.837 187.752 248.347 183.862 247.645 183.812Z" fill="#FFB8B8"/>
<path d="M285.647 179.123L277.706 173.3C277.149 172.891 276.778 172.277 276.673 171.595C276.568 170.912 276.738 170.215 277.147 169.658L287.26 155.889C287.845 155.092 288.581 154.418 289.427 153.906C290.273 153.393 291.212 153.052 292.189 152.902C293.167 152.752 294.165 152.796 295.125 153.032C296.086 153.267 296.991 153.689 297.789 154.274C298.586 154.859 299.26 155.595 299.773 156.44C300.286 157.285 300.627 158.223 300.777 159.2C300.927 160.177 300.883 161.174 300.648 162.134C300.412 163.094 299.99 163.998 299.405 164.795L289.292 178.564C288.882 179.121 288.268 179.492 287.585 179.597C286.902 179.702 286.205 179.531 285.647 179.123Z" fill="#005691"/>
<path d="M305.699 138.067C306.158 137.109 306.318 136.036 306.156 134.986C305.995 133.937 305.521 132.961 304.795 132.185C302.118 129.488 297.935 131.287 294.317 131.023C288.29 130.583 284.186 123.402 285.985 117.637C287.784 111.873 294.179 108.296 300.21 108.675C306.241 109.054 311.701 112.782 315.335 117.606C317.823 113.605 323.936 113.138 327.881 115.717C331.825 118.296 333.866 123.01 334.71 127.645C335.553 132.279 335.416 137.042 336.126 141.699C337.848 152.987 345.139 163.617 355.689 168.005C366.239 172.393 379.739 169.573 386.641 160.472C387.983 171.501 385.628 182.663 379.946 192.212C374.264 201.761 365.574 209.159 355.236 213.247C349.519 215.509 343.206 216.709 337.187 215.452C327.471 213.423 319.913 205.12 316.619 195.763C313.325 186.406 313.72 176.139 315.319 166.35C316.305 160.32 317.396 153.179 312.995 148.938C311.76 147.911 310.306 147.178 308.745 146.797C307.917 146.548 307.157 146.114 306.522 145.528C305.888 144.941 305.396 144.218 305.083 143.412C304.771 142.607 304.647 141.741 304.72 140.88C304.793 140.02 305.062 139.187 305.507 138.446C305.578 138.32 305.642 138.194 305.699 138.067Z" fill="#2F2E41"/>
<path d="M356.788 329H224.683C224.529 329 224.382 328.939 224.273 328.83C224.165 328.722 224.104 328.575 224.104 328.421C224.104 328.267 224.165 328.12 224.273 328.012C224.382 327.903 224.529 327.842 224.683 327.842H356.788C356.942 327.842 357.089 327.903 357.198 328.012C357.306 328.12 357.367 328.267 357.367 328.421C357.367 328.575 357.306 328.722 357.198 328.83C357.089 328.939 356.942 329 356.788 329Z" fill="#3F3D56"/>
<path d="M121.145 142.563C120.266 142.563 119.401 142.34 118.631 141.916L3.30389 78.4878C3.16928 78.4138 3.06962 78.2893 3.02683 78.1419C2.98404 77.9944 3.00162 77.836 3.07572 77.7015C3.14981 77.567 3.27436 77.4674 3.42193 77.4246C3.56951 77.3819 3.72803 77.3995 3.86264 77.4735L119.19 140.901C119.778 141.226 120.438 141.399 121.11 141.405C121.782 141.411 122.444 141.249 123.038 140.935L240.264 79.142C240.331 79.1063 240.405 79.0843 240.48 79.0771C240.556 79.0699 240.633 79.0778 240.706 79.1002C240.778 79.1226 240.846 79.1592 240.905 79.2077C240.963 79.2563 241.012 79.316 241.047 79.3833C241.083 79.4506 241.105 79.5243 241.112 79.6001C241.119 79.6758 241.111 79.7523 241.088 79.825C241.066 79.8977 241.029 79.9652 240.98 80.0237C240.932 80.0822 240.872 80.1305 240.804 80.1659L123.579 141.959C122.829 142.355 121.993 142.563 121.145 142.563Z" fill="#3F3D56"/>
<path d="M36.8314 181.982H20.6079C19.3786 181.982 18.1996 181.494 17.3303 180.625C16.461 179.757 15.9727 178.579 15.9727 177.35C15.9727 176.122 16.461 174.944 17.3303 174.075C18.1996 173.206 19.3786 172.718 20.6079 172.718H36.8314C38.0607 172.718 39.2397 173.206 40.109 174.075C40.9783 174.944 41.4666 176.122 41.4666 177.35C41.4666 178.579 40.9783 179.757 40.109 180.625C39.2397 181.494 38.0607 181.982 36.8314 181.982Z" fill="#3F3D56"/>
<path d="M55.9518 197.614H20.6079C19.3786 197.614 18.1996 197.126 17.3303 196.258C16.461 195.389 15.9727 194.211 15.9727 192.982C15.9727 191.754 16.461 190.576 17.3303 189.707C18.1996 188.839 19.3786 188.351 20.6079 188.351H55.9518C57.1812 188.351 58.3602 188.839 59.2295 189.707C60.0987 190.576 60.5871 191.754 60.5871 192.982C60.5871 194.211 60.0987 195.389 59.2295 196.258C58.3602 197.126 57.1812 197.614 55.9518 197.614Z" fill="#3F3D56"/>
<path d="M121.099 161.139C131.339 161.139 139.64 152.844 139.64 142.612C139.64 132.38 131.339 124.085 121.099 124.085C110.859 124.085 102.558 132.38 102.558 142.612C102.558 152.844 110.859 161.139 121.099 161.139Z" fill="#005691"/>
</g>
<defs>
<clipPath id="clip0_342_1410">
<rect width="387" height="329" fill="white"/>
</clipPath>
</defs>
</svg>
