<svg width="25" height="24" viewBox="0 0 25 24" fill="none" xmlns="http://www.w3.org/2000/svg">
<path d="M12.5254 0C5.61883 0 0 4.96471 0 11.0645C0 14.0122 1.28973 16.769 3.63825 18.8581C3.20377 20.1334 2.09018 21.0114 1.26233 21.6637C0.502975 22.2614 -0.0469704 22.6936 0.117426 23.3049L0.170268 23.5055L0.350321 23.6087C0.806325 23.8676 1.41303 24 2.15868 24C4.63833 24 8.20221 22.5846 9.7718 21.9031C10.6642 22.0881 11.5508 22.1796 12.4746 22.1796C19.3831 22.1796 25 17.2149 25 11.1151C25 4.98613 19.4046 0 12.5254 0ZM13.3279 16.4478C13.3279 16.5471 13.277 16.6464 13.1263 16.6464H11.9755V16.5977C11.8737 16.5977 11.7739 16.5471 11.7739 16.3991V9.71915C11.7739 9.61986 11.8248 9.52056 11.9755 9.52056H13.1263C13.228 9.52056 13.3279 9.56924 13.3279 9.71915V16.4478ZM13.3279 7.37698C13.3279 7.47627 13.277 7.57557 13.1263 7.57557H11.9246C11.8248 7.57557 11.725 7.52689 11.725 7.37698V6.08031C11.725 5.98102 11.7739 5.88172 11.9246 5.88172H13.1263C13.228 5.88172 13.3279 5.9304 13.3279 6.08031V7.37698Z" fill="black"/>
</svg>
